<svg id="圖層_1" data-name="圖層 1" xmlns="http://www.w3.org/2000/svg" viewBox="0 0 49 45.88"><defs><style>.cls-1{fill:#190f39;}</style></defs><path class="cls-1" d="M48.79,43.09c-1.75-1.93-3.55-3.88-5.28-5.76L41.17,34.8a2,2,0,0,0-1.55-.67c-.52,0-.82-.1-.95-.28s-.1-.53.09-1.07l.36-1c.45-1.26.92-2.56,1.28-3.88,1.69-6.15-1.52-14.37-7.15-18.31C27.33,5.4,21.11,4.89,14.77,8.05s-9.66,8.6-10,16.25v0C5.11,32.42,8.81,38,15.75,41s13.49,1.81,19.32-3.53l.52-.49.29-.26c.21-.19.29-.12.32-.09a.37.37,0,0,1,0,.27,2.57,2.57,0,0,0,1,2.55q1.56,1.63,3.1,3.29l1.32,1.43c.89,1,1.81,2,2.75,2.92a2.8,2.8,0,0,0,2,.84A3.07,3.07,0,0,0,48.55,47,2.76,2.76,0,0,0,48.79,43.09ZM37.2,33.67h0c.21,0,.35.19.57.5a2.74,2.74,0,0,0,.44.54c-.15.14-.29.29-.42.43-.3.33-.55.62-.88.62h0a1.24,1.24,0,0,1-.75-.45.7.7,0,0,1-.23-.47A1.59,1.59,0,0,1,37.2,33.67Zm.3,3.11.1-.1,0-.07c.92-1,1.44-1.52,1.94-1.52h0c.5,0,1,.48,1.95,1.51,1.33,1.46,2.69,2.93,4,4.35.7.77,1.41,1.53,2.12,2.3l.06.07a2.32,2.32,0,0,1,.84,1.61,2.18,2.18,0,0,1-1.36,1.87,1.71,1.71,0,0,1-2.09-.33c-1.92-2-3.84-4.06-5.71-6l-1.93-2.06A1,1,0,0,1,37.5,36.78Zm-3,0c0,.1-.18.18-.31.26a1.53,1.53,0,0,0-.23.15,16,16,0,0,1-7.5,3.89,10.73,10.73,0,0,0,2.36-3.21c.14-.3.38-.34.71-.4a13.44,13.44,0,0,0,3.8-1.15.89.89,0,0,1,.44-.12.78.78,0,0,1,.65.37C34.47,36.66,34.5,36.72,34.49,36.78ZM22.26,38.61c0,.15,0,.29,0,.44s0,.34,0,.52a10.46,10.46,0,0,0,0,1.25c0,.29,0,.48-.1.55s-.42,0-.64-.09a8,8,0,0,1-3.69-3.06,20.07,20.07,0,0,1-2-3.75.61.61,0,0,1-.07-.45c0-.09.17-.17.41-.24a4.53,4.53,0,0,1,1.33-.28,1.71,1.71,0,0,1,1.43.81A5.43,5.43,0,0,0,21.31,36a1.35,1.35,0,0,1,1,1.63A5.57,5.57,0,0,0,22.26,38.61Zm0-29.29v.77c.42,1.4-.2,2.44-1.79,3A3.17,3.17,0,0,0,19,14.2c-.78,1.13-1.72.87-2.81.57l-.07,0c-.18-.05-.36-.11-.41-.21a.4.4,0,0,1,0-.3c.94-2.45,2.29-5.16,5.15-6.66a3,3,0,0,1,1-.39.2.2,0,0,1,.14,0c.18.1.22.55.21,1.18Zm-8.17,16a.5.5,0,0,1,0-.33s.11,0,.16,0h0c.13,0,.16.05.16.34v.16a13.53,13.53,0,0,0,2.76,7.07l-.86.25c-.48.14-.78.23-.91.15s-.26-.47-.42-1.15c-.05-.19-.1-.4-.16-.65a23.75,23.75,0,0,1-.74-5.62A1.09,1.09,0,0,0,14.08,25.33Zm.34-2.07a1.34,1.34,0,0,0,0,.21c0,.11,0,.26,0,.31a.24.24,0,0,1-.17,0,.23.23,0,0,1-.14-.06c-.05-.06,0-.2,0-.33a1.8,1.8,0,0,0,0-.22c0-.23,0-.46,0-.68a3,3,0,0,0,0-.31,24,24,0,0,1,1.08-6.13s0-.09,0-.14c.08-.28.12-.37.35-.33l.36.07a2.77,2.77,0,0,1,1.25.42s-.09.14-.13.19l-.07.09A13.72,13.72,0,0,0,14.42,23.26ZM15,13.69c-.1.29-.21.44-.34.49a.66.66,0,0,1-.52-.08,16,16,0,0,1-3-1.61c-.17-.12-.32-.23-.33-.34a.49.49,0,0,1,.19-.31,16,16,0,0,1,7.84-4.21A15.9,15.9,0,0,0,15,13.69Zm-.69,2.14a27.33,27.33,0,0,0-1.14,7.31.89.89,0,0,1-.18.62.83.83,0,0,1-.59.13c-.7,0-1.41,0-2.09,0h-1v0h-3a.54.54,0,0,1-.45-.11.59.59,0,0,1-.09-.47,17.55,17.55,0,0,1,4-10.11c.13-.16.24-.23.36-.23a.75.75,0,0,1,.38.18A13.38,13.38,0,0,0,13.87,15C14.33,15.17,14.41,15.34,14.26,15.83ZM5.85,24.94c.08-.09.24-.13.51-.13h.08c.72,0,1.46,0,2.18,0h2.55c1.94,0,1.94,0,2.05,1.89a24.56,24.56,0,0,0,1,5.87c.18.59.08.8-.47,1a11.09,11.09,0,0,0-3.29,1.83c-.41.33-.57.26-.89-.13a17,17,0,0,1-3.86-9.8A.72.72,0,0,1,5.85,24.94Zm5.24,11.21a14.14,14.14,0,0,1,3.26-1.75.85.85,0,0,1,.26-.07l.1,0c.09,0,.15.14.22.31a15.6,15.6,0,0,0,4.29,6.49A16.9,16.9,0,0,1,11,36.83c-.15-.13-.22-.25-.21-.35S10.91,36.28,11.09,36.15ZM15.3,24.38A12.45,12.45,0,0,1,27.64,11.9h.05A12.42,12.42,0,0,1,40,24.37a12.38,12.38,0,0,1-12.3,12.28h-.05A12.42,12.42,0,0,1,18.89,33,12.05,12.05,0,0,1,15.3,24.38Zm8.27-12.76a.43.43,0,0,1-.31,0c-.05,0-.08-.14-.08-.3,0-1.37,0-2.59,0-3.75,0-.19,0-.33.1-.37a.12.12,0,0,1,.09,0,1.29,1.29,0,0,1,.39.11l.07,0A7.39,7.39,0,0,1,27.9,11,13.4,13.4,0,0,0,23.57,11.62ZM34.38,12a1.21,1.21,0,0,0-.16.16c-.22.23-.37.36-.63.24a15.64,15.64,0,0,0-4.32-1.32c-.17,0-.24-.15-.36-.34l0,0A13.42,13.42,0,0,0,26.53,7.6a15.2,15.2,0,0,1,7.66,4l.09.07c.08.07.18.15.19.21A.21.21,0,0,1,34.38,12Zm2.28,2.5-.44-.33L35,13.25l-.12-.08c-.07,0-.17-.1-.17-.14s0-.07.12-.16.23-.21.33-.21h0c.06,0,.12.05.19.14l1.08,1.42.2.25ZM23.19,37.38c0-.18,0-.39.08-.45s.06,0,.11,0a.91.91,0,0,1,.25,0,14,14,0,0,0,4.19.64,7.07,7.07,0,0,1-4,3.71c-.27.1-.44.12-.52.07s-.11-.22-.1-.47c0-.84,0-1.7,0-2.52Z" transform="translate(-0.5 -2.06)"/><path class="cls-1" d="M38.4,24.39A11,11,0,0,0,27.68,13.48h-.07a10.48,10.48,0,0,0-7.42,3.07A10.91,10.91,0,0,0,17,24.33,10.69,10.69,0,0,0,27.5,35.1h.07a10.78,10.78,0,0,0,7.62-3.16A10.63,10.63,0,0,0,38.4,24.39Zm-10.76-10h0a10,10,0,0,1,9.82,9.92,10.13,10.13,0,0,1-9.81,9.84h0a9.65,9.65,0,0,1-6.91-2.93,9.84,9.84,0,0,1-2.89-7A10,10,0,0,1,27.64,14.42Z" transform="translate(-0.5 -2.06)"/><path class="cls-1" d="M30.26,4.3l.13,0a11.91,11.91,0,0,1,11.1,4.84,11.4,11.4,0,0,1,2.38,7.07.89.89,0,0,0,.25.72.44.44,0,0,0,.15.1l-.94,1-.92-1a.52.52,0,0,0,.11-.1,1.19,1.19,0,0,0,.23-.9,12.2,12.2,0,0,0-.33-2.37A10.92,10.92,0,0,0,30.54,5.42H30.4a.84.84,0,0,0-.66.2.55.55,0,0,0-.12.44.51.51,0,0,0,.22.36.83.83,0,0,0,.72,0l.12,0a10,10,0,0,1,11,9.53v.11h0a.62.62,0,0,0-.52,1.1c.15.18.31.36.47.53l.13.15c.33.36.65.73,1,1.1a.83.83,0,0,0,.6.34.8.8,0,0,0,.59-.32c.34-.38.68-.76,1-1.13l.6-.63a.7.7,0,0,0,.23-.77.68.68,0,0,0-.77-.36h-.12v0a1.07,1.07,0,0,0,0-.31v-.08A13.11,13.11,0,0,0,30.29,3.27h-.12a.79.79,0,0,0-.64.16.6.6,0,0,0-.16.46.49.49,0,0,0,.19.35A.89.89,0,0,0,30.26,4.3Z" transform="translate(-0.5 -2.06)"/><path class="cls-1" d="M16.17,45.41l-.42,0h-.12A12,12,0,0,1,2.83,33.83a1.19,1.19,0,0,0-.3-.9l-.11-.08,1-1.08c.31.37.63.73,1,1.12-.36.14-.42.43-.4,1a10.64,10.64,0,0,0,3.68,7.75A11.07,11.07,0,0,0,16,44.26c.56,0,.63-.34.63-.52a.5.5,0,0,0-.19-.4.6.6,0,0,0-.53-.09h-.05a11.17,11.17,0,0,1-3-.18A9.85,9.85,0,0,1,5,34v-.15h.07a.62.62,0,0,0,.76-.38.67.67,0,0,0-.23-.72L5,32.09c-.36-.41-.72-.82-1.07-1.24a.76.76,0,0,0-.58-.32.74.74,0,0,0-.57.32l-1,1.09-.64.71-.05.05a.66.66,0,0,0-.22.73.7.7,0,0,0,.83.37h0v0A10,10,0,0,0,2,35.68,13,13,0,0,0,12.62,46.29a13.42,13.42,0,0,0,2.28.2,12.39,12.39,0,0,0,1.36-.07c.53,0,.58-.38.57-.53a.47.47,0,0,0-.16-.37A.64.64,0,0,0,16.17,45.41Z" transform="translate(-0.5 -2.06)"/><path class="cls-1" d="M1.84,8.87a.59.59,0,0,1-.1.54.93.93,0,0,0,.16,1.4l.21.18a1,1,0,0,0,1.49.22c.22-.15.41-.21.53-.16s.22.23.26.5c.16.87.76.88,1.22.88h.32A1,1,0,0,0,7,11.54c0-.28.14-.45.24-.5s.25,0,.63.16l.34.17.19.1h.07a1.34,1.34,0,0,0,1-.77,1.41,1.41,0,0,0,.11-1.32.66.66,0,0,1-.06-.6.63.63,0,0,1,.47-.3c.8-.13.89-.65.82-1.06,0-.09,0-.21,0-.33a.91.91,0,0,0-.72-1.14c-.35-.09-.56-.22-.62-.37s0-.35.16-.63a1,1,0,0,0-.3-1.37c-.07-.07-.15-.14-.21-.21a.92.92,0,0,0-1.39-.17c-.35.25-.49.25-.55.23S7,3.31,7,2.93c-.2-.84-.78-.89-1.36-.87s-1.1,0-1.25.89A.65.65,0,0,1,4,3.47a.52.52,0,0,1-.48-.14,1,1,0,0,0-1.48.2L2,3.61c-.39.36-.77.81-.3,1.51.16.25.22.45.17.58s-.22.22-.48.27c-.84.18-.85.77-.86,1.21a1.48,1.48,0,0,1,0,.21,1,1,0,0,0,.88,1.18A.6.6,0,0,1,1.84,8.87ZM2.67,4.8c-.15-.23-.11-.29.12-.55s.11-.14.39,0a1.42,1.42,0,0,0,1.29.09,1.39,1.39,0,0,0,.85-.95c.07-.33.12-.35.34-.36s.28,0,.35.33a1.32,1.32,0,0,0,.82.94,1.31,1.31,0,0,0,1.26-.18c.21-.15.28-.14.48,0s.2.2,0,.45a1.45,1.45,0,0,0-.08,1.3,1.48,1.48,0,0,0,1,.89c.26.06.33.13.34.46s0,.22-.33.28h0a1.41,1.41,0,0,0-1,.91,1.3,1.3,0,0,0,.12,1.24c.19.24.16.28,0,.43s-.28.2-.48.06a1.33,1.33,0,0,0-1.29-.15,1.41,1.41,0,0,0-.84,1c0,.29-.12.33-.35.34s-.32,0-.38-.31A1.74,1.74,0,0,0,3.86,10h0a.91.91,0,0,0-.64.33c-.13.12-.19.16-.46-.07s-.17-.19,0-.46a1.36,1.36,0,0,0,0-1.26,1.31,1.31,0,0,0-.93-.82c-.3-.06-.34-.1-.35-.34s.05-.36.35-.43a1.39,1.39,0,0,0,1-.88A1.31,1.31,0,0,0,2.67,4.8Z" transform="translate(-0.5 -2.06)"/><path class="cls-1" d="M5.64,9.75h0a2.55,2.55,0,0,0,2.5-2.53A2.54,2.54,0,0,0,5.69,4.75h0a2.46,2.46,0,0,0-1.76.72,2.55,2.55,0,0,0-.74,1.85A2.51,2.51,0,0,0,5.64,9.75ZM4.16,7.29A1.54,1.54,0,0,1,5.63,5.75a1.51,1.51,0,0,1,1,.43,1.48,1.48,0,0,1,.47,1.06,1.53,1.53,0,0,1-.44,1,1.57,1.57,0,0,1-1.07.45A1.53,1.53,0,0,1,4.16,7.29Z" transform="translate(-0.5 -2.06)"/><path class="cls-1" d="M23.82,32l3.11,0,4.61,0c1.46,0,2.07-.61,2.09-2.07,0-1.25,0-2.53,0-3.76V24.68h0V23.06c0-1.16,0-2.31,0-3.47,0-2-.36-2.35-2.43-2.49l-.16,0a2.68,2.68,0,0,1-2.4-1,1.13,1.13,0,0,0-.89-.5,1.28,1.28,0,0,0-1.07.45,3.82,3.82,0,0,1-3.17,1.18c-1.39,0-1.94.54-1.94,1.9,0,3.65,0,7.25,0,10.71A2,2,0,0,0,23.82,32Zm8.9-2.2a1.35,1.35,0,0,1-.29,1,1.33,1.33,0,0,1-1,.3h0c-1.22,0-2.44,0-3.66,0H24c-1.08,0-1.43-.35-1.43-1.39,0-2.28,0-4.59,0-6.82V19.16a1.35,1.35,0,0,1,.21-.89.54.54,0,0,1,.39-.13h0a5.24,5.24,0,0,0,.53-.08c.49-.1.92-.18,1.16.45s.65.52,1,.52h.92c.75,0,1.52,0,2.28,0h.2a1.11,1.11,0,0,0,1.29-.78c.13-.34.51-.3,1.08-.21a5,5,0,0,0,.5.07c.15,0,.62,0,.62.91v7.06C32.71,27.32,32.7,28.59,32.72,29.84ZM29.43,18c-.06.07-.2.08-.35.08H27.44l-.41,0H26c-.15,0-.29,0-.34-.08s-.05-.1,0-.19.05-.24.3-.24h0c.59,0,1.19.05,1.4-.87a.27.27,0,0,1,.28-.19h0a.38.38,0,0,1,.37.3c.17.72.57.83,1.14.76a.31.31,0,0,1,.25.05.21.21,0,0,1,.06.17A.22.22,0,0,1,29.43,18Z" transform="translate(-0.5 -2.06)"/><path class="cls-1" d="M31.28,20.2c-1.34,0-2.6,0-3.83,0a.55.55,0,0,0-.37.15.36.36,0,0,0-.11.29.45.45,0,0,0,.49.44h2l.12,0h.39c.45,0,.9,0,1.34,0a.44.44,0,0,0,.48-.45.36.36,0,0,0-.11-.3A.48.48,0,0,0,31.28,20.2Z" transform="translate(-0.5 -2.06)"/><path class="cls-1" d="M31.13,25.39h0l-3.63,0a.46.46,0,0,0-.52.41.45.45,0,0,0,.1.31.67.67,0,0,0,.48.14c.42,0,.83,0,1.25,0h2.33c.19,0,.55,0,.56-.39a.4.4,0,0,0-.12-.33A.63.63,0,0,0,31.13,25.39Z" transform="translate(-0.5 -2.06)"/><path class="cls-1" d="M31.15,27.54H27.53c-.12,0-.49,0-.53.38a.44.44,0,0,0,.09.36.57.57,0,0,0,.43.16h3.63a.56.56,0,0,0,.42-.16.47.47,0,0,0,.11-.36C31.66,27.78,31.58,27.54,31.15,27.54Z" transform="translate(-0.5 -2.06)"/><path class="cls-1" d="M31.15,29.07H27.52c-.15,0-.49,0-.53.36a.39.39,0,0,0,.09.31.49.49,0,0,0,.38.15c1.17,0,2.39,0,3.73,0h0a.48.48,0,0,0,.35-.14.41.41,0,0,0,.12-.32C31.66,29.33,31.59,29.08,31.15,29.07Z" transform="translate(-0.5 -2.06)"/><path class="cls-1" d="M31.19,23.89H27.58a.6.6,0,0,0-.46.17.42.42,0,0,0-.11.33c0,.39.38.39.57.39h3.56c.19,0,.59,0,.61-.42a.43.43,0,0,0-.11-.34A.56.56,0,0,0,31.19,23.89Z" transform="translate(-0.5 -2.06)"/><path class="cls-1" d="M27.57,22.6h3.56c.2,0,.57,0,.59-.41a.47.47,0,0,0-.1-.33.65.65,0,0,0-.47-.16l-3.64,0c-.3,0-.51.16-.52.41a.37.37,0,0,0,.1.31A.68.68,0,0,0,27.57,22.6Z" transform="translate(-0.5 -2.06)"/><path class="cls-1" d="M24.4,22.54l0,0h0c.35,0,1.42-1.37,1.61-1.64.43-.59.4-.7.38-.76-.08-.23-.21-.32-.31-.34a.52.52,0,0,0-.49.15,3.9,3.9,0,0,0-.6.68l-.08.12c-.2.27-.38.52-.59.53s-.31-.11-.51-.34a.44.44,0,0,0-.29-.14.35.35,0,0,0-.28.14c-.07.09-.17.3-.09.43A3.43,3.43,0,0,0,24.4,22.54Z" transform="translate(-0.5 -2.06)"/><path class="cls-1" d="M25.52,23.83l-.12.11a1.84,1.84,0,0,0-.42.52c-.16.26-.32.5-.52.52s-.38-.12-.63-.4l0,0h-.06a.59.59,0,0,0-.48.23.48.48,0,0,0,0,.46,1.3,1.3,0,0,0,.94.81h.16a1.24,1.24,0,0,0,.91-.46c.26-.3.57-.65.85-1l.11-.12a.63.63,0,0,0,.24-.45.44.44,0,0,0-.2-.32C26,23.44,25.71,23.67,25.52,23.83Z" transform="translate(-0.5 -2.06)"/><path class="cls-1" d="M26.22,27.22a.48.48,0,0,0-.47.1,3.26,3.26,0,0,0-.51.54l-.09.12-.15.2c-.17.24-.34.46-.53.47a.81.81,0,0,1-.52-.31.37.37,0,0,0-.38-.12.46.46,0,0,0-.32.36c0,.08,0,.21.27.53s.75.83,1,.83h0c.23,0,1-.9,1.21-1.17.75-.91.73-1.07.72-1.12A.49.49,0,0,0,26.22,27.22Z" transform="translate(-0.5 -2.06)"/></svg>