<svg id="圖層_1" data-name="圖層 1" xmlns="http://www.w3.org/2000/svg" viewBox="0 0 44.67 49"><defs><style>.cls-1{fill:#190f39;}</style></defs><path class="cls-1" d="M47.33,12a1.88,1.88,0,0,0-1.18-1.93C40.24,7.05,34.24,3.91,28.33.79a1.86,1.86,0,0,0-2,0c-5.58,2.94-11.53,6.05-18.19,9.5a1.32,1.32,0,0,0-.84,1.36c0,3,0,6.09,0,9.14v3.33c0,.44.18.68.57.71a.61.61,0,0,0,.46-.14.66.66,0,0,0,.18-.52V20.79c0-2.9,0-5.8,0-8.7a.8.8,0,0,1,.51-.87C14.45,8.42,20.3,5.36,27,1.86a.7.7,0,0,1,.76,0C34.16,5.24,40,8.3,45.61,11.21a.76.76,0,0,1,.49.81c0,2.5,0,5,0,7.52v2.13h0v9.06a11.79,11.79,0,0,1-3,7.88,21.19,21.19,0,0,1-3.67,3.28,59.63,59.63,0,0,1-11.7,6.32.84.84,0,0,1-.74,0,64.73,64.73,0,0,1-6.51-3.08,41.55,41.55,0,0,1-6.49-4.24,13.39,13.39,0,0,1-4.11-5.11l0-.09a.66.66,0,0,0-.33-.46.55.55,0,0,0-.45,0,.67.67,0,0,0-.4.41.77.77,0,0,0,.09.63l.11.23.06.13a14.41,14.41,0,0,0,4.33,5.23,49.43,49.43,0,0,0,10.68,6.32c.3.14.6.3.9.47a5.37,5.37,0,0,0,2.46.87h.12a6.84,6.84,0,0,0,2.67-1l.79-.39a46.56,46.56,0,0,0,11.74-7.29,13.69,13.69,0,0,0,4.78-10.78C47.26,23.81,47.29,17.44,47.33,12Z" transform="translate(-2.67 -0.5)"/><path class="cls-1" d="M8.66,34.94c0-.33,0-.41.33-.47a3.92,3.92,0,0,0,3.2-3.13c.11-.43.18-.49.48-.45a.78.78,0,0,0,.63-.14.56.56,0,0,0,.17-.47.54.54,0,0,0-.2-.42.79.79,0,0,0-.57-.13c-.31.05-.41,0-.54-.47a4,4,0,0,0-3.13-3c-.38-.07-.42-.15-.39-.42,0-.5-.14-.78-.53-.84H8.05a.54.54,0,0,0-.4.19.67.67,0,0,0-.12.5c0,.35,0,.47-.54.58A4,4,0,0,0,4,29.2c-.14.48-.19.6-.55.54a.66.66,0,0,0-.55.11.55.55,0,0,0-.2.44.59.59,0,0,0,.17.47.66.66,0,0,0,.55.13c.35-.05.42,0,.56.55a4,4,0,0,0,3,3c.48.12.57.17.53.5a.74.74,0,0,0,.13.58.53.53,0,0,0,.4.16h0a.56.56,0,0,0,.42-.19A.79.79,0,0,0,8.66,34.94ZM7.43,28.08a2.71,2.71,0,0,0-1.62,1.64s-.12,0-.18,0H5.37a.63.63,0,0,1-.3,0h0s0-.08,0-.32a3,3,0,0,1,2-2l.09,0,.24-.08a.31.31,0,0,1,0,.07,1.24,1.24,0,0,0,0,.16C7.6,27.94,7.57,28,7.43,28.08Zm-2.1,2.83h.18c.18,0,.31,0,.47.36a1.84,1.84,0,0,0,1.2,1.16c.3.08.32.19.31.55a1.09,1.09,0,0,0,0,.18.79.79,0,0,1,0,.16s-.06,0-.2,0a3.18,3.18,0,0,1-2.23-2.18,1.26,1.26,0,0,1,0-.21A.73.73,0,0,1,5.33,30.91Zm3.9-.53a1.1,1.1,0,0,1-1.13,1.1h0a1.18,1.18,0,0,1-.87-.35,1.07,1.07,0,0,1-.32-.78,1.16,1.16,0,0,1,.38-.84,1.14,1.14,0,0,1,.77-.33h0A1.19,1.19,0,0,1,9.23,30.38Zm1.83-.67s-.07.05-.36,0h-.08c-.28,0-.35,0-.41-.23a1.94,1.94,0,0,0-1.27-1.31c-.29-.1-.42-.25-.25-.76,0-.06,0-.07,0-.08a1.37,1.37,0,0,1,.28.1l.19.09A3,3,0,0,1,11,29.32C11.09,29.62,11.06,29.71,11.06,29.71ZM9,32.44a2,2,0,0,0,1.27-1.31c.07-.18.09-.21.13-.21h0a1.5,1.5,0,0,0,.37,0c.22,0,.27,0,.3,0s0,.29-.09.46l0,.1a2.82,2.82,0,0,1-1.89,1.75l-.34.09c0-.1,0-.3,0-.45v0C8.67,32.64,8.7,32.53,9,32.44Z" transform="translate(-2.67 -0.5)"/><path class="cls-1" d="M26.32,8.5a10.05,10.05,0,0,1,1.9,0c1,.09,1.52-.25,1.39-1.38a16.66,16.66,0,0,1,0-2.12c0-1.93,0-1.92-1.86-1.91-3,0-2.69-.38-2.7,2.66a14,14,0,0,1,0,1.45C25,8.15,25.32,8.59,26.32,8.5Z" transform="translate(-2.67 -0.5)"/><path class="cls-1" d="M27.12,17a.22.22,0,0,0,.38,0c.41-.73,1.28-1.2,1.31-2.13,0-1.64,0-3.27,0-4.91,0-.3,0-.62-.41-.65s-.48.35-.48.68c0,1.38,0,2.75-.05,4.13a1.48,1.48,0,0,1-.71,1.47c-.32-.5,0-.84.13-1.22s.29-.93-.08-1.26a1.71,1.71,0,0,1-.42-1.53c0-.59,0-1.19,0-1.78,0-.3-.08-.52-.44-.5s-.43.14-.43.4A12.22,12.22,0,0,0,26,13a2.52,2.52,0,0,1,.06,1.77C25.6,15.9,26.65,16.3,27.12,17Z" transform="translate(-2.67 -0.5)"/><path class="cls-1" d="M8,29.49a.78.78,0,0,0-.82.79.81.81,0,0,0,.81.91h.05a.81.81,0,0,0,.83-.81v0A.8.8,0,0,0,8,29.49Z" transform="translate(-2.67 -0.5)"/><path class="cls-1" d="M41.9,18.65a1.15,1.15,0,0,0-.76-1.18c-1.31-.63-2.63-1.29-3.91-1.93l-1.52-.77-6.38-3.19v1a1.11,1.11,0,0,0,.16.12c1,.48,2,1,3,1.51l1,.51L32,15.52c-1.49.77-2.92,1.51-4.34,2.26A.65.65,0,0,1,27,17.7l-1.15-.58L21.73,15,21.58,15c-.15-.06-.26-.11-.31-.24l1.06-.53c.93-.47,1.9-1,2.86-1.41l.18-.12V11.6l-2.51,1.25-9.55,4.73a.85.85,0,0,0-.5.9v.38c0,1.57,0,3.19,0,4.78a1.09,1.09,0,0,0,.69,1.13L16,26c1.27.66,2.59,1.34,3.9,2,.76.36.93.72.67,1.43a4.69,4.69,0,0,0-.3,1.42,3.56,3.56,0,0,1-2.62,3.56A4.67,4.67,0,0,0,15.3,35.8a2.64,2.64,0,0,0-.19,1.75,5.54,5.54,0,0,1,0,1,1,1,0,0,0,.6,1c4,2.13,7.53,4.06,10.88,5.89a1.58,1.58,0,0,0,.76.23,1.45,1.45,0,0,0,.73-.22l2.08-1.18c2.26-1.27,4.59-2.6,7-3.7,2-.94,2.73-2.19,2.4-4.2a1.2,1.2,0,0,0-.68-1c-.68-.35-1.38-.73-2-1.09-.47-.25-.93-.51-1.4-.75a1,1,0,0,1-.59-.79c-.25-1.27-.52-2.5-.83-3.65-.11-.43,0-.61.38-.82l3.41-1.73,3.41-1.73a1,1,0,0,0,.66-1.06C41.86,21.79,41.86,20.18,41.9,18.65Zm-13.31-.36.09,0,1.73-.87,3.68-1.86a.77.77,0,0,1,.81-.08c1.32.68,2.65,1.34,4.06,2l1.31.66L38.54,19c-1.44.73-2.82,1.42-4.19,2.13a.54.54,0,0,1-.52,0l-4.44-2.25-.95-.49S28.5,18.33,28.59,18.29Zm1.25,1.84a15.12,15.12,0,0,0,2.26,1.2l1,.46-.75.39-4.77,2.45a.44.44,0,0,1-.44,0L23,22.52l-1.3-.66c.31-.16.62-.3.92-.44a14,14,0,0,0,2.26-1.26A3.83,3.83,0,0,1,29.84,20.13ZM14.9,17.92a.78.78,0,0,0,.21-.09l1.32-.65c.84-.41,1.71-.83,2.53-1.32a2.12,2.12,0,0,1,2.44,0c1.15.64,2.32,1.22,3.55,1.83l1.37.68-1.35.7-4.09,2.12a.52.52,0,0,1-.51,0l-4.46-2.28-1.42-.72A.8.8,0,0,1,14.9,17.92Zm-.58,6.19a.84.84,0,0,1-.56-.9c0-1.17,0-2.35,0-3.5v-.33c0-.12,0-.34,0-.37h0a.86.86,0,0,1,.28.09c1.7.88,3.57,1.82,5.71,2.88a.6.6,0,0,1,.4.66c0,.65,0,1.31,0,1.94v.32c0,.21,0,.58.42.6a.47.47,0,0,0,.36-.11.79.79,0,0,0,.16-.56V22.68l5.5,2.8c.13.07.16.18.16.38,0,1.18,0,2.37,0,3.54v1.08a.45.45,0,0,1-.35-.1l-.12-.08L21.92,28C19.39,26.71,16.86,25.4,14.32,24.11ZM34.8,37a1,1,0,0,0,.63-1.45l0-.16a2,2,0,0,1-.13-.89L38.13,36l-.67.38-1.66.93-3.16,1.72c-1.6.86-3.2,1.72-4.79,2.6a.92.92,0,0,1-1,0c-2.21-1.22-4.48-2.45-6.66-3.64L17,36.32l-.09,0a.61.61,0,0,1-.29-.22l2.85-1.54a1,1,0,0,1,0,.33l0,.09c-.32,1.53-.28,1.59,1.14,2.35l.93.49c1.54.82,3.14,1.67,4.7,2.53.29.17.53.26.7.16s.2-.35.2-.7c0-2.3,0-4.64,0-6.9v-.5s0-.11,0-.17a.44.44,0,0,1,0-.33.45.45,0,0,1,.27-.06.4.4,0,0,1,.27.07.45.45,0,0,1,0,.3.89.89,0,0,0,0,.22c0,2.86,0,5.21,0,7.4,0,.4.06.59.21.69s.4,0,.72-.16C30.73,39.1,32.74,38,34.8,37Zm4-12c-2.86,1.35-5.71,2.86-8.47,4.33l-1.94,1c-.35.18-.45.18-.49.16s-.07-.4-.06-.53c0-1.25,0-2.51,0-3.75a.91.91,0,0,1,.61-1c3.82-1.92,7.75-3.91,12-6.08a1.21,1.21,0,0,1,.41-.15h0s.08.08.06.42,0,.9,0,1.34c0,.19,0,.38,0,.58v0C41.48,23.28,40.56,24.13,38.79,25Z" transform="translate(-2.67 -0.5)"/></svg>