<?xml version="1.0" encoding="utf-8"?>
<!-- Generator: Adobe Illustrator 26.0.1, SVG Export Plug-In . SVG Version: 6.00 Build 0)  -->
<svg version="1.1" id="圖層_1" xmlns="http://www.w3.org/2000/svg" xmlns:xlink="http://www.w3.org/1999/xlink" x="0px" y="0px"
	 viewBox="0 0 50 50" style="enable-background:new 0 0 50 50;" xml:space="preserve">
<g>
	<g>
		<path d="M41.8,43l-7.1-7.1c0,0-0.1-0.1-0.2-0.1l-5.6,0.5c-0.1,0-0.2,0.1-0.2,0.2l-0.5,5.6c0,0,0,0.1,0,0.1c0,0.1,0,0.1,0.1,0.2
			l7,7l0.1,0.1c0,0,0.1,0.1,0.2,0.1c0.1,0,0.1,0,0.2-0.1l6-6l0.1-0.1C41.9,43.2,41.9,43.1,41.8,43z M35.5,48.6L28.9,42l0.4-5l5-0.4
			l6.6,6.6L35.5,48.6z"/>
		<path d="M31.8,37.2c-1,0-1.9,0.8-1.9,1.9c0,1,0.8,1.9,1.9,1.9c1,0,1.9-0.8,1.9-1.9C33.6,38.1,32.8,37.2,31.8,37.2z M31.8,40.3
			c-0.6,0-1.2-0.5-1.2-1.2c0-0.6,0.5-1.2,1.2-1.2c0.6,0,1.2,0.5,1.2,1.2C32.9,39.8,32.4,40.3,31.8,40.3z"/>
	</g>
	<g>
		<path d="M31.2,39.3c-0.2,0-0.3-0.1-0.4-0.3c-0.8-1.6-0.7-4-0.7-4.1c0-0.3,0.2-0.5,0.5-0.5c0.3,0,0.5,0.2,0.5,0.5
			c0,0-0.1,2.2,0.6,3.6c0.1,0.2,0,0.5-0.2,0.6C31.3,39.3,31.2,39.3,31.2,39.3z"/>
	</g>
	<g>
		<g>
			<path d="M32.3,19.1c-3.6,0-6.5,2.9-6.5,6.5s2.9,6.5,6.5,6.5c3.6,0,6.5-2.9,6.5-6.5S35.9,19.1,32.3,19.1z M32.3,31.1
				c-3.1,0-5.6-2.5-5.6-5.6c0-3.1,2.5-5.6,5.6-5.6c3.1,0,5.6,2.5,5.6,5.6C37.9,28.6,35.4,31.1,32.3,31.1z"/>
			<path d="M46.9,36.5l-5.7-5.7l-0.6,0.6l-0.5-0.5c1-1.5,1.7-3.3,1.7-5.3c0-5.2-4.2-9.4-9.4-9.4s-9.4,4.2-9.4,9.4s4.2,9.4,9.4,9.4
				c2.3,0,4.4-0.8,6-2.2l0.4,0.4l-0.6,0.6l5.7,5.7c0.4,0.4,1,0.6,1.5,0.6c0.6,0,1.1-0.2,1.5-0.6C47.8,38.8,47.8,37.4,46.9,36.5z
				 M23.9,25.6c0-4.7,3.8-8.4,8.4-8.4s8.4,3.8,8.4,8.4c0,4.7-3.8,8.4-8.4,8.4S23.9,30.2,23.9,25.6z M39.1,32.3l0.5-0.5l0.3,0.3
				l-0.5,0.5L39.1,32.3z M46.3,38.9c-0.5,0.5-1.2,0.5-1.7,0l-5.1-5.1l1.7-1.7l5.1,5.1C46.7,37.7,46.7,38.4,46.3,38.9z"/>
		</g>
		<g>
			<path d="M36.4,25.2c-0.2,0-0.4-0.1-0.4-0.3c-0.7-1.8-1.6-2.7-3.4-3.2c-0.3-0.1-0.4-0.3-0.3-0.6c0.1-0.3,0.3-0.4,0.6-0.3
				c2.1,0.6,3.2,1.7,4,3.8c0.1,0.2,0,0.5-0.3,0.6C36.5,25.1,36.4,25.2,36.4,25.2z"/>
		</g>
	</g>
	<g>
		<path d="M37.3,32.9H37c-0.2,0-0.4,0.2-0.4,0.3v5.5c0,0.2,0.2,0.3,0.4,0.3h0.2c0.2,0,0.4-0.2,0.4-0.3v-5.5
			C37.6,33,37.5,32.9,37.3,32.9z"/>
		<path d="M37.5,10.1C37.5,10,37.4,10,37.3,10l-3.7,0.2V6.1c0-0.1,0-0.2-0.1-0.3c-0.1-0.1-0.2-0.1-0.3-0.1l-3.2,0.6V5
			c0-0.1,0-0.2-0.1-0.3c-0.1-0.1-0.2-0.1-0.3-0.1l-3.9,0.6V0.9c0-0.1-0.1-0.2-0.1-0.3c-0.1-0.1-0.2-0.1-0.3-0.1l-22.3,7
			c0,0-0.1,0-0.1,0L2.6,7.6C2.5,7.7,2.4,7.8,2.4,7.9V39c0,0.1,0,0.2,0.1,0.2c0.6,0.7,1.9,1.1,3.7,1.2c1.7,0.1,2.7-0.3,3.3-0.8
			l1.2-0.1v2.8c0,0,0,0.1,0,0.1l0,0.1c0,0,0,0.1,0,0.1c0.5,0.9,1.3,1.4,3.3,1.7c0.4,0.1,0.8,0.1,1.2,0.1c1.2,0,2.2-0.3,2.7-0.8
			L29,43.2c0.1,0,0.2,0,0.3-0.1c0.1-0.1,0.1-0.2,0.1-0.3l0-0.2c0-0.2-0.2-0.3-0.4-0.3L18,42.7V11.9L36.7,11v6.9
			c0,0.2,0.2,0.4,0.4,0.4h0.2c0.2,0,0.4-0.2,0.4-0.4v-7.6C37.6,10.3,37.6,10.2,37.5,10.1z M9.1,38.8c-0.4,0.4-1.1,0.8-2.8,0.7
			c-1.3-0.1-2.3-0.4-2.9-0.8v-3.2C4,35.8,4.7,36,5.8,36.1c1,0.1,1.9,0.1,2.7,0l0.1,0v-1.2l-0.1,0c-0.5,0.1-1.3,0.2-2.5,0.1
			c-1.3-0.2-2.1-0.4-2.5-0.6v-1.3c0.6,0.2,1.4,0.4,2.4,0.5c1,0.1,1.9,0.1,2.7,0l0.1,0v-1.2l-0.1,0c-0.5,0.1-1.3,0.2-2.5,0.1
			c-1.3-0.2-2.1-0.4-2.5-0.6V15.7c0.6,0.2,1.4,0.4,2.4,0.5c1,0.1,1.9,0.1,2.7,0l0.1,0v-1.2l-0.1,0c-0.5,0.1-1.3,0.2-2.5,0.1
			c-1.3-0.2-2.1-0.4-2.5-0.6V13c0.6,0.2,1.4,0.4,2.4,0.5c1,0.1,1.9,0.1,2.7,0l0.1,0v-1.2l-0.1,0c-0.5,0.1-1.3,0.2-2.5,0.1
			c-1.3-0.2-2.1-0.4-2.5-0.6V8.9C4.1,9.2,5,9.3,6.3,9.4s2.1,0,2.8-0.2V38.8z M9.2,8.3c-0.4,0.2-1.8,0.4-3,0.3
			c-0.9-0.1-1.5-0.3-2-0.5l20.6-6.4c0,0,0,3.6,0,3.6c-0.4,0.1-0.9,0.2-1.3,0.2c-1.1,0.2-2.1,0.4-3.2,0.6c-1.3,0.2-2.7,0.5-4,0.7
			c-1.3,0.2-2.5,0.5-3.8,0.7C11.6,7.7,10.8,7.9,9.9,8C9.7,8.1,9.4,8.2,9.2,8.3z M10.1,38.9V9L29,5.6v0.9l-17.8,3.5l-0.2,0.1
			c-0.2,0-0.3,0.2-0.3,0.3v28.3L10.1,38.9z M17.1,43.1c-0.3,0.3-1.4,0.5-3,0.3c-1.5-0.2-2.1-0.5-2.5-1.1v-2.8
			c0.6,0.2,1.1,0.4,2.1,0.5c1,0.1,1.9,0.1,2.7,0l0.1,0v-1.2l-0.1,0c-0.5,0.1-1.3,0.2-2.5,0.1c-1.3-0.2-1.8-0.4-2.3-0.6v-1.3
			c0.6,0.2,1.1,0.4,2.1,0.5c1,0.1,1.9,0.1,2.7,0l0.1,0v-1.2l-0.1,0c-0.5,0.1-1.3,0.2-2.5,0.1c-1.3-0.2-1.8-0.4-2.3-0.6V18.7
			c0.6,0.2,1.1,0.4,2.1,0.5c1,0.1,1.9,0.1,2.7,0l0.1,0V18l-0.1,0c-0.5,0.1-1.3,0.2-2.5,0.1c-1.3-0.2-1.8-0.4-2.3-0.6v-1.3
			c0.6,0.2,1.1,0.4,2.1,0.5c1,0.1,1.9,0.1,2.7,0l0.1,0v-1.2l-0.1,0c-0.5,0.1-1.3,0.2-2.5,0.1c-1.3-0.2-1.8-0.4-2.3-0.6v-3.2
			c0.6,0.3,1.3,0.6,2.2,0.7c0.4,0,0.9,0.1,1.3,0.1c0.6,0,1.3,0,1.9-0.2V43.1z M32.6,10.2L17.7,11l-0.3,0c-0.1,0-0.1,0-0.2,0.1
			c-0.5,0.3-2,0.4-3.3,0.3c-0.6-0.1-1.1-0.2-1.5-0.4l20.2-4V10.2z"/>
	</g>
</g>
</svg>
