<svg id="圖層_1" data-name="圖層 1" xmlns="http://www.w3.org/2000/svg" viewBox="0 0 49 47.81"><defs><style>.cls-1{fill:#fff;}</style></defs><path class="cls-1" d="M24.59,15.39a11.51,11.51,0,0,1,11.5,11.4A11.52,11.52,0,0,1,24.49,38.1,11.66,11.66,0,0,1,13,26.67,11.54,11.54,0,0,1,24.59,15.39ZM25,29.77c0,.61,0,1.22,0,1.82,0,.36,0,.68.46.85A3.66,3.66,0,0,0,29.93,30c.57-2.9.57-2.92-2.41-2.88S25,26.79,25,29.77Zm-3.34-3.49,1.53-.1a.83.83,0,0,0,.88-.85c0-1.26.07-2.53.08-3.8,0-.33-.14-.62-.51-.63a8.36,8.36,0,0,0-3.72.57c-.82.37-.66,1.4-.8,2.17C18.59,26.35,18.6,26.36,21.61,26.28ZM25,23.42a1.61,1.61,0,0,0,0,.31c.17.79-.5,2,.5,2.3a9.94,9.94,0,0,0,4.51.11c.1,0,.21-.21.26-.34.66-1.64-.77-4.5-2.44-4.72C24.44,20.65,25,20.45,25,23.42Zm-3.44,3.73c-2.91,0-2.91,0-2.39,2.9,0,.14.05.29.07.44.1,1.08.72,1.52,1.77,1.69,3.09.49,3.11.53,3.07-2.56C24,26.93,24.53,27.17,21.51,27.15ZM18.34,21.9a10.31,10.31,0,0,0-3.45,1.9A2,2,0,0,0,14,25.93c.29.78,1.16.31,1.77.39a8.28,8.28,0,0,0,1.22,0,.79.79,0,0,0,.89-.81C18.05,24.37,18.19,23.23,18.34,21.9Zm12.29,9.61a8.68,8.68,0,0,0,3.87-2.39A1.58,1.58,0,0,0,35,27.49c-.21-.56-.88-.31-1.36-.33s-1.1,0-1.66,0a.79.79,0,0,0-.91.77C31,29.07,30.8,30.2,30.63,31.51Zm2.18-5.22c.43,0,.68,0,.93,0,.45,0,1,.12,1.26-.33s-.07-1.08-.35-1.54a4.47,4.47,0,0,0-1.59-1.37c-.67-.42-1.44-1.25-2.12-.89s.13,1.28.08,2a3.4,3.4,0,0,0,0,.45C31,25.94,31.58,26.58,32.81,26.29Zm-16.63.89a8.85,8.85,0,0,0-.93,0c-.43.06-1-.16-1.22.35a1.36,1.36,0,0,0,.4,1.39,7.76,7.76,0,0,0,1.45,1.3c.7.47,1.56,1.29,2.27.92S18,29.8,18,29.06C18.1,27.68,17.63,26.78,16.18,27.18Zm12.88,5.91c-.81.08-1.36.12-1.9.2-2.32.31-2.33.31-2.21,2.62,0,.38-.13.86.34,1.07a1.25,1.25,0,0,0,1.26-.31A7.85,7.85,0,0,0,29.06,33.09Zm-4.13-15c.17.59-.34,1.55.49,1.73,1.09.23,2.55.85,3.26.15.49-.49-.66-1.72-1.33-2.48a3.11,3.11,0,0,0-.32-.31c-.47-.4-1-.89-1.61-.68C24.62,16.74,25.11,17.53,24.93,18.07Zm-4.76,2c.67.28,1.19-.05,1.73-.1,2.32-.25,2.37-.36,2.24-2.6-.07-1.16-.62-1.17-1.38-.68A6.14,6.14,0,0,0,20.17,20.1ZM20.12,33a6,6,0,0,0,2.61,3.7c.73.45,1.19.38,1.3-.64.26-2.47.19-2.59-2.3-2.89Zm.34,3.16c-1.56-3.48-2.65-4.49-5.45-5.05A9.54,9.54,0,0,0,20.46,36.2ZM15,22.32c2.74-.84,4.79-2.27,5.5-5.21A10.2,10.2,0,0,0,15,22.32ZM34,31.17c-2.88.79-4.75,2.29-5.39,5.14A9.85,9.85,0,0,0,34,31.17Zm-5.35-14A6.21,6.21,0,0,0,34,22.09,9.87,9.87,0,0,0,28.69,17.18Z" transform="translate(-0.5 -1.09)"/><path class="cls-1" d="M7.14,6.35c.2-1.59.39-3,.54-4.39.1-1,.84-.85,1.47-.85s1.42-.2,1.4.7c-.05,3.35,1.27,6.53,1.14,9.88-.08,2-.11,2.05-2.07,2.06-2.53,0-5.06-.05-7.59,0C.93,13.79.47,13.45.5,12.3c.07-2.32,0-4.65.06-7,0-.39-.11-.91.33-1.09s.72.26,1,.48.88.66,1.32,1c.63-.35,0-1.27.65-1.41s1.08.45,1.57.77S6.43,5.79,7.14,6.35Zm-1,2.83v0c-.81,0-1.61,0-2.42,0-2.36,0-2.31,0-2.29,2.46,0,1,.39,1.23,1.26,1.21,2.32-.06,4.64-.08,7-.12.46,0,.88-.07,1.06-.64.65-1.95,0-2.95-2-2.94Zm4.09-2.31c-.14-1-.27-2.09-.41-3.14a.63.63,0,0,0-.71-.61c-.45,0-.6.21-.66.62-.16,1-.38,2.08-.49,3.13-.07.57-.45,1.4.71,1.4C9.61,8.27,10.45,8.19,10.22,6.87ZM4.51,5.74c0,.56,0,1,0,1.45s.14,1,.81,1c.48,0,1.09.23,1.38-.27S6.44,7,6.1,6.7A3.25,3.25,0,0,0,4.51,5.74Zm-2.82.07c-.33.41-.14.87-.16,1.3s0,1,.75,1.06c.43,0,1,.24,1.23-.27S3.29,7,2.91,6.63,2.25,5.87,1.69,5.81Z" transform="translate(-0.5 -1.09)"/><path class="cls-1" d="M43.44,14.87H42.37c-2.76,0-2.39-.15-3.35-2.67a5.17,5.17,0,0,1,0-4.32C39.91,5.5,42.88,3.75,45.1,5c1.29.71,2.94,1.11,2.68,3.15,0,.11.13.28.24.36,1.34,1,1.44,2.08.07,3.18-.57.45-.39,1.12-.37,1.7,0,1.11-.45,1.57-1.55,1.51C45.26,14.83,44.35,14.87,43.44,14.87Zm3.31-4.22h0c0-.76,0-1.52,0-2.28s-.28-1.11-1-.64a3.81,3.81,0,0,1-4.63,0c-.72-.47-1.09-.26-1.06.65,0,1.42,0,2.84,0,4.26,0,.62,0,1.24.89,1.24s1-.57,1-1.21c0-1,.35-1.45,1.41-1.49,1.24,0,1.8.38,1.65,1.65-.07.63.1,1.08.89,1.07s.84-.56.84-1.14ZM41,6.49c1.41.91,2.61,1.56,4.12.58.76-.49.57-.64,0-1.11C43.57,4.73,42.41,5.68,41,6.49Zm2.61,7.36c.53-.06.45-.51.45-.89s-.12-.83-.67-.73-.39.59-.41,1S43,13.88,43.57,13.85Z" transform="translate(-0.5 -1.09)"/><path class="cls-1" d="M42.36,39.17A3.38,3.38,0,0,1,46,40.79c.32.55,1,.49,1.49.61a2.27,2.27,0,0,1,1.9,2.91c-.25,1.22-3,2.22-4,1.46a3.63,3.63,0,0,0-4.27,0,1.62,1.62,0,0,1-2.41-.15C38,45,36.93,44.82,37,43.37a4.21,4.21,0,0,1,4.2-4.2Zm-4.15,5c1-.91,1.93-1.49,2.94-.53a3,3,0,0,0,3.67.28c1.33-.79,2.33-1.14,3.53.31.32-1.09.12-1.66-.73-1.88a8,8,0,0,0-2.4-.31,10.2,10.2,0,0,1-4-.18c.65-.45,1-1,.54-1.59s-1.25-.41-1.83-.18C38.89,40.51,38,42.67,38.21,44.16Zm5.88-2.9c.26,0,.71,0,.69-.34s-.46-.74-1-.73c-.34,0-.58.13-.59.52C43.21,41.33,43.67,41.24,44.09,41.26Z" transform="translate(-0.5 -1.09)"/><path class="cls-1" d="M9.92,45.27c.3.5,1,.08,1.13.71a5.2,5.2,0,0,0-2.86,2.86c-.77.06-.29-.9-.79-1.05-.42.28-.14,1.07-.7,1.08C6,48.9,6.48,48,6,47.73c-.82,0-.12,1.33-1,1.16-.47-.09-.16-.75-.49-1-.47,0-.34.39-.49.61s-.23.4-.36.41c-.31,0-.41-.23-.44-.5-.13-1-1-1.27-1.63-1.82-.29-.27-1,0-1-.65s.83-.17,1.12-.55c-.18-.6-1.27-.09-1.15-.9.08-.56.82-.24,1.16-.57-.13-.66-1.22-.1-1.17-.83s.9-.26,1.19-.69c-.26-.55-.94-.1-1.21-.72a5.44,5.44,0,0,0,2.88-3,.42.42,0,0,1,.35-.23c.64.1.29.79.63,1.1.64-.12.06-1.1.72-1.1s.3.89.77,1.11c.56-.2,0-1.17.78-1.12.57,0,.18.86.65,1.09.64-.12.16-1,.87-1.17a5,5,0,0,0,2.68,3c.48.2.36.43-.46.72l-.41.17c.14.65,1.25.13,1.13.94-.1.59-.83.21-1.15.59.11.66,1.22.12,1.14.88C11,45.22,10.28,44.87,9.92,45.27ZM5.78,46.73c3.47,0,3.08.49,3.11-3S9.06,40.77,6,40.63c-3.35-.14-3.35-.16-3.31,3.13S2.35,46.71,5.78,46.73Z" transform="translate(-0.5 -1.09)"/><path class="cls-1" d="M14.69,37.72c-.76-.44-.43-1.11-1.06-1.37L11.4,38.27c-.25.22-.55.35-.78,0s0-.48.19-.66l2.19-2c-.1-.52-.5-.37-.75-.48s-.52-.19-.39-.51a.62.62,0,0,1,.47-.3c.84,0,1.94-.43,2.44.27C15.38,35.48,14.93,36.59,14.69,37.72Z" transform="translate(-0.5 -1.09)"/><path class="cls-1" d="M34.87,17.14c.86-.8,1.66-1.55,2.48-2.28.22-.19.48-.49.78-.19s0,.58-.18.78c-.72.71-1.45,1.4-2.14,2.06.14.73,1,.35,1.14,1.07a3.49,3.49,0,0,1-2.84.15c-.82-.29-.39-1.25-.44-1.91,0-.36-.17-.93.41-1s.39.49.51.8C34.64,16.77,34.73,16.89,34.87,17.14Z" transform="translate(-0.5 -1.09)"/><path class="cls-1" d="M34.35,37c-.09.5-.14.8-.21,1.09s-.11.41-.37.41-.36-.27-.42-.52c-.55-2.16.2-3.06,2.37-2.81.29,0,.7,0,.74.34.07.55-.43.41-.75.49l-1.15.3c1.1.92,1.92,1.59,2.72,2.29.24.21.39.51.07.77s-.47,0-.66-.15Z" transform="translate(-0.5 -1.09)"/><path class="cls-1" d="M14.4,16.79c.6-.5.14-1.43.87-1.34s.42.82.44,1.29c.07,1.67-1.21,2.48-2.76,1.77-.19-.09-.35-.2-.35-.43s.18-.36.37-.41.58-.11,1.34-.26c-1-.87-1.73-1.53-2.46-2.21-.2-.19-.51-.46-.23-.77s.57,0,.77.18C13.05,15.3,13.69,16,14.4,16.79Z" transform="translate(-0.5 -1.09)"/><path class="cls-1" d="M5.48,45.76c-1.1.16-2,0-1.94-1.76.13-2.67,0-2.68,2.36-2.68,2.07,0,2.19.13,2.18,2.27S8.05,45.76,5.48,45.76Zm-1-2.24c-.15.93.13,1.39,1.18,1.4s1.44-.25,1.43-1.35-.35-1.3-1.32-1.29S4.32,42.45,4.53,43.52Z" transform="translate(-0.5 -1.09)"/></svg>