<?xml version="1.0" encoding="utf-8"?>
<!-- Generator: Adobe Illustrator 26.0.1, SVG Export Plug-In . SVG Version: 6.00 Build 0)  -->
<svg version="1.1" id="圖層_1" xmlns="http://www.w3.org/2000/svg" xmlns:xlink="http://www.w3.org/1999/xlink" x="0px" y="0px"
	 viewBox="0 0 50 50" style="enable-background:new 0 0 50 50;" xml:space="preserve">
<g>
	<g>
		<path d="M4.9,36.9c0-3,0-6.1,0-9.1c0-0.8,0.1-1.4,1.1-1.4c0.1,0,0.3,0,0.3-0.1c0.1-1.6,2.1-1.9,2.3-3.2c0.1-0.8,0.4-1.1,1.2-1.1
			c5.2,0.3,10.2,1.1,14.6,3.7c0.5,0.4,1.1,0.4,1.6,0c4.4-2.6,9.3-3.4,14.4-3.7c0.8,0,1.2,0.2,1.2,1.1c0,0.2,0,0.6,0,0.6
			c1.3,0.4,1.6,2,2.4,2.4c0.8,0.3,1.3,1.1,1.2,2v13.4c0,1.6-0.1,3,0,4.6c0,1.1-0.4,1.5-1.5,1.5c-4.6,0-9.1,0-13.7,0
			c-0.8-0.1-1.6,0.2-2.1,0.8c-1.7,1.5-4.1,1.6-5.8,0.1c-0.6-0.6-1.5-1-2.3-0.9c-4.4,0-8.7-0.1-13.1,0c-1.6,0-2-0.5-1.9-2
			C5,42.7,4.9,39.8,4.9,36.9L4.9,36.9z M40.6,32.3L40.6,32.3c0-2.7,0-5.5,0-8.2c0-0.9-0.3-1.3-1.2-1.1c-1.1,0.2-2.2,0.3-3.3,0.4
			c-3.1,0.4-6.2,1.4-9.1,2.7c-0.9,0.3-1.5,1.2-1.5,2.1c0,5.5,0,10.8,0,16.3c0,0.9,0.1,1.2,1.1,0.7c4-1.9,8.3-3,12.7-3.5
			c1-0.1,1.4-0.5,1.3-1.5C40.6,37.7,40.6,35.1,40.6,32.3z M24.7,36.3L24.7,36.3c0-2.4-0.1-4.8,0-7.2c0.2-1.5-0.7-2.9-2.1-3.4
			c-3.7-1.6-7.6-2.5-11.6-2.7c-1.1-0.1-1.5,0.1-1.5,1.3c0.1,5.4,0.1,10.7,0,16c0,1.2,0.4,1.5,1.6,1.6c4.4,0.4,8.6,1.6,12.5,3.4
			c1,0.5,1.2,0.2,1.1-0.8C24.7,41.8,24.7,39.1,24.7,36.3z M29.4,46.6c4.5,0,8.9,0,13.4,0c1.2,0,1.6-0.4,1.6-1.6
			c-0.1-5.4,0-10.7,0-16.1c0-0.5,0.4-1.5-0.4-1.5s-0.5,1-0.5,1.5c0,4.7-0.1,9.3,0,14c0,1.5-0.4,2-1.9,2.1
			C37.5,45,33.4,45.6,29.4,46.6z M20.9,46.6c-4.1-1-8.2-1.6-12.4-1.9c-1.4-0.1-1.7-0.7-1.7-2c0-4.8,0-9.6,0-14.4
			c0-0.4,0.2-1.1-0.4-1.1s-0.6,0.6-0.6,1.1c0,5.6,0,11.1,0.1,16.7c0,0.9,0.2,1.4,1.2,1.4C11.7,46.5,16.3,46.6,20.9,46.6L20.9,46.6z
			 M29.6,45.2c3.8-0.5,7.6-1.1,11.4-1.3c1.2-0.1,1.5-0.5,1.5-1.6c0-5.3,0-10.5,0-15.8c0-0.5,0.3-1.3-0.6-1.2c-0.7,0-0.4,0.8-0.4,1.2
			c0,4.6,0,9.2,0,13.8c0,2.3,0,2.2-2.2,2.5C36,43.1,32.8,44,29.6,45.2L29.6,45.2z M20.9,45.3c-0.4-0.4-1-0.7-1.6-0.8
			c-2.9-1-6-1.7-9-1.9c-1.4-0.1-1.8-0.7-1.7-2c0.1-4.6,0-9.1,0-13.7c0-0.4,0-0.9-0.1-1.4c0-0.3-0.2-0.5-0.5-0.5
			c-0.2,0-0.4,0.2-0.4,0.4c0,0.4-0.1,0.8-0.1,1.2c0,4.5,0,9,0,13.5c0,3.2,0,3.2,3,3.6c0.1,0,0.3,0.1,0.4,0.1
			C14.3,44.3,17.5,44.8,20.9,45.3L20.9,45.3z M22.1,46.7c0.6,1.3,2,2.1,3.3,1.8c1.5-0.2,1.9-0.5,2.2-1.8
			C25.9,47.1,24,47.1,22.1,46.7z"/>
	</g>
	<g>
		<path d="M22,19.1c-0.9-1.6-0.6-2.1,1.2-3c-0.3-1-1.2-1.7-2.2-1.6c-1.7-0.2-2.9-1.5-3.3-3.1c-0.5-1.7,0.1-3.4,1.5-4.5
			c0.8-0.4,1.2-1.2,1.2-2c0.3-2.3,2.3-4,4.7-3.7c0.4,0.1,0.8,0.2,1.2,0.3c0.6,0.3,1.4,0.3,2-0.2c1.9-1.4,4.5-0.9,5.9,1
			c0.1,0.2,0.2,0.3,0.3,0.5c0.3,0.6,0.8,1.1,1.5,1.4c1.8,0.7,2.8,2.4,2.7,4.3c0,2-1.2,3.7-3,4.4C34.8,13,34.3,13.5,34,14
			c-0.6,1.6-2.3,2.3-3.9,2c-0.9-0.3-1.9-0.2-2.6,0.3c-0.4,0.3-0.9,0.4-1.4,0.4c-0.8,0-1.2,0.1-1.1,1.1c0.1,1.5-1.2,2.1-2.8,1.4H22z
			 M21.5,13.6c0.6,0,1.2-0.2,1.7,0.6c1.1,2,2.8,2.3,4.6,1c0.5-0.4,1.2-0.5,1.7-0.1c1.7,0.7,3.1,0.2,3.7-1.3c0.3-0.8,1-1.5,1.8-1.7
			c1.6-0.5,2.6-2.1,2.6-3.7s-1.1-3-2.6-3.5c-0.5-0.1-1-0.5-1.2-1c-1-2.6-3.5-3.2-5.7-1.5c-0.5,0.5-1.3,0.6-1.8,0.2
			c-1.6-1-3.6-0.6-4.6,0.9c-0.4,0.6-0.6,1.3-0.6,2C21.2,6.3,20.8,7,20,7.3c-1.4,0.7-2,2.1-1.6,3.6C18.7,12.5,20,13.6,21.5,13.6z
			 M23.4,18.8c0.4,0,0.7-0.4,0.7-0.8l0,0c0-0.6-0.4-0.9-1-0.9c-0.6,0-0.8,0.2-0.8,0.7S22.9,18.7,23.4,18.8z"/>
	</g>
	<g>
		<path d="M37.5,32.6c0,0.4-0.2,0.9-0.3,1.2c-1,1.4-1.5,2.9-1.6,4.6c-0.2,1.2-1.3,2.1-2.5,2.1c-1.2-0.2-2-1.4-1.9-2.5
			c0.1-1.4-0.6-2.3-1.2-3.4c-1.1-1.7-0.8-3.8,0.7-5.1c1.7-1.5,4.2-1.4,5.7,0.3C37.2,30.5,37.5,31.6,37.5,32.6L37.5,32.6z M33.9,35
			c0,0.5,0,0.7,0,0.9c0,0.2-0.1,0.8,0.3,0.9s0.5-0.4,0.6-0.7c0.4-0.8,1-1.6,1.3-2.4c0.7-1.3,0.3-2.8-0.8-3.7
			c-1.4-1.1-3.4-0.8-4.4,0.7c-0.7,0.9-0.8,2.1-0.4,3.1s1.2,1.7,1.5,2.7c0,0.2,0.2,0.3,0.4,0.3s0.4-0.1,0.4-0.3
			c-0.1-1.1,0.7-2.2-0.7-3c-0.2-0.1-0.4-0.3-0.3-0.6c0.1-0.2,0.3-0.4,0.6-0.3l0,0c0.7,0.2,1.4,0.2,2.1,0.1c0.2-0.1,0.4,0,0.4,0.2
			c0,0,0,0,0,0.1c0,0.2-0.1,0.5-0.2,0.5C34.1,33.6,33.7,34.3,33.9,35z"/>
	</g>
	<g>
		<path d="M6.2,15c0-0.1-0.1-0.1-0.2,0l-2.1,2.3c0,0,0,0.1,0,0.1c0,0,0,0.1,0,0.1l0.6,0.4c0.1,0,0.1,0,0.2,0l1-1.1v4.5
			c0,0.2,0.2,0.4,0.4,0.4c0.2,0,0.4-0.2,0.4-0.4v-4.5l1,1.1c0,0,0.1,0.1,0.2,0l0.6-0.4c0,0,0-0.1,0-0.1c0,0,0-0.1,0-0.1L6.2,15z"/>
		<path d="M11.3,7.5c0-0.1-0.1-0.1-0.2,0L9,9.8c0,0,0,0.1,0,0.1S9,10,9,10l0.6,0.4c0.1,0,0.1,0,0.2,0l1-1.1v10.1
			c0,0.2,0.2,0.4,0.4,0.4c0.2,0,0.4-0.2,0.4-0.4V9.3l1,1.1c0,0,0.1,0.1,0.2,0l0.6-0.4c0,0,0-0.1,0-0.1s0-0.1,0-0.1L11.3,7.5z"/>
		<path d="M16.2,14.7c0-0.1-0.1-0.1-0.2,0L14,17c0,0,0,0.1,0,0.1c0,0,0,0.1,0,0.1l0.6,0.4c0.1,0,0.1,0,0.2,0l1-1.1v3.9
			c0,0.2,0.2,0.4,0.4,0.4c0.2,0,0.4-0.2,0.4-0.4v-3.9l1,1.1c0,0,0.1,0.1,0.2,0l0.6-0.4c0,0,0-0.1,0-0.1c0,0,0-0.1,0-0.1L16.2,14.7z"
			/>
		<path d="M34,16.7c0-0.1-0.1-0.1-0.2,0L31.8,19c0,0,0,0.1,0,0.1c0,0,0,0.1,0,0.1l0.6,0.4c0.1,0,0.1,0,0.2,0l1-1.1v2.6
			c0,0.2,0.2,0.4,0.4,0.4s0.4-0.2,0.4-0.4v-2.6l1,1.1c0,0,0.1,0.1,0.2,0l0.6-0.4c0,0,0-0.1,0-0.1c0,0,0-0.1,0-0.1L34,16.7z"/>
		<path d="M38.3,13.9c0-0.1-0.1-0.1-0.2,0L36,16.2c0,0,0,0.1,0,0.1c0,0,0,0.1,0,0.1l0.6,0.4c0.1,0,0.1,0,0.2,0l1-1.1v3.9
			c0,0.2,0.2,0.4,0.4,0.4c0.2,0,0.4-0.2,0.4-0.4v-3.9l1,1.1c0,0,0.1,0.1,0.2,0l0.6-0.4c0,0,0-0.1,0-0.1c0,0,0-0.1,0-0.1L38.3,13.9z"
			/>
		<path d="M46.1,17.2L44,14.9c0-0.1-0.1-0.1-0.2,0l-2.1,2.3c0,0,0,0.1,0,0.1c0,0,0,0.1,0,0.1l0.6,0.4c0.1,0,0.1,0,0.2,0l1-1.1v4.8
			c0,0.2,0.2,0.4,0.4,0.4c0.2,0,0.4-0.2,0.4-0.4v-4.8l1,1.1c0,0,0.1,0.1,0.2,0l0.6-0.4C46.1,17.3,46.1,17.3,46.1,17.2
			C46.1,17.2,46.1,17.2,46.1,17.2z"/>
	</g>
	<g>
		<path d="M28.6,31.8h-1.6c-0.2,0-0.4,0.2-0.4,0.4s0.2,0.4,0.4,0.4h1.6c0.2,0,0.4-0.1,0.4-0.4C29.1,32,28.9,31.8,28.6,31.8z"/>
		<path d="M39.8,31.8h-1.6c-0.2,0-0.4,0.2-0.4,0.4s0.2,0.4,0.4,0.4h1.6c0.2,0,0.4-0.1,0.4-0.4C40.2,32,40,31.8,39.8,31.8z"/>
		<path d="M38.2,27.5c-0.2-0.2-0.5-0.2-0.6,0l-1.1,1.1c-0.2,0.2-0.2,0.5,0,0.6c0.1,0.1,0.2,0.1,0.3,0.1c0.1,0,0.2,0,0.3-0.1l1.1-1.1
			C38.4,28,38.5,27.7,38.2,27.5z"/>
		<path d="M33.4,25.5c-0.2,0-0.4,0.2-0.4,0.4v1.6c0,0.2,0.2,0.4,0.4,0.4s0.4-0.2,0.4-0.4v-1.6C33.9,25.8,33.8,25.5,33.4,25.5z"/>
		<path d="M29.2,27.5c-0.1-0.1-0.3-0.3-0.6,0c-0.1,0.1-0.1,0.2-0.1,0.3c0,0.1,0,0.2,0.1,0.3l1.1,1.1c0.1,0.1,0.2,0.1,0.3,0.1
			c0.1,0,0.2,0,0.3-0.1c0.2-0.2,0.2-0.5,0-0.6L29.2,27.5z"/>
	</g>
	<g>
		<g>
			<path d="M20.5,22.2c-0.8,0-1.5-0.7-1.5-1.5c0-0.8,0.7-1.5,1.5-1.5c0.8,0,1.5,0.7,1.5,1.5C22,21.5,21.3,22.2,20.5,22.2z
				 M20.5,19.9c-0.4,0-0.8,0.3-0.8,0.8c0,0.4,0.3,0.8,0.8,0.8c0.4,0,0.8-0.3,0.8-0.8C21.3,20.3,20.9,19.9,20.5,19.9z"/>
		</g>
	</g>
	<g>
		<g>
			<path d="M33.9,6.9c-0.8,0-1.4,0.5-1.6,1.3H31V6.8c0.7-0.2,1.3-0.8,1.3-1.6c0-0.9-0.7-1.6-1.6-1.6S29,4.3,29,5.2
				c0,0.8,0.5,1.4,1.3,1.6v1.4h-4.5c-0.2,0-0.4,0.2-0.4,0.4v2.4c0,0.2,0.2,0.4,0.4,0.4s0.4-0.2,0.4-0.4v-2h6.1
				c0.2,0.7,0.8,1.3,1.6,1.3c0.9,0,1.6-0.7,1.6-1.6S34.8,6.9,33.9,6.9z M29.8,5.2c0-0.5,0.4-0.9,0.9-0.9c0.5,0,0.9,0.4,0.9,0.9
				s-0.4,0.9-0.9,0.9C30.2,6.1,29.8,5.7,29.8,5.2z M33.9,9.4C33.4,9.4,33,9,33,8.5c0-0.5,0.4-0.9,0.9-0.9c0.5,0,0.9,0.4,0.9,0.9
				C34.8,9,34.4,9.4,33.9,9.4z"/>
		</g>
		<g>
			<path d="M28.6,10.7c-0.8,0-1.4,0.5-1.6,1.3h-3.2c-0.2,0-0.4,0.2-0.4,0.4s0.2,0.4,0.4,0.4H27c0.2,0.7,0.8,1.3,1.6,1.3
				c0.9,0,1.6-0.7,1.6-1.6S29.5,10.7,28.6,10.7z M28.6,13.2c-0.5,0-0.9-0.4-0.9-0.8c0,0,0,0,0,0c0,0,0,0,0,0c0-0.5,0.4-0.8,0.9-0.8
				c0.5,0,0.9,0.4,0.9,0.9S29.1,13.2,28.6,13.2z"/>
		</g>
		<g>
			<path d="M24.9,10.5c0.2,0,0.4-0.2,0.4-0.4s-0.2-0.4-0.4-0.4h-0.2V7.2c0.7-0.2,1.3-0.8,1.3-1.6c0-0.9-0.7-1.6-1.6-1.6
				s-1.6,0.7-1.6,1.6c0,0.8,0.5,1.4,1.3,1.6v2.6h-0.4c-0.2-0.7-0.8-1.3-1.6-1.3c-0.9,0-1.6,0.7-1.6,1.6s0.7,1.6,1.6,1.6
				c0.8,0,1.4-0.5,1.6-1.3H24.9z M23.4,5.6c0-0.5,0.4-0.9,0.9-0.9s0.9,0.4,0.9,0.9s-0.4,0.9-0.9,0.9S23.4,6.1,23.4,5.6z M21.9,11
				c-0.5,0-0.9-0.4-0.9-0.9s0.4-0.9,0.9-0.9s0.9,0.4,0.9,0.9S22.4,11,21.9,11z"/>
		</g>
	</g>
	<g>
		<g>
			<path d="M18.3,40.5h-2.7c-0.3,0-0.5-0.2-0.5-0.5v-1.2c-0.1,0-0.2-0.1-0.3-0.1l-0.8,0.8c-0.2,0.2-0.5,0.2-0.7,0l-1.9-1.9
				c-0.1-0.1-0.1-0.2-0.1-0.4s0.1-0.3,0.1-0.4L12,36c-0.1-0.1-0.1-0.2-0.1-0.3h-1.2c-0.3,0-0.5-0.2-0.5-0.5v-2.7
				c0-0.3,0.2-0.5,0.5-0.5h1.2c0-0.1,0.1-0.2,0.1-0.3l-0.8-0.8c-0.1-0.1-0.1-0.2-0.1-0.4s0.1-0.3,0.1-0.4l1.9-1.9
				c0.2-0.2,0.5-0.2,0.7,0l0.8,0.8c0.1-0.1,0.2-0.1,0.3-0.1v-1.2c0-0.3,0.2-0.5,0.5-0.5h2.7c0.3,0,0.5,0.2,0.5,0.5v1.2
				c0.1,0,0.2,0.1,0.3,0.1l0.8-0.8c0.2-0.2,0.5-0.2,0.7,0l1.9,1.9c0.2,0.2,0.2,0.5,0,0.7l-0.8,0.8c0.1,0.1,0.1,0.2,0.1,0.3h1.2
				c0.3,0,0.5,0.2,0.5,0.5v2.7c0,0.3-0.2,0.5-0.5,0.5h-1.2c0,0.1-0.1,0.2-0.1,0.3l0.8,0.8c0.2,0.2,0.2,0.5,0,0.7l-1.9,1.9
				c-0.1,0.1-0.2,0.1-0.4,0.1l0,0c-0.1,0-0.3-0.1-0.4-0.1l-0.8-0.8c-0.1,0.1-0.2,0.1-0.3,0.1V40C18.8,40.3,18.5,40.5,18.3,40.5z
				 M16,39.5h1.7v-1c0-0.2,0.1-0.4,0.4-0.5c0.3-0.1,0.6-0.2,0.8-0.4c0.2-0.1,0.4-0.1,0.6,0.1l0.7,0.7l1.2-1.2l-0.7-0.7
				c-0.2-0.2-0.2-0.4-0.1-0.6c0.1-0.3,0.3-0.6,0.4-0.8c0.1-0.2,0.3-0.4,0.5-0.4h1v-1.7h-1c-0.2,0-0.4-0.1-0.5-0.4
				c-0.1-0.3-0.2-0.6-0.4-0.8c-0.1-0.2-0.1-0.4,0.1-0.6l0.7-0.7l-1.2-1.2l-0.7,0.7c-0.2,0.2-0.4,0.2-0.6,0.1
				c-0.3-0.1-0.6-0.3-0.8-0.4c-0.2-0.1-0.4-0.3-0.4-0.5v-1H16v1c0,0.2-0.1,0.4-0.4,0.5c-0.3,0.1-0.6,0.2-0.8,0.4
				c-0.2,0.1-0.4,0.1-0.6-0.1l-0.7-0.7l-1.2,1.2l0.7,0.7c0.2,0.2,0.2,0.4,0.1,0.6c-0.1,0.3-0.3,0.6-0.4,0.8
				c-0.1,0.2-0.3,0.4-0.5,0.4h-1v1.7h1c0.2,0,0.4,0.1,0.5,0.4c0.1,0.3,0.2,0.6,0.4,0.8c0.1,0.2,0.1,0.4-0.1,0.6l-0.7,0.7l1.2,1.2
				l0.7-0.7c0.2-0.2,0.4-0.2,0.6-0.1c0.3,0.1,0.6,0.3,0.8,0.4c0.2,0.1,0.4,0.3,0.4,0.5V39.5z"/>
		</g>
		<g>
			<path d="M16.9,36.6c-1.5,0-2.8-1.2-2.8-2.8s1.2-2.8,2.8-2.8s2.8,1.2,2.8,2.8S18.4,36.6,16.9,36.6z M16.9,32.1
				c-1,0-1.8,0.8-1.8,1.8s0.8,1.8,1.8,1.8s1.8-0.8,1.8-1.8S17.9,32.1,16.9,32.1z"/>
		</g>
	</g>
</g>
</svg>
