<svg id="圖層_1" data-name="圖層 1" xmlns="http://www.w3.org/2000/svg" viewBox="0 0 47.15 49.25"><defs><style>.cls-1{fill:#190f39;}</style></defs><path class="cls-1" d="M13.55,15.62a1.21,1.21,0,0,0-.16,1.12,1.13,1.13,0,0,0,.86.6c.39.09.49.24.45.64a7.12,7.12,0,0,0,0,.8v.13A1.93,1.93,0,0,0,16.77,21l.47,0,.44,0a.32.32,0,0,1,.34.29c.16.6.18,1,0,1.15s-.49.26-1.07.25h-.24a3.49,3.49,0,0,1-.46,0,1.16,1.16,0,0,0-1,.28,1.09,1.09,0,0,0-.2,1c.13.75-.1,1.19-.89,1.66a3.21,3.21,0,0,0-1.49,2.12,3.68,3.68,0,0,0,.51,2.87,3.39,3.39,0,0,0,4.87.87v8.08a.87.87,0,0,1,0,.18l-.14-.09-.15-.09a14,14,0,0,1-6.57-8A15.31,15.31,0,0,1,10.46,28a.84.84,0,0,0-.24-.61.61.61,0,0,0-.49-.13c-.6.06-.54.6-.52.83l0,.43a16.08,16.08,0,0,0,.22,1.66A15.87,15.87,0,0,0,23.26,42.76a14.83,14.83,0,0,0,1.88.12,16.05,16.05,0,0,0,14.29-9.07,15.31,15.31,0,0,0,1.4-5.68v-.07c0-.23.06-.76-.55-.83a.64.64,0,0,0-.47.12.89.89,0,0,0-.25.64c0,.07,0,.14,0,.2v.17a14,14,0,0,1-7.23,11.3l-.15.1-.11.08V31.65a3.94,3.94,0,0,0,2.86.49,3.25,3.25,0,0,0,2-1.58,3.55,3.55,0,0,0,.36-2.86,3.68,3.68,0,0,0-1.9-2.28C35,25.22,35,25,35,24.58v-.53c0-.51,0-.79-.19-1s-.54-.22-1.27-.22H32.28l-.21,0a3.81,3.81,0,0,1,0-1.57c0-.16.12-.19.49-.18h.18c2.14-.06,2.61-.53,2.63-2.67v-.11c0-.12,0-.24,0-.36,0-.3,0-.42.37-.54a1.35,1.35,0,0,0,.94-.66,1.43,1.43,0,0,0-.24-1.18l-.09-.18a5.52,5.52,0,0,1-1-3.41,3.36,3.36,0,0,0-.24-1.4l0-.12c-1-3.16-4.23-5-7.87-4.45L27,6c-.43,0-.92.09-1.14.38a.59.59,0,0,0-.11.43.7.7,0,0,0,.3.52,1,1,0,0,0,.88,0,2.33,2.33,0,0,1,.43-.1.64.64,0,0,0,.29,0l.11,0a5.93,5.93,0,0,1,4.58,1.24,4.9,4.9,0,0,1,1.83,3.49,8.48,8.48,0,0,0,1.12,4.05c.11.18.12.27.11.29a.42.42,0,0,1-.24.08,1.1,1.1,0,0,0-1,1.36,4.34,4.34,0,0,1,0,.51v.29c0,1.3,0,1.32-1.28,1.34-1.62,0-2,.44-2.08,2.05V22c0,.21,0,.41,0,.62s0,.18,0,.2,0,0-.26.05c-1.54,0-3.09,0-4.63,0h0c-.24,0-.26,0-.26-.22l0-.83c-.08-1.92-.16-3.74,1.26-5.28a4.89,4.89,0,0,0,.91-1.77,6.51,6.51,0,0,0-6.69-8.86c-3.45.22-6.25,2.67-6.38,5.58A9.15,9.15,0,0,1,13.55,15.62ZM32.48,28.23a1.2,1.2,0,0,1,.86-.36,1.15,1.15,0,0,1,.31,0,.82.82,0,0,1,.74.9.43.43,0,0,1-.35.43c-.27.07-.37,0-.45-.19l0-.08a.63.63,0,0,0-.36-.44.57.57,0,0,0-.46.09c-.18.11-.44.39-.22,1a1.38,1.38,0,0,0,1.13.92,1.7,1.7,0,0,0,1.67-.7,1.78,1.78,0,0,0,.13-2,2.15,2.15,0,0,0-2.18-1.24,65.77,65.77,0,0,1-9,.27c-1.95,0-4-.07-5.93,0a3.21,3.21,0,0,1-.81-.1,5.86,5.86,0,0,0-.58-.1,2.2,2.2,0,0,0-2.6,1.72,1.72,1.72,0,0,0,1,1.92A1.49,1.49,0,0,0,17.22,30a1.19,1.19,0,0,0,.38-.8.7.7,0,0,0-.24-.52.67.67,0,0,0-.54-.22c-.23.06-.32.29-.39.46a.48.48,0,0,1-.08.16.31.31,0,0,1-.47.09.55.55,0,0,1-.19-.79.93.93,0,0,1,1.1-.52A1.28,1.28,0,0,1,18,29.05a1.61,1.61,0,0,1-.49,1.38,2,2,0,0,1-1.65.57,2.3,2.3,0,0,1-2-2.43,2.38,2.38,0,0,1,2.35-2.29c2.1,0,4.23,0,6.29,0h5.18c2,0,4.08,0,6.11,0a2.44,2.44,0,0,1,2.29,3.28A2.3,2.3,0,0,1,33.83,31a1.87,1.87,0,0,1-1.72-1.44A1.42,1.42,0,0,1,32.48,28.23Zm1.17-3.35a.9.9,0,0,1-.48.08H16.85c-.45,0-.55,0-.55-.42,0-.19,0-.32.08-.37s.28-.08.5-.08q8.16,0,16.32,0h0c.43,0,.5,0,.51.42A.62.62,0,0,1,33.65,24.88Zm-14.36,5.4a.55.55,0,0,1,.07-.35.59.59,0,0,1,.34-.07h0c1.28,0,2.56,0,3.83,0h6.77a.62.62,0,0,1,.38.07c.06.06.08.19.08.4,0,3.21,0,6.44,0,9.61,0,.4-.09.55-.46.69a14.92,14.92,0,0,1-10.63,0,.48.48,0,0,1-.39-.56C19.32,36.76,19.32,33.47,19.29,30.28Zm11.57-1.81a.87.87,0,0,1-.62.15c-2.54,0-5.11,0-7.6,0H19.59a1.22,1.22,0,0,1-.34,0c-.15,0-.19-.18-.23-.45H31A.67.67,0,0,1,30.86,28.47ZM24.4,22.35c0,.31,0,.39,0,.41s-.13.07-.43,0-.56,0-.84,0H21.18c-.51,0-1,0-1.52,0-.27,0-.33,0-.35,0s0-.07,0-.26a1.5,1.5,0,0,0,0-.3v-.1c0-1.92-.31-2.22-2.19-2.29-1,0-1.13-.14-1.16-1.14v-.16c0-.34,0-.67,0-1A1,1,0,0,0,15,16.29c-.23,0-.27-.09-.27-.09s0-.08.12-.34a8.32,8.32,0,0,0,1.05-4.07A4.46,4.46,0,0,1,17.57,8.5a6.08,6.08,0,0,1,4.76-1.36,5.27,5.27,0,0,1,4,2.72,5.55,5.55,0,0,1,0,5.08l-.06.12a1.77,1.77,0,0,1-.26.45C24.09,17.68,24.14,20.31,24.4,22.35Z" transform="translate(-1.43 -0.5)"/><path class="cls-1" d="M47.5,30.28,47,30.09c-1.36-.54-1.76-1.19-1.52-2.46.1-.55.16-.78.6-1a6.38,6.38,0,0,1,.66-.22c.68-.2,1.38-.4,1.67-1a2.72,2.72,0,0,0-.14-2,7.38,7.38,0,0,1-.21-.73c-.39-1.9-.5-2-2.44-2v0h-.46c-.4,0-.79,0-1.18,0a.66.66,0,0,0-.5.21A.59.59,0,0,0,44,22h.55a4.51,4.51,0,0,0,.82,0,1.76,1.76,0,0,1,1.24.13,1.67,1.67,0,0,1,.35,1.09,3.73,3.73,0,0,0,.18.93,1,1,0,0,1,.05.76.84.84,0,0,1-.6.34c-1.76.38-2.5,1.39-2.37,3.29a2.21,2.21,0,0,0,1.44,2.3c1.52.67,1.52.67,1.11,2.32-.32,1.29-.32,1.29-1.69,1.17-1.62-.15-1.74,0-2.48,1.07l-.23.33c-1,1.48-.9,2.63.36,3.72a1,1,0,0,1,.44.68,1.29,1.29,0,0,1-.48.85l-.17.17c-1.26,1.28-1.26,1.28-2.89.37a1.83,1.83,0,0,0-2.08.15c-1.9,1.1-2.43,2.48-1.67,4.34a.48.48,0,0,1,0,.38.57.57,0,0,1-.37.24,12.79,12.79,0,0,0-1.89.75.64.64,0,0,1-.47.09c-.09,0-.18-.14-.26-.32-.87-2-2.33-2.63-4.52-1.94-.71.22-1.33.42-1.4,1.38a1.9,1.9,0,0,1-.07.28l-.06.2c-.38,1.49-.38,1.49-1.95,1.48-1.36,0-1.36,0-1.7-1.28-.42-1.64-.56-1.72-1.88-2.08L20.89,45a2.57,2.57,0,0,0-3.38,1.46c-.61,1.09-.61,1.09-1.84.58l-.06,0c-1.61-.67-1.61-.67-1.22-2.31a1.79,1.79,0,0,0-.94-2.36,4.2,4.2,0,0,1-1.08-.83,1.24,1.24,0,0,0-1.65-.18,5.71,5.71,0,0,0-.68.45c-.47.35-.92.68-1.32.55a2.78,2.78,0,0,1-1.05-1,6.14,6.14,0,0,0-.62-.73c-.15-.15-.23-.27-.23-.37a.5.5,0,0,1,.2-.32c1.58-1.41,1.71-2.93.4-4.65a1.8,1.8,0,0,0-1.73-1c-2.08.13-2.08.12-2.62-1.89l0-.1a1,1,0,0,1,0-.77.69.69,0,0,1,.47-.28c1.86-.47,2.58-1.62,2.27-3.61a2.1,2.1,0,0,0-1.42-2C2.7,25,2.7,25,3.05,23.2,3.28,22,3.28,22,4.44,22c1.85,0,2-.1,2.72-1.58l.15-.29a2.43,2.43,0,0,0-.53-3.27c-.8-.77-.8-.77-.09-1.73,1.1-1.5,1.1-1.5,2.72-.7a1.56,1.56,0,0,0,2.17-.32A7.91,7.91,0,0,1,13,13a1,1,0,0,0,.4-1.37c-.17-.44-.3-.89-.43-1.34-.06-.18-.11-.36-.17-.55s-.07-.34,0-.39a11.41,11.41,0,0,0,1-.58A6.09,6.09,0,0,1,15.35,8l.11,0a.61.61,0,0,0,.48-.29.61.61,0,0,0,0-.5.92.92,0,0,0-.49-.52.78.78,0,0,0-.64.12c-1,.63-2.11,1.2-2.92,1.63a.85.85,0,0,0-.4,1.13c.1.34.2.68.31,1s.21.71.32,1.06a.53.53,0,0,1-.19.64c-1.41,1.29-1.41,1.3-3.15.53l-.2-.09a2.21,2.21,0,0,1-.35-.16.92.92,0,0,0-1.39.35A19,19,0,0,1,5.27,15a1.62,1.62,0,0,0-.54,1.23,1.51,1.51,0,0,0,.66,1c1.15.87,1.29,1.84.48,3.15-.22.35-.29.45-.58.43-.48,0-1,0-1.46,0l-.72,0a.89.89,0,0,0-1,.79c-.19,1.13-.43,2.27-.65,3.28A.87.87,0,0,0,2.08,26c.7.28,1.37.58,2.06.89l.12.05c.2.08.21.1.21.19,0,.26,0,.52,0,.78a4.25,4.25,0,0,1,0,1.48c-.07.22-.46.35-.82.47a6.19,6.19,0,0,0-.6.23l-.54.26c-1,.49-1.08.61-.81,1.58.05.19.12.42.19.7s.09.5.13.75a3,3,0,0,0,.78,2,2.44,2.44,0,0,0,2,.26,6,6,0,0,1,.92-.07H6s.07,0,.16.12c1,1.31,1.06,1.84.12,3.11-.2.27-.37.48-.5.64-.69.84-.61,1,.24,1.91l.41.45a7.87,7.87,0,0,1,.49.62c.46.62.93,1.26,1.64,1.35A2.73,2.73,0,0,0,10.35,43c.23-.15.47-.31.69-.44l.13-.07.11-.06a.42.42,0,0,1,.15-.06l.54.39a7.63,7.63,0,0,1,1.25,1c.11.13,0,.37-.06.71A2.8,2.8,0,0,0,13,45c-.3,2-.24,2.11,1.7,2.92,2.53,1.06,2.69,1,4.16-1.28.34-.51.62-.58,1.3-.55,1.34.08,1.91.65,2,2a2.34,2.34,0,0,0,.09.46,2.68,2.68,0,0,1,.07.27,1,1,0,0,0,1.12.9,24.09,24.09,0,0,1,2.69,0h.27a1.19,1.19,0,0,0,1.33-1.24A6.71,6.71,0,0,1,28,47.33c.06-.18.11-.36.16-.54l0-.17s0-.14.05-.16l.63-.12a7.53,7.53,0,0,1,1.81-.22c.19,0,.35.32.51.61a3.57,3.57,0,0,0,.27.45c1.23,1.76,1.36,1.79,3.38,1,2.43-1,2.5-1.11,2-3.71-.11-.51.06-.69.48-1.11a1.9,1.9,0,0,1,2.93-.13,2.32,2.32,0,0,0,.37.21,2.2,2.2,0,0,1,.26.15.84.84,0,0,0,1.26-.19l.31-.38a16.38,16.38,0,0,1,1.47-1.64,1.71,1.71,0,0,0,.67-1.25A1.53,1.53,0,0,0,43.93,39c-1.11-1-1.18-1.91-.23-3.2.23-.32.36-.38.64-.37s.52.07.81.12c.78.13,1.58.28,2.09-.2a3.51,3.51,0,0,0,.75-2,7.42,7.42,0,0,1,.18-.87.44.44,0,0,1,0-.1l.09-.37C48.57,30.85,48.57,30.68,47.5,30.28Zm-32,16.95Z" transform="translate(-1.43 -0.5)"/><path class="cls-1" d="M12.53,17.52a2.44,2.44,0,0,0,.36-.47.63.63,0,0,0,0-.5.71.71,0,0,0-.42-.41l-.08,0-.09,0a1.29,1.29,0,0,0-.68.53l-.12.13A16,16,0,0,0,7.72,29.25a16.08,16.08,0,0,0,6.4,11.4l.08.07a.89.89,0,0,0,.49.22.57.57,0,0,0,.45-.26.68.68,0,0,0,.19-.57.82.82,0,0,0-.46-.5l-.15-.09a15.31,15.31,0,0,1-2.31-21.86Z" transform="translate(-1.43 -0.5)"/><path class="cls-1" d="M41.16,21c-.07-.18-.15-.43-.39-.52a.64.64,0,0,0-.56.06.62.62,0,0,0-.34.36.73.73,0,0,0,.12.59c0,.05,0,.09.07.13A15.48,15.48,0,0,1,35.78,39.2l-.47.38-.37.3a.57.57,0,0,0-.13.81.67.67,0,0,0,.53.32.59.59,0,0,0,.35-.12,5.25,5.25,0,0,0,.53-.4,16.74,16.74,0,0,0,6.23-13.16h0a15.27,15.27,0,0,0-1.24-6.19A.58.58,0,0,1,41.16,21Z" transform="translate(-1.43 -0.5)"/><path class="cls-1" d="M39.22,17.35c.44.44.87.89,1.3,1.33a.93.93,0,0,0,.66.34h0a.92.92,0,0,0,.68-.36c1.07-1.13,2.15-2.25,3.23-3.38l1.6-1.66.06-.06a1,1,0,0,0,.35-.68l0-.14L47,12.67a.61.61,0,0,0-.26-.24.74.74,0,0,0-.91.28l-1,1c-1,1.06-2.13,2.15-3.16,3.26-.2.21-.4.41-.54.41h0c-.1,0-.25-.12-.43-.35a16.14,16.14,0,0,0-1.34-1.4l-.61-.61c-.16-.16-.54-.55-1-.14a.62.62,0,0,0-.22.44.89.89,0,0,0,.33.61Z" transform="translate(-1.43 -0.5)"/><path class="cls-1" d="M33.15,11.34a1,1,0,0,0-.34-1.41,1.1,1.1,0,0,0-1.33.19c-.65.51-1.22.39-1.52-.32-.22-.53-.61-.61-1.13-.59-.19.1-.64-.25-.66.27s.3.46.63.45.44,0,.49.29c.16.79.71,1,1.41.9.4,0,.63.18.89.46A1,1,0,0,0,33.15,11.34Z" transform="translate(-1.43 -0.5)"/><path class="cls-1" d="M30.33,15.34a.87.87,0,0,0,1.29-.18,1,1,0,0,0-.2-1.52,1,1,0,0,1-.35-.59c-.24-1.12-.61-1.38-1.75-1.28-.3,0-.65,0-.63.45s.36.37.65.36c1,0,1.2.34.74,1.23A1.09,1.09,0,0,0,30.33,15.34Z" transform="translate(-1.43 -0.5)"/><path class="cls-1" d="M24.69,1.89V5.37c0,.29-.05.68.39.66s.31-.38.31-.64c0-1,0-2,0-3.07,0-.3-.13-.73.48-.38.24.14.5-.11.31-.49C25.63.3,25,.19,24.16,1.14c-.19.23-.51.44-.31.78S24.35,1.7,24.69,1.89Z" transform="translate(-1.43 -0.5)"/><path class="cls-1" d="M21.48,3.83c1-.14.59.58.65,1,0,.26,0,.58.39.57s.29-.2.34-.43c.11-.46-.44-1.3.69-1.21.15,0,.14-.31,0-.46a2.76,2.76,0,0,0-.43-.47c-.23-.2-.42-.64-.79-.43a2.69,2.69,0,0,0-1.07,1.07C21.21,3.61,21.36,3.84,21.48,3.83Z" transform="translate(-1.43 -0.5)"/><path class="cls-1" d="M26.63,3.76c.94-.08.47.63.58,1s-.12.6.32.61.32-.34.39-.59-.37-1.11.6-.91c.14,0,.27-.21.22-.34-.24-.53-.62-1.13-1.15-1.16s-.82.61-1.14,1.09C26.52,3.58,26.58,3.76,26.63,3.76Z" transform="translate(-1.43 -0.5)"/><path class="cls-1" d="M24.09,11.7a20.25,20.25,0,0,0-2.33.15c-1,.16-2,.58-2.86-.37-.37-.39-.92-.22-1.28.21A.92.92,0,0,0,17.67,13a.85.85,0,0,0,1.29.08,1.29,1.29,0,0,1,1.23-.38c.19.14.79-.38.84.41.07,1,0,1.23-.57,1.36a.34.34,0,0,0-.29.39,3,3,0,0,0,1.25,1.22,2.77,2.77,0,0,0,1.17-1.18c0-.23-.17-.36-.36-.3-.59.19-.48-.23-.49-.53,0-1.28.29-1.63,1.55-1.64h.81c.29,0,.46-.1.44-.42S24.3,11.7,24.09,11.7Z" transform="translate(-1.43 -0.5)"/><path class="cls-1" d="M24.06,9.07c-.21.15-.26.56-.58.51-1.56-.23-3.23.55-4.69-.53a1.16,1.16,0,0,0-.45-.12.91.91,0,0,0-.95.65,1,1,0,0,0,.39,1.2.84.84,0,0,0,1.16,0,1.4,1.4,0,0,1,1.19-.48c.51,0,1,0,1.53,0,.89,0,1.82-.22,2.61.55.39.37.94.05,1.23-.38a1,1,0,0,0-1.44-1.39Z" transform="translate(-1.43 -0.5)"/><path class="cls-1" d="M24.45,41.27a.74.74,0,0,0,.56.22h0a.76.76,0,0,0,.55-.2.91.91,0,0,0,.19-.73v-.11c0-1.12,0-2.25,0-3.37V31.3c0-.24,0-1-.73-1a.72.72,0,0,0-.54.2,1,1,0,0,0-.2.76v.1q0,4.55,0,9.07s0,.08,0,.13A.88.88,0,0,0,24.45,41.27Z" transform="translate(-1.43 -0.5)"/><path class="cls-1" d="M26.78,41a.65.65,0,0,0,.46.19h.05a.6.6,0,0,0,.44-.15.84.84,0,0,0,.17-.63v-.11q0-4.48,0-9v-.11a.86.86,0,0,0-.16-.66.62.62,0,0,0-.47-.15c-.62,0-.6.61-.59.85v.11q0,1.67,0,3.33V37c0,1.11,0,2.22,0,3.33a.71.71,0,0,1,0,.14A.77.77,0,0,0,26.78,41Z" transform="translate(-1.43 -0.5)"/><path class="cls-1" d="M22.13,40.37c0,.24,0,.82.62.84h0a.58.58,0,0,0,.45-.17.73.73,0,0,0,.13-.61.71.71,0,0,1,0-.14c0-1.08,0-2.16,0-3.25V34.79c0-1.13,0-2.25,0-3.38v-.13a.81.81,0,0,0-.14-.63.68.68,0,0,0-.91,0,1,1,0,0,0-.19.75q0,4.44,0,8.88Z" transform="translate(-1.43 -0.5)"/><path class="cls-1" d="M19.91,39.82a.87.87,0,0,0,.19.64.49.49,0,0,0,.34.12h.06a.41.41,0,0,0,.3-.14.67.67,0,0,0,.09-.5.71.71,0,0,1,0-.14c0-1,0-2.07,0-3.1V31.3a.7.7,0,0,0-.13-.52.45.45,0,0,0-.36-.11c-.48,0-.48.47-.48.74v8.41Z" transform="translate(-1.43 -0.5)"/><path class="cls-1" d="M29.22,40.37a.47.47,0,0,0,.37.14h0a.48.48,0,0,0,.35-.12.74.74,0,0,0,.14-.56V35.69l0-1.19c0-1,0-2,0-3v-.14a.77.77,0,0,0-.13-.6.58.58,0,0,0-.4-.13.51.51,0,0,0-.34.14.8.8,0,0,0-.11.57v.13c0,2.44,0,5.32,0,8.22a.92.92,0,0,1,0,.16A.64.64,0,0,0,29.22,40.37Z" transform="translate(-1.43 -0.5)"/></svg>