<svg id="圖層_1" data-name="圖層 1" xmlns="http://www.w3.org/2000/svg" viewBox="0 0 50 50"><path d="M31.94,24.73a1.46,1.46,0,0,0,.07-.35s-.08,0-.18,0h-.12a.77.77,0,0,1-.57-.17.73.73,0,0,1-.08-.57,5.6,5.6,0,0,0,0-1.47,6.18,6.18,0,0,0-6-5.25,5.63,5.63,0,0,0-.58,0,6.14,6.14,0,0,0-5.56,6.54c0,.38.05.59-.08.74s-.36.15-.72.15H18a.84.84,0,0,0,0,.1,7.16,7.16,0,0,0,13.92.22Zm-12-.66a.45.45,0,0,1,.31-.22l.14,0c.13,0,.37.06.48.45a4,4,0,0,0,2.56,2.92.48.48,0,0,1,.35.62.43.43,0,0,1-.44.31l-.21,0L23,28.05l-.36-.15a5.09,5.09,0,0,1-2.72-3.34A.62.62,0,0,1,20,24.07ZM26,29.51a4.43,4.43,0,0,1-.8.08l-.28,0h0a6.46,6.46,0,0,1-5.83-3.72,2.75,2.75,0,0,1-.15-.36.46.46,0,0,1,.25-.59.44.44,0,0,1,.22-.05.49.49,0,0,1,.4.22,2.1,2.1,0,0,1,.13.26,5.41,5.41,0,0,0,5,3.27,3.62,3.62,0,0,0,.47,0l.49,0H26a.45.45,0,0,1,.48.41C26.49,29.26,26.33,29.44,26,29.51ZM25,26h0A2.9,2.9,0,0,1,23,25.09a2.77,2.77,0,0,1-.84-2A2.9,2.9,0,1,1,25,26Zm3.9-3.27h-.12a.47.47,0,0,1-.44-.32c0-.05,0-.11-.05-.17a3.31,3.31,0,0,0-2.4-2.47l-.12,0a.71.71,0,0,1-.47-.25.54.54,0,0,1,0-.38.45.45,0,0,1,.45-.38,1.12,1.12,0,0,1,.37.09l.1,0a4.27,4.27,0,0,1,3,3l.05.22C29.33,22.52,29.08,22.64,28.93,22.68Zm.91,2.15a.48.48,0,0,1-.33-.22.68.68,0,0,1,0-.54l0-.13a4.37,4.37,0,0,0-1.48-4.34A4.64,4.64,0,0,0,25,18.4a5.27,5.27,0,0,0-1.59.25l-.29.11a.61.61,0,0,1-.28.07.46.46,0,0,1-.43-.3.44.44,0,0,1,0-.37.63.63,0,0,1,.35-.3,5.61,5.61,0,0,1,2.13-.41,5.71,5.71,0,0,1,4.45,2.05,5.59,5.59,0,0,1,1.18,4.61l0,.12c0,.2-.07.62-.49.62Z"/><path d="M25.84,31.32h-7l0-.2h0v.2c-.17,0-.2,0-.21,0s0,0,0,.18a9.38,9.38,0,0,1,0,1.3c0,.14,0,.17,0,.17a.39.39,0,0,0,.2,0H28c.11,0,.14,0,.14,0a.4.4,0,0,0,0-.11,10.13,10.13,0,0,1,0-1.35c0-.16,0-.19,0-.19s0,0-.19,0Z"/><path d="M25,21.12v0a1.94,1.94,0,0,0-1.37,3.3A1.9,1.9,0,0,0,25,25a1.93,1.93,0,1,0,0-3.86Zm0,3.28h0a1.35,1.35,0,0,1,0-2.7,1.37,1.37,0,0,1,1,.42,1.42,1.42,0,0,1,.39,1A1.34,1.34,0,0,1,25,24.4Z"/><path d="M25,13.9a9.35,9.35,0,0,1,2.52.35,9.17,9.17,0,0,1,6.53,7.66V13.08A4.39,4.39,0,0,0,29.71,8.7H20.29a4.39,4.39,0,0,0-4.38,4.38V22c0-.21.06-.4.1-.6A9.21,9.21,0,0,1,25,13.9Z"/><path d="M25,22.67v-.2h0v.2a.39.39,0,0,0-.35.4.36.36,0,0,0,.35.36.34.34,0,0,0,.25-.11.39.39,0,0,0,.11-.28A.37.37,0,0,0,25,22.67Z"/><path d="M25,16a6.79,6.79,0,0,1,1.94.28,7,7,0,0,1,5.11,7,.38.38,0,0,0,0,.17l0,.19h0l.06-.19a3,3,0,0,1,.42,0h.47c.12,0,.13,0,.13-.17a8.2,8.2,0,0,0-2.34-6,8.06,8.06,0,0,0-5.81-2.47,8.25,8.25,0,0,0-8.25,8.05,2.06,2.06,0,0,0,0,.52,2,2,0,0,0,.54,0h.56s0,0,0-.23a6.94,6.94,0,0,1,2-5.09A7.15,7.15,0,0,1,25,16Z"/><path d="M29.15,33s.1,0,.14,0h4.8V24.13c-.07.2-.21.3-.54.3H33.2c-.19,0-.23,0-.29.28a8,8,0,0,1-3.52,5.08,8.86,8.86,0,0,1-1,.58h0c.68,0,.8.11.8.81V33Z"/><path d="M25,0A25,25,0,1,0,50,25,25,25,0,0,0,25,0ZM39.64,35a.69.69,0,0,1-.15.52.66.66,0,0,1-.51.17H37.56l-.76,0h0c-.16,0-.18,0-.18,0s0,.05,0,.24c0,.82,0,1.65,0,2.47v.92c0,.9-.09,1-1,1l-.14,0s0,0,0,.11a7.8,7.8,0,0,1,0,1c0,.09,0,.12,0,.16a.75.75,0,0,1-.2.37.86.86,0,0,1-.59.23h-2a.82.82,0,0,1-.59-.23.69.69,0,0,1-.16-.22.58.58,0,0,1-.05-.26V40.36a.75.75,0,0,0-.2,0H18.44v1.15a.77.77,0,0,1,0,.15.63.63,0,0,1-.2.33.82.82,0,0,1-.58.23h-2A.84.84,0,0,1,15,42a.63.63,0,0,1-.16-.23.74.74,0,0,1-.05-.25v-.67a.66.66,0,0,0-.68-.48.72.72,0,0,1-.52-.17.71.71,0,0,1-.16-.52c0-.67,0-1.33,0-2s0-1.22,0-1.83a.79.79,0,0,0,0-.14H11a.66.66,0,0,1-.53-.17.7.7,0,0,1-.15-.53c0-.25,0-.5,0-.76v-.34c0-.72.07-.87.82-.87H15v-2.2H12.56c-.41,0-.62-.16-.62-.47a.4.4,0,0,1,.12-.34.65.65,0,0,1,.49-.15H15V28.46l-.94-.29a.48.48,0,0,1-.27-.23.45.45,0,0,1,.39-.65l.17,0,.65.2V13.08A5.28,5.28,0,0,1,20.29,7.8h9.42A5.28,5.28,0,0,1,35,13.08V33h4a.73.73,0,0,1,.55.18.67.67,0,0,1,.15.51C39.62,34.12,39.62,34.56,39.64,35Z"/><path d="M17.45,33h.23s0-.07,0-.12a2,2,0,0,1,0-.26v-.4c0-.39,0-.77,0-1.16a.73.73,0,0,1,.16-.55s0,0,.06,0h-.42A.45.45,0,0,1,17,30a.46.46,0,0,1,.5-.45h1.21c-.39-.11-.78-.24-1.17-.37a.48.48,0,0,1-.29-.23.47.47,0,0,1,0-.34.44.44,0,0,1,.42-.3l.16,0,1.19.37a.46.46,0,0,1,.32.48.41.41,0,0,1-.4.39.45.45,0,0,1,.33.42.44.44,0,0,1-.13.32h2.58a8,8,0,0,1-4.54-5.42c-.13-.49-.13-.49-.64-.5a.6.6,0,0,1-.59-.3V27.8l.64.2a.44.44,0,0,1-.1.88l-.14,0-.4-.12v1.12a.45.45,0,0,1,.44.49.43.43,0,0,1-.44.45V33h1.54Z"/><path d="M34.41,40.35H33.8l-.66,0H33l0-.2h0v.2h-.09l0,.06s0,0,0,.08a1.69,1.69,0,0,1,0,.23v.19a3.28,3.28,0,0,0,0,.44l.25,0h1.38v-1Z"/><path d="M38.45,34H11.87a1.87,1.87,0,0,0-.5,0,1.57,1.57,0,0,0,0,.47c0,.19,0,.22,0,.22s0,0,.18,0H38.15a1.82,1.82,0,0,0,.48,0,1.37,1.37,0,0,0,0-.44.64.64,0,0,0,0-.25A.46.46,0,0,0,38.45,34Z"/><path d="M35.62,36c0-.18,0-.23,0-.24s-.05,0-.23,0H14.64v0c-.15,0-.17,0-.17,0s0,0,0,.19c0,1.21,0,2.28,0,3.26,0,.18,0,.23,0,.23s.06,0,.24,0H35.33c.19,0,.24,0,.25,0s0,0,0-.23C35.59,38.19,35.59,37.14,35.62,36Z"/><path d="M16.42,40.35h-.64s0,.08,0,.15v.25a4.37,4.37,0,0,0,0,.56h1.63v-.9l-.07-.08Z"/></svg>