<svg id="圖層_1" data-name="圖層 1" xmlns="http://www.w3.org/2000/svg" viewBox="0 0 48 46.62"><defs><style>.cls-1{fill:#190f39;}</style></defs><path class="cls-1" d="M11.57,31.35c0-5-.05-10.06,0-15.09,0-1.38-.31-1.93-1.77-2-2.93-.06-2.94-.14-2.94,2.81q0,14.58,0,29.14c0,.29,0,.58,0,.87,0,.5.09,1.17-.66,1.19s-.64-.65-.65-1.15,0-1.15,0-1.73q0-9.45,0-18.91c0-.82.25-1.81-1.2-1.69-.65.05-.74-.58-.93-1.07A34.4,34.4,0,0,1,1.09,8.66c.1-1.29.53-2,1.85-1.87C4.6,7,5,6.2,4.79,4.8a8.07,8.07,0,0,1,0-1.39c0-.56-.24-1.3.36-1.6a2,2,0,0,1,1.93.45,3.92,3.92,0,0,1,2,3.28c0,.7.07,1.25,1,1.2s.76-.7.75-1.24a3.39,3.39,0,0,1,1-2.51c.74-.75,1.56-1.62,2.68-1.17S15,3.35,15,4.14c.08,2.21,0,2.17,2.19,2.13,3.35-.07,6.71-.07,10.06-.08.94,0,1.84,0,2.16,1.22.25.93,1.16.59,1.79.6C36.48,8,41.74,8.06,47,8c1.5,0,2,.4,2,1.94,0,4.13,0,4.14-4,4.16q-6.85,0-13.71,0c-.89,0-1.63-.08-1.88,1.15-.22,1.08-1.26,1.22-2.23,1.23-2.77,0-5.55.1-8.32,0-1.18,0-1.77.29-2,1.5-.4,1.86-1,3.68-1.52,5.51-.14.46-.18,1.19-.84,1.17-1.75-.08-1.52,1.1-1.52,2.19q0,9.72,0,19.43c0,.46,0,.92,0,1.38a.59.59,0,0,1-.66.63.61.61,0,0,1-.66-.63V31.35Zm1.32-15.62h0c0,2.2,0,4.4,0,6.6,0,.39-.26,1,.47,1.09s.63-.58.75-1c.57-1.94,1.15-3.88,1.63-5.84a1.57,1.57,0,0,1,1.79-1.41c3.06,0,6.13,0,9.19,0,1.12,0,1.56-.33,1.5-1.48-.08-1.62-.05-3.24,0-4.86,0-.92-.21-1.37-1.25-1.35-2.94,0-5.89,0-8.84,0-.42,0-1.05-.16-1.08.52,0,.84.69.62,1.14.62,2.49,0,5,0,7.46,0,.52,0,1.15,0,1.1.74s-.64.54-1.09.54l-8.5,0c-.77,0-1.43-.16-1.46-1.08-.05-1.54-1.2-.83-1.91-.94-1-.15-.95.59-.95,1.23C12.88,11.34,12.89,13.54,12.89,15.73Zm-6-2.67h1c3.91,0,3.89,0,3.69-4,0-.87-.3-1.22-1.2-1.2C8.24,8,6.05,8,3.87,7.93c-1.15,0-1.5.37-1.47,1.49.13,4.36-.57,3.5,3.47,3.64ZM38.78,9.28v0c-2.65,0-5.31.07-8,0-1.47-.06-1.36.82-1.37,1.77s-.17,1.82,1.32,1.8c5.19-.07,10.39-.08,15.58,0,1.65,0,1.32-1,1.35-1.93s.06-1.67-1.3-1.61C43.86,9.37,41.32,9.28,38.78,9.28ZM5.59,19h0c0-1.16-.07-2.32,0-3.46.12-1.59-1-1.17-1.84-1.23-1-.08-1.53.3-1.34,1.39a61.43,61.43,0,0,0,2.16,7.28c.09.31.28.53.6.49s.36-.39.37-.67Z" transform="translate(-1 -1.69)"/><path class="cls-1" d="M44.85,31.62c1.35,4.75-1,7.13-5.2,8.66a55.63,55.63,0,0,0-6.51,3.25,2.34,2.34,0,0,1-2.42,0c-3.37-1.79-6.79-3.48-10.16-5.25-.51-.26-1.55-.44-1.13-1.19s1.24-.15,1.85.16c2.88,1.47,5.78,2.91,8.62,4.45,1.18.63,1.45.37,1.42-.89-.08-2.37-.07-4.75,0-7.11A1.58,1.58,0,0,0,30.24,32c-3.54-1.51-6.64-4-10.4-5a.78.78,0,0,1-.62-.73,1,1,0,0,1,.55-1.15q5.81-2.91,11.59-5.87c.63-.33,1.1,0,1.61.23,3.44,1.77,6.87,3.58,10.34,5.29a2.3,2.3,0,0,1,1.56,2.52C44.75,28.72,44.85,30.17,44.85,31.62ZM42.79,26c-3.7-1.9-7.06-3.62-10.42-5.36a1,1,0,0,0-1,.05c-3.3,1.71-6.61,3.41-10,5.14.21.22.29.39.43.46l9.54,4.88a1,1,0,0,0,1,.12Zm.75,6.68c0-1.89,0-3.16,0-4.43,0-.85-.16-1.18-1.08-.7-3,1.55-5.94,3.05-8.93,4.54a1.57,1.57,0,0,0-1,1.59q.06,3.7,0,7.43c0,1.26.47,1.15,1.32.7a49.59,49.59,0,0,1,5.41-2.7C42.57,37.81,44.68,36,43.54,32.65Z" transform="translate(-1 -1.69)"/><path class="cls-1" d="M31.84,48.31H17.3q-.69,0-1.38-.06a.55.55,0,0,1-.56-.54A.58.58,0,0,1,16,47c.4,0,.81,0,1.21,0H46.79c.4,0,.8,0,1.21,0s.65.19.63.64-.31.57-.69.59-1,0-1.56,0c-4.84,0-9.69,0-14.54,0Z" transform="translate(-1 -1.69)"/><path class="cls-1" d="M9.9,32V46.38c0,.47,0,.93,0,1.39a.58.58,0,0,1-1.15,0c0-.34,0-.69,0-1L8.62,17.56c0-.41,0-.81.05-1.21a.57.57,0,0,1,.72-.55.55.55,0,0,1,.51.58c0,.4,0,.81,0,1.21V32Z" transform="translate(-1 -1.69)"/><path class="cls-1" d="M38.49,11.59c-2.13,0-4.27,0-6.4,0-.47,0-1.17.15-1.12-.67,0-.65.63-.57,1.07-.57q6.57,0,13.14,0c.47,0,1.19-.17,1.12.66s-.75.59-1.24.59c-2.19,0-4.38,0-6.57,0Z" transform="translate(-1 -1.69)"/><rect class="cls-1" x="17.49" y="26.48" width="2.78" height="1.04"/><rect class="cls-1" x="15.06" y="28.74" width="3.82" height="1.04"/><rect class="cls-1" x="17.84" y="31.17" width="3.12" height="1.04"/><rect class="cls-1" x="15.06" y="33.25" width="4.16" height="1.04"/><rect class="cls-1" x="20.96" y="33.25" width="2.78" height="1.04"/></svg>