<svg id="圖層_1" data-name="圖層 1" xmlns="http://www.w3.org/2000/svg" viewBox="0 0 47.55 49"><defs><style>.cls-1{fill:#190f39;}</style></defs><path class="cls-1" d="M33.22,28.39c-.57-1.4-1.53-2.68-2.07-4a7.56,7.56,0,0,1,1.09-7.56,6.9,6.9,0,0,1,7.2-2.76,6.58,6.58,0,0,1,5.67,5.35c.26,1.22,1,2.38.52,3.71-.14.42-.08,1-.35,1.26-1.66,1.38-1.84,3.68-3.31,5.19-1,1-.75,1.86.57,2.36a9.76,9.76,0,0,1,4.77,3.17,6.38,6.38,0,0,1,1.39,3.67c0,2.66,0,5.32.07,8,0,.93-.36,1.24-1.29,1.23-4.32,0-8.64,0-13,0-.37,0-1,.26-1.07-.38s.54-.77,1.07-.77c2.32,0,4.66-.12,7,0,1.67.1,2.11-.52,2-2.08s-.07-3.1,0-4.65c0-.48-.05-1.15.65-1.13s.58.68.58,1.15c0,1.83.05,3.66,0,5.49-.06,1.2.61,1.19,1.45,1.16s1.66.12,1.59-1.22c-.1-2,0-4,0-6a6.9,6.9,0,0,0-5.14-6.42c-.81-.24-1.09.21-1.54.58a4.2,4.2,0,0,1-5.6-.06c-.54-.51-1.05-.9-.4-1.78A1.21,1.21,0,0,0,34.7,30C34.2,29.48,33.54,29.1,33.22,28.39Zm.45-4.25a14.81,14.81,0,0,0,0,1.49A4.62,4.62,0,0,0,37.76,30a4.43,4.43,0,0,0,4.68-3.4,14.85,14.85,0,0,0,.27-3c.1-1.07-.2-1.66-1.42-1.59a9.3,9.3,0,0,1-3.55-.75A2.88,2.88,0,0,0,33.67,24.14Zm8.66-3.24c.38-.41,1.75.65,1.62-.92a4.8,4.8,0,0,0-2.29-3.85c-.47-.29-1.06-.6-1.23.34-.07.37-.23.64-.64.61s-.59-.44-.59-.84c0-.68-.15-1.2-1-1.21-1,0-.75.72-.78,1.28s-.14.82-.6.84-.52-.36-.55-.71c-.08-1.14-.7-.88-1.35-.51a4.52,4.52,0,0,0-1.9,1.8c-.52,1-1.58,2.33-.66,3.1s2.24-.14,3-1.09c.55-.67,1-.63,1.67-.18A10,10,0,0,0,42.33,20.9ZM38,31.08c-1-.34-1.81-.09-1.84,1.09,0,1.34,1.1,1.32,2,1.37,1.11.07,2.31-.3,2.31-1.53C40.43,30,38.79,31.44,38,31.08Z" transform="translate(-1.23 -0.5)"/><path class="cls-1" d="M15.73,29.56c-1,.49-1.3,1.24-.62,2.15s.21,1.29-.35,1.83A4.17,4.17,0,0,1,9,33.85a2.11,2.11,0,0,0-2.55-.23,6.23,6.23,0,0,0-4,5.78c-.09,2.11,0,4.22-.08,6.32,0,1.12.58,1.14,1.35,1.06s1.79.39,1.74-1.05c0-1.77-.06-3.55,0-5.32,0-.55-.27-1.42.65-1.41s.57.83.58,1.33c0,1.72.05,3.44,0,5.15,0,1,.32,1.35,1.34,1.32,2.32-.07,4.65,0,7,0a8.14,8.14,0,0,1,1.48.13.6.6,0,0,1,.55.7c-.06.38-.41.31-.66.31-1,0-2.1,0-3.16,0-3.38,0-6.76-.06-10.13,0-1.43,0-1.83-.48-1.78-1.82.07-2,0-4.1,0-6.15.06-4,1.85-6.49,5.69-7.83,1.95-.68,2.14-1.36.79-2.93a5.44,5.44,0,0,1-1.39-2.61c0-.21-.07-.51-.21-.61-1.89-1.22-1.6-3.05-1.5-4.9C4.87,16.73,7.47,14,11.55,14c4.43,0,7.34,2.68,7.61,7.07.11,1.77.07,3.34-1.48,4.82-.9.84-1.06,2.59-2,3.71Zm.54-5.63a16.33,16.33,0,0,0,0-2c0-.38-.46-.85-.74-.3-.55,1.09-1.29.57-2,.38-1-.29-2-.65-3-1s-3.11.71-3.16,1.59a10.76,10.76,0,0,0,.17,4,4.46,4.46,0,0,0,3.63,3.27,4.1,4.1,0,0,0,4.19-1.8A6.63,6.63,0,0,0,16.27,23.93Zm1.6-2.86c-.18-3.33-2-5.34-5-5.75-3.54-.49-5.76.75-6.75,3.86-.16.53-.73,1.24-.12,1.66a1.47,1.47,0,0,0,1.84-.35c1.21-1.54,2.43-1.19,3.8-.29a5.67,5.67,0,0,0,1.57.51c.4.12.79.17.9-.37.26-1.16.85-.64,1.45-.33S17,20.66,17.87,21.07Zm-6,12.53a2.56,2.56,0,0,0,.68-.06c.68-.24,1.43-.5,1.31-1.41s-.57-1.34-1.58-1.08A8.22,8.22,0,0,1,10.83,31c-.36,0-.88-.59-1.09.14-.16.55-.53,1.16-.08,1.73A2.62,2.62,0,0,0,11.89,33.6Z" transform="translate(-1.23 -0.5)"/><path class="cls-1" d="M33.22,28.39c.32.71,1,1.09,1.48,1.61a2.74,2.74,0,0,1-.43,2,1.91,1.91,0,0,0,1.22,3.09c2.28.28,1.46,1.92,1.61,3.15s-.27,1.82-1.57,2a1.71,1.71,0,0,0-1.32,2.86c.6.93.85,1.7-.21,2.39s-1.67,2.61-3.55,1.23c-1.25-.92-2.47-.4-2.77,1.19-.35,1.93-1.73,1.45-2.93,1.52s-2.1-.24-2.32-1.71S21,45.72,19.82,46.69c-1.52,1.24-2.26.07-3.2-.72s-1.62-1.53-.69-2.91.34-2.47-1.28-2.77-1.38-1.57-1.42-2.68-.07-2.09,1.41-2.37A2,2,0,0,0,15.91,32a2.2,2.2,0,0,1-.18-2.45l0,0c.56,0,.88-.46,1.2-.8.94-1,1.81-1.42,3.06-.34.9.78,2.5,0,2.63-1.34s.79-1.68,2-1.56a6.75,6.75,0,0,0,1.49,0c1.05-.11,1.47.4,1.67,1.37.39,1.83,1.48,2.35,2.84,1.23C31.67,27.23,32.36,28.12,33.22,28.39Zm-15.51,14a2.68,2.68,0,0,1-.41.83c-.75.74-.55,1.29.19,1.9s1.12,1.06,2.1.33a2.6,2.6,0,0,1,4,1.75c.19.89.62,1,1.36,1s1.37.13,1.68-.86c.7-2.23,2.27-2.84,4.35-1.68.9.5,1.2-.17,1.67-.55s.88-.69.44-1.5a2.79,2.79,0,0,1,2-4.4c.84-.18.95-.62.87-1.27s.31-1.43-.8-1.71a3.08,3.08,0,0,1-1.95-4.92c.39-.63.29-1-.25-1.37s-.87-1.4-1.9-.79c-2.32,1.38-3.75.86-4.43-1.67-.32-1.17-1.16-.76-1.86-.83s-1,0-1.12.82a2.67,2.67,0,0,1-4.31,1.91c-1.06-.73-1.46.11-2.09.54s-.56,1-.15,1.69a3,3,0,0,1-1.73,4.6,1.16,1.16,0,0,0-1,1.39c0,.73-.06,1.48,1,1.56C17.3,39.36,17.27,41,17.71,42.42Z" transform="translate(-1.23 -0.5)"/><path class="cls-1" d="M24.68,14c-2.71,0-5.42,0-8.12,0-1,0-1.82-.2-2.15-1.18a1.69,1.69,0,0,1,.84-2.26c.63-.32.58-.91.63-1.43a8.48,8.48,0,0,1,2.87-5.27c1.19-1.14,2.78-1.7,4-2.91.88-.9,4.1-.21,5.13.71a8.28,8.28,0,0,0,1.56.91,8.63,8.63,0,0,1,4.82,6.54c.08.53,0,1.08.62,1.44a1.7,1.7,0,0,1,.8,2.15,2.09,2.09,0,0,1-2.16,1.24c-2.6,0-5.2,0-7.8.05Zm.3-3.6h0c2.21,0,4.43-.08,6.64,0,1.42.07,1.6-.57,1.35-1.69a7.77,7.77,0,0,0-4.13-5.14c-.76-.43-1,0-1,.64-.06,1-.08,2-.14,3,0,.39-.09.83-.64.76s-.41-.46-.41-.78c0-1.39,0-2.77,0-4.16,0-1.8-1.32-1-2.15-1.15s-1.44.21-1.35,1.29c.13,1.43.15,2.87.2,4.31,0,.36-.13.68-.55.66s-.44-.3-.46-.6c-.1-1-.22-2.09-.26-3.14s-.37-1.2-1.2-.67a7.83,7.83,0,0,0-3.79,5.4c-.17.92.08,1.3,1.09,1.28C20.44,10.32,22.71,10.36,25,10.36Zm-.3,2.47v-.08h6.14c1,0,2,0,3,0,.35,0,.7-.19.71-.56s-.35-.53-.7-.56a7.7,7.7,0,0,0-.83-.05q-8.13,0-16.25,0c-.48,0-1.28-.25-1.27.6s.72.65,1.26.65Z" transform="translate(-1.23 -0.5)"/><path class="cls-1" d="M25.17,44.17a6.65,6.65,0,1,1,6.66-6.65A6.65,6.65,0,0,1,25.17,44.17Zm0-12.31a5.66,5.66,0,1,0,5.66,5.66A5.66,5.66,0,0,0,25.17,31.86Z" transform="translate(-1.23 -0.5)"/><path class="cls-1" d="M25.17,39.85a2.33,2.33,0,1,1,2.33-2.33A2.34,2.34,0,0,1,25.17,39.85Zm0-3.66a1.33,1.33,0,1,0,1.33,1.33A1.34,1.34,0,0,0,25.17,36.19Z" transform="translate(-1.23 -0.5)"/><path class="cls-1" d="M25.17,42.68a1.16,1.16,0,0,1-.82-.34l-.83-.83H22.35a1.16,1.16,0,0,1-1.17-1.16V39.17l-.83-.83a1.16,1.16,0,0,1,0-1.64l.83-.83V34.69a1.16,1.16,0,0,1,1.17-1.16h1.17l.83-.83a1.16,1.16,0,0,1,1.65,0l.83.83H28a1.17,1.17,0,0,1,1.17,1.16v1.18l.83.83a1.16,1.16,0,0,1,0,1.64l-.83.83v1.18A1.17,1.17,0,0,1,28,41.51H26.83l-.83.83A1.16,1.16,0,0,1,25.17,42.68Zm-2.82-8.15a.17.17,0,0,0-.17.16v1.59L21.06,37.4a.17.17,0,0,0,0,.24l1.12,1.12v1.59a.17.17,0,0,0,.17.16h1.58l1.13,1.13a.17.17,0,0,0,.23,0l1.12-1.13H28a.17.17,0,0,0,.17-.16V38.76l1.12-1.12a.17.17,0,0,0,0-.24l-1.12-1.12V34.69a.17.17,0,0,0-.17-.16H26.41L25.29,33.4a.17.17,0,0,0-.12,0,.17.17,0,0,0-.11,0l-1.13,1.13Z" transform="translate(-1.23 -0.5)"/></svg>