<svg id="圖層_1" data-name="圖層 1" xmlns="http://www.w3.org/2000/svg" viewBox="0 0 49 39.95"><defs><style>.cls-1{fill:#190f39;}</style></defs><path class="cls-1" d="M40,11.29c.29-.26.57-.53.88-.77.78-.64,1.07-1.23,0-1.94-.48-.34-1.16-.76-.93-1.46s1-.54,1.61-.65c2.08-.41,4.18-.74,6.26-1.17,1.4-.3,1.84.21,1.61,1.58-.37,2.2-.65,4.42-1,6.63-.26,1.51-.76,1.72-1.75.58s-1.6-1-2.57.08c-4.33,4.68-8.9,9.13-13.5,13.55-1,1-1.73,1.13-2.76,0s-1.74-2.74-3-2.7c-1.06,0-2.05,1.55-3.1,2.37-5.06,4-10.57,6.91-17.09,7.53a22.5,22.5,0,0,1-3.18,0c-.42,0-1-.1-1-.69s.44-.59.81-.73l.16,0c8.74-2,15.14-7.65,21.2-13.79,2.17-2.21,2.13-2.24,4.25.05s2.25,2.43,4.62.15c2-1.94,2-2.26-.64-3.54A9.15,9.15,0,0,0,18,22.08c-.22.7-.24,2-1.18,1.69s-.23-1.37,0-2A10.4,10.4,0,0,1,34.2,17.31l5.79-6Zm7.35,1.61c.3-2,.52-3.69.84-5.39.15-.82-.14-1-.87-.87L41.87,7.7c1.56,1.82,1.56,1.82-.13,3.54-3,3.12-6.06,6.27-9.16,9.33-1.09,1.08-1.91,3.08-3.37,3s-2.29-2-3.28-3.15-1.39-.94-2.28,0C18.83,25.52,13.53,30,7.08,33c-.09,0-.15.16-.36.4A34.15,34.15,0,0,0,21.61,26c1.12-.9,2-2.68,3.32-2.57s2.15,1.81,3.12,2.86,1.4.9,2.27,0c4.63-4.7,9.35-9.3,14-14,.95-1,1.55-1.07,2.32.05A4.35,4.35,0,0,0,47.31,12.9Z" transform="translate(-0.5 -5.03)"/><path class="cls-1" d="M13.51,33.72c-1.24,3.15-1.21,3.11,1.2,5.43.8.76,1.5,1,2.28.2,2.11-2.08,4-.44,5.93.31.72.28.79,1.13.84,1.74.17,2,1.21,2.5,3.12,2.39,3.16-.19,2.44.21,3.21-2.44a4.58,4.58,0,0,1,6.09-2.57c.7.37,1.44,1.34,2.21.78a18.2,18.2,0,0,0,3.07-3.07c.34-.42-.29-.89-.54-1.29-2-3.23-1-6.06,2.64-7,1.09-.27,1.72-.67,1.5-1.89a4.7,4.7,0,0,1,0-.84c0-2.68,0-2.74-2.54-3.39a2.37,2.37,0,0,1-2-2.14.67.67,0,0,1,.48-.79.5.5,0,0,1,.64.38C42,21,43.34,21,44.44,21.24c1.41.26,2.06,1,1.9,2.4-.05.5,0,1,0,1.51,0,3.51,0,3.51-3.34,4.47-1.24.35-2.24,2.76-1.63,3.92,1.7,3.27,1.72,3.28-.84,5.81s-1.93,2.13-4.73.71a3.27,3.27,0,0,0-4.6,2.08c-.86,3.15-.31,2.77-3.62,2.83h-.84c-3.73-.07-3.13.49-4.2-3.24-.39-1.36-2.92-2.43-4.19-1.77-3,1.54-3,1.54-5.39-.77-.36-.34-.74-.68-1.09-1-.52-.55-1.36-1-.95-1.95C11.39,35.13,11.79,33.88,13.51,33.72Z" transform="translate(-0.5 -5.03)"/><path class="cls-1" d="M40,11.26c-.27-.07-.61-.06-.78-.23-.94-.9-1.75-.74-2.78,0a4.21,4.21,0,0,1-6.5-2.61c-.19-.72-.05-1.84-.93-2a8.86,8.86,0,0,0-4.46.12c-.69.26-.58,1.37-.77,2.12a4.54,4.54,0,0,1-6.16,2.72c-.69-.36-1.39-1.39-2.18-.84a10.6,10.6,0,0,0-3.1,3.26c-.32.55.39,1.1.71,1.6a4.34,4.34,0,0,1-2.56,6.8c-.73.22-2.05,0-2,1.14.14,1.57-1.11,3.47.91,4.67.25.15.5.32.42.63a.65.65,0,0,1-.78.48c-.88-.18-1.82-.33-1.83-1.55,0-.73,0-1.45,0-2.18,0-3.5,0-3.5,3.33-4.49,1.54-.46,2.57-3.09,1.7-4.46-1.88-3-2-2.3.53-5.12l.46-.49c2.51-2.54,1.8-2.34,4.83-.72a3.18,3.18,0,0,0,4.51-2c.09-.38.24-.75.3-1.13a1.93,1.93,0,0,1,2.39-1.9,14.7,14.7,0,0,0,3.18,0c1.55-.17,2.23.48,2.5,2,.2,1.15.3,2.28,1.73,3,1.59.77,2.67.34,4-.49,1.77-1.16,3.14-.37,3.34,1.81Z" transform="translate(-0.5 -5.03)"/><path class="cls-1" d="M26,36.14a10.36,10.36,0,0,1-7.22-3.59c-.34-.36-1.06-.78-.46-1.38s1,.12,1.44.53a9.17,9.17,0,0,0,9.46,2.83,9.3,9.3,0,0,0,6.89-7.28,7.5,7.5,0,0,0,.08-2.83c-.09-.59-.18-1.28.55-1.34s.61.77.68,1.25C38.21,30.53,33.17,36.12,26,36.14Z" transform="translate(-0.5 -5.03)"/></svg>