<svg id="圖層_1" data-name="圖層 1" xmlns="http://www.w3.org/2000/svg" viewBox="0 0 46.03 48"><defs><style>.cls-1{fill:#190f39;}</style></defs><path class="cls-1" d="M45.89,8.32c-1.28,1.67-2.41,3.09-3.5,4.54a1.83,1.83,0,0,1-2.23.75,2.1,2.1,0,0,0-.66-.18c-3.36.15-4.3-2.28-5.24-4.8-.3-.82.12-1.29.54-1.83l3.29-4.23c-4.8-.68-9.64,4.4-8.41,9.11.73,2.78-.25,4.35-1.79,6.15Q22.27,24.39,16.73,31A3.07,3.07,0,0,1,14,32.22C8.53,32,4.78,37,6.38,42.56c1-1.32,1.92-2.43,2.67-3.66a2.65,2.65,0,0,1,2.84-1.41h.35c3.21.15,4.29,1.15,4.79,4.36a1.67,1.67,0,0,1-.56,1.36l-3.12,4.1c4.36,1,8.82-3.75,7.76-8.43-.46-2,.31-3.24,1.46-4.52.22-.25.46-.64.82-.45a.67.67,0,0,1,.14,1c-1.77,1.55-1,3.51-1,5.37-.09,5.06-5.12,9.26-10.15,8.6-1.3-.17-1.2-.8-.61-1.6A54.3,54.3,0,0,1,15.09,43c1.07-1.2,0-2.11-.18-3.13s-.94-1-1.7-1.08c-1.59-.26-2.84,0-3.7,1.57A20.29,20.29,0,0,1,7.2,43.51c-1,1.21-1.55,1.08-2.1-.4a9.11,9.11,0,0,1,8.78-12.17,2.14,2.14,0,0,0,1.95-.71Q21.86,23,28,15.83a2.82,2.82,0,0,0,.6-2.92C26.83,6.82,32.3.47,38.66,1c1.49.13,1.66.51.75,1.79S37.57,5.3,36.66,6.54a3.66,3.66,0,0,0,.22,4.85c1,1,4.41.9,5.27-.23s1.92-2.55,2.9-3.81c.31-.39.57-1,1.18-.82s.67.74.84,1.21a9.43,9.43,0,0,1-9,12.54A3.19,3.19,0,0,0,35,21.79c-.56.78-1.52,2.2-2.23,1.61s.76-1.46,1.22-2.22A4.22,4.22,0,0,1,38.25,19C43.59,19.23,47.22,14.17,45.89,8.32Z" transform="translate(-1.99 -1)"/><path class="cls-1" d="M36.16,23.55A11.75,11.75,0,0,1,48,35.19c.06,6.8-5,12.09-11.52,12.1a11.9,11.9,0,0,1-11.9-11.82C24.53,29.77,29.47,23.23,36.16,23.55ZM25.86,35.4A10.6,10.6,0,0,0,38.7,45.8a10.74,10.74,0,0,0,8.12-10.21c.11-4.62-3.27-9.3-7.62-10.43A12,12,0,0,0,34,25.05,10.61,10.61,0,0,0,25.86,35.4Z" transform="translate(-1.99 -1)"/><path class="cls-1" d="M21.51,14c1.39,0,2.29,0,3.19,0,1.17,0,1.69.49.8,1.56q-5.51,6.53-11,13c-.3.35-.67.76-1.15.44s-.14-.86,0-1.25c.91-2.64,1.8-5.28,2.8-7.88.43-1.12.47-1.61-1-1.55-2.44.09-2.49-.06-1.58-2.33,1.05-2.65,2.13-5.28,3.13-7.94a1.78,1.78,0,0,1,2-1.42c1.93.09,3.87,0,5.81,0,1.41,0,1.63.47.85,1.67C24.16,10.18,23,11.9,21.51,14Zm2.59,1.31c-1.1,0-1.76,0-2.43,0s-1.22.16-1.58-.4.21-1.16.52-1.65C21.67,11.59,22.78,9.91,24,8c-1.8,0-3.27.08-4.72,0a1.51,1.51,0,0,0-1.73,1.22c-.79,2.13-1.57,4.27-2.5,6.34-.63,1.39-.33,1.75,1.15,1.7,2.11-.06,2.14.06,1.38,2.11l-2,5.45.36.17Z" transform="translate(-1.99 -1)"/><path class="cls-1" d="M20,32.84c-.75-.21-1-.47-.8-.94a3.92,3.92,0,0,1,.6-.82L30.43,18.41c.29-.35.6-.68.91-1s.48-.35.75-.15a.6.6,0,0,1,.1.9c-.17.23-.35.46-.53.68l-10.84,13C20.5,32.16,20.2,32.56,20,32.84Z" transform="translate(-1.99 -1)"/><path class="cls-1" d="M35.82,32.83c0-1,0-1.7,0-2.44,0-.44,0-1,.65-1s.48.54.49.92a24.18,24.18,0,0,1,0,3.07,2.18,2.18,0,0,0,1.52,2.5,18,18,0,0,1,2.35,1.38c.35.22.64.53.31,1a.62.62,0,0,1-.9.14A40.77,40.77,0,0,1,36.31,36C35.19,35.13,36.08,33.74,35.82,32.83Z" transform="translate(-1.99 -1)"/><rect class="cls-1" x="23.62" y="33.89" width="2.09" height="1.03"/><rect class="cls-1" x="43.11" y="33.89" width="2.09" height="1.03"/><rect class="cls-1" x="33.55" y="23.62" width="1.03" height="2.09"/><rect class="cls-1" x="33.55" y="43.1" width="1.03" height="2.09"/><rect class="cls-1" x="8.56" y="5.82" width="3.77" height="1.03"/><rect class="cls-1" x="4.79" y="5.82" width="2.05" height="1.03"/><rect class="cls-1" x="7.53" y="15.4" width="2.05" height="1.03"/><rect class="cls-1" x="3.08" y="10.61" width="8.22" height="1.03"/><rect class="cls-1" y="15.4" width="6.51" height="1.03"/><rect class="cls-1" x="4.79" y="20.2" width="6.16" height="1.03"/><rect class="cls-1" x="7.92" y="43.99" width="6.85" height="1.14" transform="translate(-31.59 22.64) rotate(-48.65)"/><rect class="cls-1" x="9.17" y="40.76" width="3.69" height="1.14" transform="translate(-29.27 21.3) rotate(-48.65)"/><rect class="cls-1" x="5.75" y="44.86" width="3.69" height="1.14" transform="translate(-33.52 20.12) rotate(-48.65)"/></svg>