<svg id="圖層_1" data-name="圖層 1" xmlns="http://www.w3.org/2000/svg" viewBox="0 0 45.21 49"><defs><style>.cls-1{fill:#190f39;}</style></defs><path class="cls-1" d="M2.4,27.16c0-5.47,0-10.94,0-16.4,0-2.8,1-3.84,3.77-3.86.91,0,1.83,0,2.73,0,1.22.09,2.13,0,2.43-1.54.23-1.12,1.35-1.34,2.34-1.33a2,2,0,0,0,2.2-1.36A3.62,3.62,0,0,1,19.59.5a3.59,3.59,0,0,1,3.5,2.29A1.77,1.77,0,0,0,25,4c1.45,0,2.59.56,2.75,2.2.07.76.55.72,1.08.72,1.42,0,2.85-.06,4.27,0a3,3,0,0,1,3.22,3c.08,4.39,0,8.78,0,13.16,0,.4.17,1.07-.53,1s-.64-.67-.64-1.18c0-3.88,0-7.75,0-11.62,0-2.66-.56-3.22-3.19-3.21-.91,0-1.83-.05-2.73,0-.54,0-1.44-.39-1.47.62s1,.67,1.54.74a14.94,14.94,0,0,0,2.22.05c1.4-.06,2,.68,2,2,0,3.41,0,6.83,0,10.25,0,.51.21,1.32-.68,1.26-.69,0-.59-.74-.59-1.23,0-2.85,0-5.7,0-8.55,0-2.45-.07-2.84-2.52-2.38-4.89.94-9.78.43-14.67.72-2.42.15-4.61-1-7-.81-1.26.1-1.78.28-1.77,1.71q.11,14.7,0,29.4c0,1.27.34,1.66,1.63,1.65,7.63-.07,15.27-.06,22.9-.08a4.17,4.17,0,0,0,1.17-.15c.47-.15,1-.57,1.19.26.11.58-.36.93-.92,1a6.74,6.74,0,0,1-1.19.09q-11.7,0-23.41,0c-2.13,0-2.51-.36-2.51-2.47q0-15.21,0-30.42c0-1.9.39-2.26,2.33-2.28.92,0,1.83,0,2.74,0a.59.59,0,0,0,.65-.62.58.58,0,0,0-.61-.66A44.28,44.28,0,0,0,5,8.28c-1.2.13-1.46,1.29-1.47,2.39,0,1.93,0,3.87,0,5.81q0,13.32,0,26.66c0,2.66.49,3.14,3.2,3.14H32.43c2,0,2.45-.36,2.67-2.43,0-.46-.08-1,.61-1s.57.58.6,1a3,3,0,0,1-3.17,3.56q-13.66.06-27.34,0c-2.35,0-3.36-1.12-3.37-3.54,0-5.58,0-11.17,0-16.75Zm17-16.79v0c2,0,4,0,6,0,1,0,1.33-.36,1.26-1.28,0-.46,0-.92,0-1.37,0-2.48,0-2.54-2.45-2.51A1.67,1.67,0,0,1,22.22,3.8,2.68,2.68,0,0,0,19.5,1.63a2.66,2.66,0,0,0-2.78,2.1c-.3,1.29-1,1.53-2.19,1.5-2.14-.07-2.35.2-2.38,2.31,0,.51,0,1,0,1.53-.08.95.31,1.33,1.27,1.31C15.39,10.33,17.38,10.37,19.37,10.37Z" transform="translate(-2.4 -0.5)"/><path class="cls-1" d="M40.83,33.23a8.9,8.9,0,0,1-1,4.12,1.15,1.15,0,0,0,.6,1.78c2.83,1.52,4.59,4.17,6.67,6.46.94,1,.39,2.31-.62,3.16a2.25,2.25,0,0,1-3.25.1,40.45,40.45,0,0,1-5.83-6.44c-.65-1-1.18-1.29-2.33-.83a8.31,8.31,0,0,1-9.59-1.91,8.75,8.75,0,0,1-2-9.64,8.28,8.28,0,0,1,8.05-5.83A8.87,8.87,0,0,1,40.83,33.23Zm-9-7.87A7.89,7.89,0,1,0,39.67,33,7.9,7.9,0,0,0,31.85,25.36Zm8.73,15.09A19.88,19.88,0,0,0,38.94,42c-.47.51.12.81.39,1.11,1.41,1.54,2.85,3.06,4.29,4.58a1.34,1.34,0,0,0,2.19.12c.78-.78.56-1.5-.13-2.2l-4.39-4.49C41.09,40.87,40.87,40.7,40.58,40.45Z" transform="translate(-2.4 -0.5)"/><path class="cls-1" d="M12.6,23c2.72,0,2.72,0,2.73,2.1,0,3.76,0,3.76-2.54,3.77-3.35,0-3.37,0-3.36-2.09C9.44,22.42,9.17,23,12.6,23ZM14,25.85c.41-1.42-.26-1.79-1.66-1.77-1.23,0-1.81.19-1.77,1.64s.27,1.93,1.76,1.85C13.57,27.5,14.42,27.41,14,25.85Z" transform="translate(-2.4 -0.5)"/><path class="cls-1" d="M12.4,31.9c3,.05,2.88-.59,2.92,2.75,0,3,0,3.06-2.16,3.06-4.36,0-3.58.41-3.69-3.74C9.41,31.93,9.45,31.93,12.4,31.9Zm-.18,4.49c1.24.21,2,0,1.93-1.59-.07-1.25-.27-1.79-1.69-1.77s-1.89.32-1.82,1.78C10.7,36,10.81,36.73,12.22,36.39Z" transform="translate(-2.4 -0.5)"/><path class="cls-1" d="M13.88,17.24C11.71,19,11.46,19,10,17.26c-.24-.27-.52-.55-.31-.87a.62.62,0,0,1,1,0c1.14,1.45,1.84.57,2.58-.41a7.92,7.92,0,0,1,.9-1c.41-.39.69-1.26,1.47-.72s-.09.94-.17,1.42a21.11,21.11,0,0,0-.1,3.38c0,1-.3,1.49-1.38,1.43s-2.27,0-3.4,0c-.5,0-.95-.19-.88-.79s.53-.47.93-.46c.56,0,1.14,0,1.7.05C13.88,19.46,14.44,18.88,13.88,17.24Z" transform="translate(-2.4 -0.5)"/><path class="cls-1" d="M23.43,15.5c1.76,0,3.52,0,5.28,0,.5,0,1.18-.14,1.17.64s-.62.54-1.06.55l-10.38.06c-.5,0-1.24.13-1.26-.57s.78-.66,1.32-.67c1.65,0,3.29,0,4.93,0Z" transform="translate(-2.4 -0.5)"/><path class="cls-1" d="M21.6,19.23c-1.17,0-2.35,0-3.52,0-.41,0-.89,0-.9-.58s.4-.66.84-.66q3.61,0,7.23,0c.37,0,.71.14.72.57s-.41.63-.84.63c-1.17,0-2.35,0-3.53,0Z" transform="translate(-2.4 -0.5)"/><path class="cls-1" d="M21.65,24.05c1.26,0,2.52,0,3.78,0,.36,0,.84-.13.84.65s-.44.54-.76.54c-2.48,0-5,.06-7.43.06-.36,0-.89.13-.9-.56s.56-.66.95-.67c1.17,0,2.35,0,3.52,0Z" transform="translate(-2.4 -0.5)"/><path class="cls-1" d="M20.35,27.78c-.85,0-1.69,0-2.53,0-.29,0-.63,0-.64-.58a.57.57,0,0,1,.6-.66c1.73,0,3.45,0,5.18,0,.26,0,.5.15.51.58s-.29.62-.6.63c-.84,0-1.68,0-2.52,0Z" transform="translate(-2.4 -0.5)"/><path class="cls-1" d="M19.31,36.67c-.57,0-1.13,0-1.7,0-.2,0-.43,0-.43-.58s.19-.66.41-.66l3.47,0c.18,0,.34.15.35.58s-.2.62-.41.63c-.56,0-1.13,0-1.69,0Z" transform="translate(-2.4 -0.5)"/><path class="cls-1" d="M19.31,34.27h-1.7c-.2,0-.43-.05-.43-.58s.19-.67.41-.67c1.15,0,2.31,0,3.47,0,.18,0,.34.15.35.58s-.2.62-.41.62Z" transform="translate(-2.4 -0.5)"/><path class="cls-1" d="M19.4,8.79c-1.53,0-3.07,0-4.6,0-.4,0-.9,0-.94-.52,0-.67.54-.61,1-.61,3.07,0,6.14,0,9.21,0,.39,0,.86,0,.91.53.06.7-.52.65-.95.65-1.53,0-3.07,0-4.6,0Z" transform="translate(-2.4 -0.5)"/><path class="cls-1" d="M31.64,39.82a6.59,6.59,0,1,1,6.7-6.52A6.55,6.55,0,0,1,31.64,39.82Zm5.48-6.51a5.33,5.33,0,0,0-5.18-5.45,5.51,5.51,0,0,0-5.46,5.44,5.61,5.61,0,0,0,5.34,5.39A5.42,5.42,0,0,0,37.12,33.31Z" transform="translate(-2.4 -0.5)"/><path class="cls-1" d="M36,30.86c-.18.24-.32.47-.51.68-1.21,1.34-2.47,2.65-3.64,4-.7.82-1.26.83-1.9,0-.1-.13-.26-.23-.35-.37-.41-.68-1.83-1.22-1.2-1.93.8-.89,1.32.53,1.89,1s.89.12,1.24-.25c1-1.07,2-2.15,3-3.22.27-.28.6-.55,1-.34C35.74,30.53,35.83,30.69,36,30.86Z" transform="translate(-2.4 -0.5)"/><path class="cls-1" d="M19.4,5.62a1.54,1.54,0,1,1,1.54-1.54A1.54,1.54,0,0,1,19.4,5.62Zm0-2.39a.86.86,0,0,0,0,1.71.86.86,0,1,0,0-1.71Z" transform="translate(-2.4 -0.5)"/></svg>