<svg id="圖層_1" data-name="圖層 1" xmlns="http://www.w3.org/2000/svg" viewBox="0 0 49 48.69"><defs><style>.cls-1{fill:#213b7b;}</style></defs><path class="cls-1" d="M39.21,42.1c.09.71.15,1.36.25,2a.7.7,0,0,1-.32.77A25.69,25.69,0,0,1,35.49,47a.64.64,0,0,1-.75-.1c-.56-.44-1.14-.86-1.71-1.29a.47.47,0,0,0-.52-.09,23.77,23.77,0,0,1-3.64,1c-.23,0-.3.18-.37.37-.25.63-.51,1.27-.74,1.91a.67.67,0,0,1-.64.47,27.28,27.28,0,0,1-4.24,0,.68.68,0,0,1-.66-.51c-.23-.63-.49-1.24-.72-1.87a.52.52,0,0,0-.46-.4,22.29,22.29,0,0,1-3.5-.93.53.53,0,0,0-.6.09c-.53.43-1.09.83-1.62,1.26a.72.72,0,0,1-.87.1A29.76,29.76,0,0,1,11,45a.89.89,0,0,1-.41-1c.12-.64.17-1.3.27-1.94a.49.49,0,0,0-.19-.49A21.21,21.21,0,0,1,8.06,38.9a.54.54,0,0,0-.54-.19c-.68.08-1.36.14-2,.23a.76.76,0,0,1-.81-.35,23.72,23.72,0,0,1-1.94-3.44.7.7,0,0,1,.09-.8c.45-.56.87-1.14,1.31-1.7a.53.53,0,0,0,.08-.6A19.43,19.43,0,0,1,3.39,29a.69.69,0,0,0-.54-.62c-.57-.19-1.13-.44-1.7-.63A.78.78,0,0,1,.57,27a29.66,29.66,0,0,1,0-4,.68.68,0,0,1,.48-.68c.61-.22,1.22-.47,1.83-.69A.68.68,0,0,0,3.4,21a20,20,0,0,1,.81-3.13.57.57,0,0,0-.11-.6c-.43-.56-.84-1.13-1.27-1.67a.71.71,0,0,1-.11-.84,24.67,24.67,0,0,1,1.93-3.39A.77.77,0,0,1,5.47,11c.66.09,1.32.15,2,.25A.66.66,0,0,0,8.11,11a20.2,20.2,0,0,1,2.47-2.51.58.58,0,0,0,.22-.58c-.1-.66-.15-1.33-.26-2A.79.79,0,0,1,10.91,5,30.52,30.52,0,0,1,14.44,3a.68.68,0,0,1,.83.07c.55.45,1.13.87,1.7,1.31a.52.52,0,0,0,.56.09,22.56,22.56,0,0,1,3.54-1,.5.5,0,0,0,.43-.37c.23-.63.49-1.24.71-1.87a.68.68,0,0,1,.67-.51c1.41-.07,2.83-.07,4.24,0a.68.68,0,0,1,.64.48c.22.61.47,1.22.69,1.83a.65.65,0,0,0,.54.46,24.38,24.38,0,0,1,3.45.92.56.56,0,0,0,.6-.1c.56-.45,1.14-.86,1.7-1.3a.65.65,0,0,1,.79-.07,32,32,0,0,1,3.61,2.14.75.75,0,0,1,.35.81c-.11.69-.18,1.39-.3,2.08a.49.49,0,0,0,.2.53A18.31,18.31,0,0,1,41.87,11a.66.66,0,0,0,.66.26c.66-.09,1.33-.15,2-.24a.76.76,0,0,1,.81.35,24.05,24.05,0,0,1,1.9,3.35.8.8,0,0,1-.11.93c-.42.51-.8,1.06-1.22,1.58a.62.62,0,0,0-.13.65,20.45,20.45,0,0,1,.82,3.19.52.52,0,0,0,.39.47c.64.24,1.27.51,1.91.74a.74.74,0,0,1,.54.74,25.56,25.56,0,0,1,0,4,.71.71,0,0,1-.52.7c-.63.21-1.24.49-1.87.7a.56.56,0,0,0-.42.51,23.06,23.06,0,0,1-.8,3,.77.77,0,0,0,.16.82c.41.51.78,1,1.19,1.55a.76.76,0,0,1,.11.84,19.82,19.82,0,0,1-1.89,3.36.88.88,0,0,1-.9.4c-.68-.09-1.36-.14-2-.23a.49.49,0,0,0-.49.19,22.72,22.72,0,0,1-2.56,2.63A.51.51,0,0,0,39.21,42.1Zm-27.83-34c.11.25,0,.48-.28.71a25,25,0,0,0-2.7,2.75.75.75,0,0,1-.75.29c-.68-.09-1.36-.14-2-.23a.52.52,0,0,0-.59.26,26,26,0,0,0-1.67,3,.5.5,0,0,0,.07.6c.43.55.83,1.12,1.26,1.67a.75.75,0,0,1,.15.79,22.58,22.58,0,0,0-.94,3.59.64.64,0,0,1-.47.54c-.63.22-1.24.48-1.87.71a.56.56,0,0,0-.42.55,21.16,21.16,0,0,0,0,3.47.49.49,0,0,0,.36.49c.64.23,1.27.5,1.92.72a.67.67,0,0,1,.49.58,20.4,20.4,0,0,0,.94,3.59.71.71,0,0,1-.14.78c-.45.54-.86,1.11-1.29,1.66a.45.45,0,0,0-.08.52,25.76,25.76,0,0,0,1.7,3,.51.51,0,0,0,.56.24c.71-.09,1.42-.14,2.14-.22a.59.59,0,0,1,.58.22,26.38,26.38,0,0,0,2.87,2.92.64.64,0,0,1,.24.63c-.1.7-.16,1.39-.29,2.08a.51.51,0,0,0,.26.59,28.74,28.74,0,0,0,3.13,1.83.48.48,0,0,0,.59-.07c.55-.44,1.12-.85,1.67-1.28a.66.66,0,0,1,.71-.11,21.88,21.88,0,0,0,3.91,1,.72.72,0,0,1,.6.53c.22.62.47,1.24.7,1.87a.45.45,0,0,0,.45.34,28.09,28.09,0,0,0,3.67,0,.48.48,0,0,0,.48-.36c.23-.63.5-1.24.73-1.86a.7.7,0,0,1,.6-.52,25,25,0,0,0,3.91-1,.61.61,0,0,1,.66.11c.56.44,1.15.85,1.71,1.29a.45.45,0,0,0,.56.05,27,27,0,0,0,3.16-1.86.47.47,0,0,0,.24-.51c-.1-.68-.15-1.36-.25-2a.77.77,0,0,1,.25-.76,28,28,0,0,0,2.81-2.85.63.63,0,0,1,.63-.24c.69.09,1.39.14,2.08.23a.55.55,0,0,0,.59-.27,23.13,23.13,0,0,0,1.67-2.94.5.5,0,0,0-.07-.6c-.44-.55-.84-1.12-1.29-1.67a.74.74,0,0,1-.14-.78,22.67,22.67,0,0,0,1-3.64.56.56,0,0,1,.41-.46c.61-.23,1.21-.48,1.83-.68a.67.67,0,0,0,.52-.69,28.46,28.46,0,0,0,0-3.33.57.57,0,0,0-.44-.58c-.64-.23-1.27-.49-1.91-.74a.56.56,0,0,1-.42-.46,22.46,22.46,0,0,0-1-3.69.7.7,0,0,1,.14-.74c.42-.53.82-1.1,1.24-1.63a.56.56,0,0,0,.09-.68A23.11,23.11,0,0,0,45,11.87a.5.5,0,0,0-.55-.25c-.69.09-1.39.14-2.08.22a.69.69,0,0,1-.68-.24,24.48,24.48,0,0,0-2.81-2.86A.69.69,0,0,1,38.59,8c.11-.67.17-1.36.29-2a.51.51,0,0,0-.27-.59,30.32,30.32,0,0,0-3.16-1.85.42.42,0,0,0-.52,0c-.55.43-1.12.83-1.67,1.27a.76.76,0,0,1-.79.14,27.81,27.81,0,0,0-3.91-1A.66.66,0,0,1,28,3.51c-.23-.63-.49-1.24-.71-1.87a.49.49,0,0,0-.48-.37,32.09,32.09,0,0,0-3.67,0,.46.46,0,0,0-.46.33c-.24.64-.5,1.27-.74,1.92a.62.62,0,0,1-.53.46A24.49,24.49,0,0,0,17.48,5a.66.66,0,0,1-.71-.12c-.53-.43-1.09-.83-1.62-1.26a.56.56,0,0,0-.68-.07,35.53,35.53,0,0,0-3.08,1.82.52.52,0,0,0-.25.59C11.24,6.66,11.3,7.33,11.38,8.08Z" transform="translate(-0.5 -0.66)"/><path class="cls-1" d="M25,5.21A19.78,19.78,0,1,1,5.14,25.12,19.85,19.85,0,0,1,25,5.21Zm.39,39a19.22,19.22,0,1,0-19.67-19A19.26,19.26,0,0,0,25.38,44.2Z" transform="translate(-0.5 -0.66)"/><path class="cls-1" d="M32.82,26.89c1,0,1.93.05,2.89,0a2.64,2.64,0,0,1,2.84,2.62,2.67,2.67,0,0,1-2.85,2.63l-23,0c-.42,0-.57.09-.52.52a.36.36,0,0,0,.38.39H38.36C39,33,39,33,39,32.32V18.48c0-.6-.09-.69-.69-.69H23.13a3.09,3.09,0,0,1-.43,0c-.1,0-.32.07-.29-.11s0-.41.27-.44H23l15.32,0c1,0,1.33.28,1.33,1.33V32.41c0,.85-.3,1.16-1.14,1.16H12.8c-.84,0-1.16-.32-1.15-1.16a.49.49,0,0,0-.32-.54,2.44,2.44,0,0,1-1.5-2.35,2.48,2.48,0,0,1,1.43-2.35.63.63,0,0,0,.39-.65c0-2.71,0-5.41,0-8.12,0-.86.3-1.18,1.17-1.18h6.83c.14,0,.31-.08.41.13s.07.43-.3.43H13c-.73,0-.77,0-.77.75q0,4,0,7.92c0,.35.08.46.45.45,1.19,0,2.38,0,3.68,0A7.62,7.62,0,0,0,15,26.34c-.76-.28-.76-.28-.76-1.08,0-.57,0-1.14,0-1.71a.57.57,0,0,1,.39-.63c.63-.23,1.25-.47,1.87-.72a.61.61,0,0,1,.46,0l1.87.73a.52.52,0,0,1,.37.54c0,.72,0,1.43,0,2.15a.57.57,0,0,1-.45.59,11.22,11.22,0,0,0-1.56.66h6.91l0-.07c-.51-.19-1-.4-1.52-.57a.68.68,0,0,1-.54-.77c0-.65,0-1.31,0-2a.56.56,0,0,1,.42-.6c.63-.23,1.25-.47,1.87-.72a.61.61,0,0,1,.46,0c.61.24,1.21.49,1.82.72a.59.59,0,0,1,.41.66c0,.66,0,1.33,0,2a.59.59,0,0,1-.43.65,12.07,12.07,0,0,0-1.55.64h6.78V26.8c-.51-.2-1-.4-1.53-.58a.61.61,0,0,1-.47-.67c0-.67,0-1.34,0-2a.57.57,0,0,1,.47-.66,1.67,1.67,0,0,0,.44-.17c1.3-.86,2.51-.35,3.71.23a.56.56,0,0,1,.34.57c0,.7,0,1.4,0,2.1a.55.55,0,0,1-.41.61c-.53.18-1.06.38-1.59.58Zm-8.76,4.66v0h11.4a4,4,0,0,0,.85-.06,1.94,1.94,0,0,0,1.58-1.42,2.05,2.05,0,0,0-2.08-2.65c-5.63,0-11.27,0-16.9,0-2.13,0-4.26,0-6.39,0a2.09,2.09,0,0,0-2.11,1.71,2,2,0,0,0,2,2.39C16.29,31.56,20.17,31.55,24.06,31.55Zm8-6.37c0-.36.1-.83-.61-1.06-1.06-.34-1-.4-1,.74,0,.84,0,.84.79,1.11S32,26.28,32,25.18Zm-7.2.11a4.28,4.28,0,0,1,0,.62c0,.35.12.37.38.25a1.57,1.57,0,0,1,.23-.09c1.27-.51,1-.14,1.06-1.51,0-.84,0-.85-.79-.53S24.84,24.36,24.83,25.29Zm9.42-.51c0-.21,0-.41,0-.62s-.09-.43-.4-.26a1.33,1.33,0,0,1-.21.09c-1,.4-1,.4-1,1.49,0,.82,0,.82.75.54S34.25,25.69,34.25,24.78Zm-10,1.47c.18-1.84.15-1.9-1.22-2.38h-.05c-.26-.14-.34,0-.33.23,0,.45,0,.89,0,1.34a.33.33,0,0,0,.26.34Zm-7.79-1c0-.9,0-.9-.83-1.22l-.49-.19c-.23-.12-.34-.09-.33.2s0,.57,0,.86c0,.76,0,.76.72,1C16.41,26.27,16.41,26.27,16.41,25.29Zm2.19-1.54-1.39.55c-.13.05-.22.11-.22.27,0,.49,0,1,0,1.47,0,.12,0,.22.18.16l1.25-.46a.28.28,0,0,0,.18-.3C18.6,24.91,18.6,24.37,18.6,23.75Zm15.08-.45a2.1,2.1,0,0,0-2.67,0A2.15,2.15,0,0,0,33.68,23.3ZM18,23.29a2.13,2.13,0,0,0-2.66,0A2.06,2.06,0,0,0,18,23.29Zm7.85,0a2.11,2.11,0,0,0-2.66,0A2.12,2.12,0,0,0,25.88,23.27Z" transform="translate(-0.5 -0.66)"/><path class="cls-1" d="M32.09,13.22v1a.46.46,0,0,1-.51.54H29.34a.47.47,0,0,1-.54-.52c0-.75,0-1.49,0-2.24a.46.46,0,0,1,.52-.54c.76,0,1.52,0,2.28,0,.35,0,.51.21.51.56v1.14Z" transform="translate(-0.5 -0.66)"/><path class="cls-1" d="M25.82,14H23.77c-.29,0-.45,0-.38-.39a1.83,1.83,0,0,0,0-.9c-.07-.24,0-.27.24-.27H28c.21,0,.29.1.27.29v0C28.35,14,28.35,14,27.1,14Z" transform="translate(-0.5 -0.66)"/><path class="cls-1" d="M24.93,21.3c-.91-.54-1.82-1.1-2.75-1.6a1,1,0,0,1-.62-1.13,4.21,4.21,0,0,0,0-.71c0-.17.06-.27.25-.27s.25.09.26.26a3.75,3.75,0,0,1,0,.67.71.71,0,0,0,.44.76c.77.43,1.53.89,2.3,1.34a4.08,4.08,0,0,1,.44.28.59.59,0,0,1,.14.85.54.54,0,0,1-.8.1,5.8,5.8,0,0,0-1.12-.66c.05.25.23.26.35.35s.29.17.15.37-.27.14-.42.05a2.68,2.68,0,0,1-.28-.18c-.75-.54-1.52-1-2.31-1.51a.92.92,0,0,1-.5-.9c0-.5,0-1,0-1.48,0-.18,0-.3.26-.31s.27.12.26.3c0,.47,0,.93,0,1.39a.6.6,0,0,0,.29.55l1.53,1c.08,0,.17.14.26.05.38-.4.69-.07,1,.11l.78.43Z" transform="translate(-0.5 -0.66)"/><path class="cls-1" d="M21.28,11.72a1.6,1.6,0,0,1,1.63,1.62,1.65,1.65,0,1,1-3.29,0A1.61,1.61,0,0,1,21.28,11.72Zm1.06,1.61a1.08,1.08,0,0,0-1.1-1.06,1.07,1.07,0,0,0-1,1.07,1.11,1.11,0,0,0,1.08,1.1A1.09,1.09,0,0,0,22.34,13.33Z" transform="translate(-0.5 -0.66)"/><path class="cls-1" d="M22.06,16.23c0,.89,0,.89-.89.9h-.43c-.22,0-.31-.08-.3-.31,0-.41,0-.82,0-1.24,0-.24.11-.25.3-.21s.38.05.56.08.58-.23.74,0S22.06,16,22.06,16.23Z" transform="translate(-0.5 -0.66)"/><path class="cls-1" d="M30.22,15.49c.21,0,.49-.1.49.31s-.34.28-.55.3-.44.07-.44-.3S30,15.5,30.22,15.49Z" transform="translate(-0.5 -0.66)"/><path class="cls-1" d="M31.82,16.11c-.2,0-.5.12-.49-.3s.35-.28.58-.32.41,0,.41.33S32,16.07,31.82,16.11Z" transform="translate(-0.5 -0.66)"/><path class="cls-1" d="M35,16.11c-.24,0-.49.08-.49-.3s.26-.33.48-.31.49-.14.5.28S35.2,16,35,16.11Z" transform="translate(-0.5 -0.66)"/><path class="cls-1" d="M38.22,16.11c-.21,0-.47.1-.47-.29s.3-.31.52-.32.45-.08.46.29S38.41,16.07,38.22,16.11Z" transform="translate(-0.5 -0.66)"/><path class="cls-1" d="M28.65,16.11c-.3,0-.54.06-.52-.33s.35-.25.55-.28.44-.06.44.3S28.79,16.07,28.65,16.11Z" transform="translate(-0.5 -0.66)"/><path class="cls-1" d="M14.14,15.49c.21,0,.46-.1.47.29s-.25.33-.47.32-.5.13-.49-.3S14,15.54,14.14,15.49Z" transform="translate(-0.5 -0.66)"/><path class="cls-1" d="M15.75,16.12c-.23,0-.5.09-.48-.32s.33-.27.54-.3.43,0,.42.32S15.93,16.07,15.75,16.12Z" transform="translate(-0.5 -0.66)"/><path class="cls-1" d="M25.4,15.49c.22,0,.5-.09.49.32s-.28.3-.49.3-.49.1-.49-.31S25.2,15.52,25.4,15.49Z" transform="translate(-0.5 -0.66)"/><path class="cls-1" d="M27,15.5c.24,0,.48-.08.48.3s-.3.3-.52.31-.44.08-.45-.29S26.85,15.55,27,15.5Z" transform="translate(-0.5 -0.66)"/><path class="cls-1" d="M33.43,15.49c.22,0,.49-.1.49.31s-.32.3-.53.3-.45.11-.46-.27S33.2,15.5,33.43,15.49Z" transform="translate(-0.5 -0.66)"/><path class="cls-1" d="M17.37,16.11c-.27,0-.51.08-.5-.32s.3-.27.5-.29.47-.06.47.33S17.53,16.07,17.37,16.11Z" transform="translate(-0.5 -0.66)"/><path class="cls-1" d="M36.62,16.1c-.2,0-.47.1-.47-.29s.35-.28.57-.31.42,0,.41.32S36.79,16,36.62,16.1Z" transform="translate(-0.5 -0.66)"/><path class="cls-1" d="M12.5,15.5c.28,0,.52-.06.51.33s-.33.24-.52.26-.45.07-.45-.3S12.34,15.53,12.5,15.5Z" transform="translate(-0.5 -0.66)"/><path class="cls-1" d="M23.82,16.11c-.31,0-.5,0-.5-.3s.33-.28.54-.31.43,0,.42.32S23.94,16.07,23.82,16.11Z" transform="translate(-0.5 -0.66)"/><path class="cls-1" d="M19,16.11c-.28,0-.48,0-.47-.31s.29-.28.5-.3.47,0,.45.34S19.1,16,19,16.11Z" transform="translate(-0.5 -0.66)"/><path class="cls-1" d="M15.73,35.26c-.22,0-.47.08-.47-.3s.34-.27.55-.3.43,0,.42.32S15.9,35.2,15.73,35.26Z" transform="translate(-0.5 -0.66)"/><path class="cls-1" d="M17.35,34.67c.26,0,.49-.06.47.31s-.32.24-.52.27-.44,0-.42-.31S17.21,34.72,17.35,34.67Z" transform="translate(-0.5 -0.66)"/><path class="cls-1" d="M22.15,35.26c-.2,0-.47.1-.47-.29s.32-.28.54-.3.44-.07.43.3S22.34,35.21,22.15,35.26Z" transform="translate(-0.5 -0.66)"/><path class="cls-1" d="M23.78,35.26c-.21,0-.49.11-.49-.31s.3-.28.5-.28.49-.13.48.29S24,35.22,23.78,35.26Z" transform="translate(-0.5 -0.66)"/><path class="cls-1" d="M25.43,35.26c-.26,0-.53.08-.51-.33s.33-.24.52-.26.45-.09.45.29S25.59,35.21,25.43,35.26Z" transform="translate(-0.5 -0.66)"/><path class="cls-1" d="M27,35.26c-.22,0-.47.08-.46-.3s.37-.24.58-.3.38,0,.38.31S27.18,35.2,27,35.26Z" transform="translate(-0.5 -0.66)"/><path class="cls-1" d="M14.14,34.66c.23,0,.47-.07.46.3s-.26.3-.46.29-.5.12-.49-.3S14,34.71,14.14,34.66Z" transform="translate(-0.5 -0.66)"/><path class="cls-1" d="M30.18,34.66c.24,0,.48-.09.49.29s-.28.3-.49.31-.49.08-.47-.32S30,34.73,30.18,34.66Z" transform="translate(-0.5 -0.66)"/><path class="cls-1" d="M31.78,35.27c-.24,0-.48.06-.47-.31s.37-.25.59-.3.38,0,.38.3S32,35.21,31.78,35.27Z" transform="translate(-0.5 -0.66)"/><path class="cls-1" d="M33.38,35.26c-.23,0-.46.08-.47-.29s.28-.31.49-.3.49-.14.49.28S33.56,35.21,33.38,35.26Z" transform="translate(-0.5 -0.66)"/><path class="cls-1" d="M35,35.26c-.23,0-.48.07-.47-.3s.34-.26.55-.29.43,0,.42.32S35.16,35.2,35,35.26Z" transform="translate(-0.5 -0.66)"/><path class="cls-1" d="M36.63,35.27c-.27,0-.5.06-.49-.31s.35-.26.55-.29.41-.06.42.28S36.79,35.22,36.63,35.27Z" transform="translate(-0.5 -0.66)"/><path class="cls-1" d="M28.61,34.65c.22,0,.47-.09.47.29s-.26.32-.48.32-.48.09-.47-.32S28.43,34.69,28.61,34.65Z" transform="translate(-0.5 -0.66)"/><path class="cls-1" d="M12.54,35.26c-.24,0-.48.07-.48-.3s.29-.29.5-.29.44-.09.44.29S12.7,35.22,12.54,35.26Z" transform="translate(-0.5 -0.66)"/><path class="cls-1" d="M38.23,34.66c.21,0,.47-.1.48.29s-.25.33-.48.32-.49.13-.48-.3S38,34.71,38.23,34.66Z" transform="translate(-0.5 -0.66)"/><path class="cls-1" d="M40.07,15.82c0,.33-.19.29-.4.3s-.34-.09-.34-.35.23-.26.42-.27S40.11,15.57,40.07,15.82Z" transform="translate(-0.5 -0.66)"/><path class="cls-1" d="M18.93,34.67c.26,0,.49-.07.48.3s-.26.28-.46.28-.45.11-.46-.28S18.77,34.69,18.93,34.67Z" transform="translate(-0.5 -0.66)"/><path class="cls-1" d="M20.58,35.25c-.28,0-.5,0-.49-.31s.33-.25.53-.27.44-.05.43.31S20.71,35.19,20.58,35.25Z" transform="translate(-0.5 -0.66)"/><path class="cls-1" d="M40.06,35c0,.35-.2.28-.4.3s-.32-.1-.32-.34.2-.28.4-.29S40.09,34.76,40.06,35Z" transform="translate(-0.5 -0.66)"/><path class="cls-1" d="M11,16.1c-.26,0-.34-.07-.34-.33s.22-.27.41-.29.33.08.33.32S11.25,16.13,11,16.1Z" transform="translate(-0.5 -0.66)"/><path class="cls-1" d="M11.05,34.66c.22,0,.36,0,.36.29s-.14.34-.38.33-.35,0-.36-.3S10.81,34.63,11.05,34.66Z" transform="translate(-0.5 -0.66)"/><path class="cls-1" d="M21.87,29.54A1.51,1.51,0,1,1,20.39,28,1.53,1.53,0,0,1,21.87,29.54Zm-1.5-1a1,1,0,0,0-1,.95,1,1,0,0,0,1,1,1,1,0,0,0,0-2Z" transform="translate(-0.5 -0.66)"/><path class="cls-1" d="M28.06,31.05a1.52,1.52,0,0,1-1.5-1.52,1.52,1.52,0,1,1,3,0A1.52,1.52,0,0,1,28.06,31.05Zm1-1.55a1,1,0,0,0-1-.95,1,1,0,0,0-1,1A1,1,0,1,0,29,29.5Z" transform="translate(-0.5 -0.66)"/><path class="cls-1" d="M35.72,31.05a1.53,1.53,0,0,1-1.53-1.51A1.57,1.57,0,0,1,35.75,28a1.55,1.55,0,0,1,1.49,1.55A1.5,1.5,0,0,1,35.72,31.05Zm1-1.53a1,1,0,0,0-1-1,1,1,0,0,0-1,1,1,1,0,0,0,1,.94A1,1,0,0,0,36.68,29.52Z" transform="translate(-0.5 -0.66)"/><path class="cls-1" d="M12.69,31.05a1.53,1.53,0,0,1,0-3.06,1.55,1.55,0,0,1,1.53,1.51A1.51,1.51,0,0,1,12.69,31.05Zm.94-1.5a1,1,0,0,0-.94-1,1,1,0,0,0-1,1,1,1,0,0,0,1,1A1,1,0,0,0,13.63,29.55Z" transform="translate(-0.5 -0.66)"/><path class="cls-1" d="M21.75,13.34c0,.31-.18.5-.49.49a.44.44,0,0,1-.46-.49.42.42,0,0,1,.45-.44C21.56,12.88,21.69,13.09,21.75,13.34Z" transform="translate(-0.5 -0.66)"/><path class="cls-1" d="M20.33,29.11c.29,0,.46.15.47.41a.4.4,0,0,1-.45.44.43.43,0,0,1,0-.85Z" transform="translate(-0.5 -0.66)"/><path class="cls-1" d="M28.06,30a.4.4,0,0,1-.4-.44.38.38,0,0,1,.45-.42.39.39,0,0,1,.41.43C28.51,29.83,28.33,30,28.06,30Z" transform="translate(-0.5 -0.66)"/><path class="cls-1" d="M36.16,29.5a.45.45,0,0,1-.42.46.38.38,0,0,1-.44-.4.39.39,0,0,1,.4-.44A.44.44,0,0,1,36.16,29.5Z" transform="translate(-0.5 -0.66)"/><path class="cls-1" d="M12.64,29.11c.24,0,.43.14.44.4a.4.4,0,0,1-.43.46.39.39,0,0,1-.42-.42A.4.4,0,0,1,12.64,29.11Z" transform="translate(-0.5 -0.66)"/></svg>