<svg id="圖層_1" data-name="圖層 1" xmlns="http://www.w3.org/2000/svg" viewBox="0 0 49 48.35"><defs><style>.cls-1{fill:#213b7b;}</style></defs><path class="cls-1" d="M18.47,13.68a1.45,1.45,0,0,0,.9-1.53c-.06-1.63,0-3.27,0-4.9,0-.83.1-.94.91-.94s1.57,0,2.35,0a.76.76,0,0,1,.87.86c0,1,0,2,0,3,0,.45.11.55.55.42,1.56-.46,1.57-.44,1.57-2.09,0-.49,0-1,0-1.47s-.19-1.11.5-1.1.45.7.46,1.13c0,.81,0,1.61,0,2.42,0,.36.08.55.51.5a14.19,14.19,0,0,1,6.1.64c.48.16.77.17.72-.47s.24-.78.78-.78,1.27,0,1.91,0,.83.29.83.86,0,1.4.07,2.1a1.14,1.14,0,0,0,.12.49c.1.18.27.4.48.36s.14-.32.14-.49c0-1.34,0-2.68,0-4,0-1,.18-1.17,1.2-1.18H40.6c1,0,1.23.18,1.23,1.22,0,2.63,0,5.27,0,7.9,0,.15,0,.3,0,.45s0,.45.32.44a.47.47,0,0,0,.5-.4,5.43,5.43,0,0,0,0-.57V4.62c0-.36.09-.74-.51-.69-.25,0-.38-.24-.37-.51s0-.46.06-.73c-.39.37-.76.69-1.11,1.05-1,1-1.88,2-2.83,3-.48.5-.69.49-1.23,0-1.19-1.06-1.19-1.06-2.31.08l-1.89,2c-.26.29-.58.54-.92.23s-.06-.64.19-.9c1-1.06,2-2.12,3.05-3.17.53-.54.7-.54,1.29-.06l.48.42c.69.64.69.63,1.31,0L41,2.09c-.48,0-1.09.12-1.05-.56s.61-.52,1-.57.84-.1,1.27-.13.71.22.7.69,0,.89,0,1.34.09.45.44.43c.53,0,1.06,0,1.59,0,1.17,0,1.29.12,1.29,1.26,0,4.59,0,9.17,0,13.76,0,.6.05,1,.8.91.34,0,.67.11.67.52s-.37.48-.7.49H44.1c-.77,0-1.06.21-.92,1,.22,1.18.46,2.36.69,3.62.28-.38.55-.76.85-1.14s.69-.51,1.06,0c1.17,1.54,2.32,3.09,3.48,4.64.17.23.33.46.18.76s-.45.27-.73.28c-.89,0-.89,0-.89.94q0,7.71,0,15.42c0,.54,0,1,.75.91a.46.46,0,0,1,.52.52c0,.31-.26.41-.54.42H24.46c-.37,0-.86.09-.88-.47s.43-.5.79-.49.51-.27.51-.62V41.83c0-1,.15-1.1,1.11-1.11h2.68c1.13,0,1.21.09,1.21,1.25,0,1.34,0,2.67,0,4,0,.31,0,.6.44.61s.53-.22.53-.59c0-1.85,0-3.7,0-5.54,0-.41-.12-.56-.57-.52a15.12,15.12,0,0,1-16-10,1.1,1.1,0,0,0-1.17-.9,2.19,2.19,0,0,1-2.24-1.56c-.16-.43-.39-.84-.55-1.28s.05-.75.55-.74a5.92,5.92,0,0,1,.82.1,1.53,1.53,0,0,0,1.79-1.36c.07-.74.13-1.48.27-2.21.08-.39-.09-.48-.44-.47-1.25,0-2.5,0-3.76,0a3.18,3.18,0,0,1-.62-.06.48.48,0,0,1-.38-.39.39.39,0,0,1,.25-.47c.53-.16.49-.55.49-1,0-1.41,0-2.81,0-4.21,0-.79.15-.94.93-.95h2c1,0,1.2.17,1.21,1.23,0,1.34,0,2.68,0,4,0,.28-.13.71.37.72s.48-.41.48-.74c0-2.63,0-5.26,0-7.9,0-1,.13-1.14,1.13-1.14.66,0,1.32,0,2,0,.81,0,1,.24,1,1,0,.62,0,1.23,0,1.85C18.42,13.59,18.44,13.61,18.47,13.68ZM42.54,28.27c1.24.23,1.24.23,1.24,1.39q0,6.12,0,12.23c0,1.35,0,2.71,0,4.07,0,.47.15.66.62.63a10.55,10.55,0,0,1,1.59,0c.67.06.82-.22.82-.84,0-3.31,0-6.62,0-9.93V29.39c0-.56.09-1,.81-1,.39,0,.37-.16.18-.42-.76-1-1.5-2-2.25-3-.18-.25-.33-.29-.53,0C44.21,26,43.4,27.11,42.54,28.27ZM28,20.67h0v-3c0-.87,0-.89-.89-.85a24.84,24.84,0,0,0-4.21.61,1,1,0,0,0-.89.84,30.26,30.26,0,0,0-.81,5.52c0,.47.13.63.6.66,1.87.12,3.73-.06,5.59,0,.49,0,.62-.22.61-.66C28,22.75,28,21.71,28,20.67Zm9.85,18.17h0c0,2.33,0,4.66,0,7,0,.58.19.81.78.76a9.21,9.21,0,0,1,1.39,0c.58,0,.82-.15.78-.75s0-1.48,0-2.22c0-3.88-.09-7.77.08-11.64,0-.47-.12-.67-.6-.65s-1.24,0-1.85,0c-.44,0-.58.13-.58.58C37.88,34.21,37.87,36.53,37.87,38.84Zm2.07-18.26a1.81,1.81,0,0,1-.49.67C37.07,23.83,34.7,26.4,32.31,29c-.55.6-.69.6-1.32.1-1.11-.86-2.22-1.72-3.3-2.61-.41-.33-.71-.39-1.06.05s-.58.63-.87.93c-1.9,2-3.79,4-5.7,6-.29.3-.29.47,0,.77s.56.28.87,0q2.82-3,5.66-6c.59-.62.68-.61,1.37-.07,1.12.9,2.26,1.79,3.38,2.7.37.3.57.31.92-.08,2.71-3,5.46-5.93,8.19-8.91.39-.43.74-.53,1.16-.07s.42.21.5-.18c.18-.91.38-1.83.6-2.73.09-.41,0-.46-.38-.33l-2.76,1c-.4.13-.35.3-.06.5A.81.81,0,0,1,39.94,20.58ZM29,20.64h0c0,1.06,0,2.12,0,3.18,0,.58.19.73.74.72,1.61,0,3.23,0,4.84,0a1.15,1.15,0,0,0,1.23-1.28A23,23,0,0,0,35,18.1a.76.76,0,0,0-.59-.59,23.36,23.36,0,0,0-4.78-.69c-.48,0-.62.17-.61.63C29,18.51,29,19.58,29,20.64Zm5.9,20.59h0c0-1.55,0-3.1,0-4.65,0-.5-.17-.69-.67-.66s-1.14,0-1.71,0-.66.15-.65.63c0,.63,0,1.27,0,1.91,0,2.46,0,4.92,0,7.38,0,.58.19.8.78.76a10.54,10.54,0,0,1,1.59,0c.49,0,.67-.15.66-.65C34.88,44.37,34.9,42.8,34.9,41.23ZM18.78,24.45c.28,0,.56,0,.83,0,.45,0,.65-.14.65-.62A23.61,23.61,0,0,1,21,18.54c0-.14.13-.3,0-.42s-.28,0-.41.06a14,14,0,0,0-2.78,1.41,7.34,7.34,0,0,0-3,3.31c-.18.47-.2.73.44.77a3.35,3.35,0,0,1,1.85.36A2.55,2.55,0,0,0,18.78,24.45ZM45.22,7V5.11c0-.78,0-.77-.84-.81-.6,0-.75.21-.74.78,0,3.8,0,7.59,0,11.39a7.6,7.6,0,0,1,0,2.38c-.07.2.07.32.28.33s.46,0,.7,0,.49-.09.48-.47c0-.78.07-1.57.06-2.35C45.15,13.23,45.09,10.09,45.22,7ZM36.07,31.77c.43-.11.77-.17.77-.6,0-.76.47-1,1.09-.86a3,3,0,0,0,2.71-1.09,11.47,11.47,0,0,0,1.81-2.59,2.87,2.87,0,0,0,.16-.61c.12-.4,0-.53-.44-.53H39.05a2.93,2.93,0,0,0-2.25,1.82A29.67,29.67,0,0,1,36.07,31.77ZM24.39,11.57c-3.43.56-8.53,5.41-9,8.51.06,0,.13,0,.17-.06A14.86,14.86,0,0,1,21,16.94a.89.89,0,0,0,.61-.65A13,13,0,0,1,23.29,13C23.62,12.52,24,12.07,24.39,11.57Zm8.17-.11a14.54,14.54,0,0,1,3,5,.84.84,0,0,0,.61.49,12.18,12.18,0,0,1,2.63,1.1,1.63,1.63,0,0,0,1.5.1c.44-.16.52-.31.26-.72a14.28,14.28,0,0,0-3.39-3.67A14,14,0,0,0,32.56,11.46Zm1.76,4.93a9,9,0,0,0-3.58-5A3.58,3.58,0,0,0,29.55,11c-.38-.05-.56.09-.55.49q0,1.91,0,3.81c0,.35.14.5.49.52.63.05,1.26.1,1.89.18C32.36,16.09,33.33,16.25,34.32,16.39ZM28,36.64c0-.59,0-1.19,0-1.78s-.12-.75-.65-.77a24.31,24.31,0,0,1-4.16-.55c-.37-.08-.46.09-.33.43a10.12,10.12,0,0,0,2.81,4.18,3.91,3.91,0,0,0,1.84.83c.38.06.5-.07.49-.43C28,37.92,28,37.28,28,36.64Zm0-23.25h0v-2c0-.37-.18-.49-.52-.43a3.88,3.88,0,0,0-1.41.55A9.48,9.48,0,0,0,22.84,16c-.18.42.12.43.39.37a26.07,26.07,0,0,1,4.22-.55c.48,0,.6-.26.59-.7S28,14,28,13.39ZM42.82,30.17a6.21,6.21,0,0,0-1,4c.07,2.05,0,4.11,0,6.17,0,1.87,0,3.74,0,5.6,0,.5.15.74.66.64s.31-.45.31-.72c0-3.56,0-7.13,0-10.69C42.81,33.5,42.82,31.85,42.82,30.17Zm-18.5,8.2a20.6,20.6,0,0,1-1.78-2.76C22,34.5,22,34.5,21.07,35.36c-.39.37-.75.44-1.16,0s-.68-.63-1-1a.73.73,0,0,1-.05-1.08c.25-.33.85-.57.74-1s-.72-.42-1.11-.62a23.43,23.43,0,0,1-3.17-2A14,14,0,0,0,24.32,38.37Zm4.6,5.78c0-.64,0-1.28,0-1.91,0-.36-.09-.57-.5-.56-.68,0-1.36,0-2,0-.32,0-.46.14-.46.46v4c0,.35.16.49.5.49q1,0,2,0c.38,0,.53-.15.52-.53C28.91,45.42,28.92,44.78,28.92,44.15Zm5.52-10.77a26.82,26.82,0,0,1-5,.75.42.42,0,0,0-.45.48v4c0,.14,0,.3.18.36a1.49,1.49,0,0,0,1.68-1.17V36c0-.9.18-1.06,1.09-1.07.41,0,.81,0,1.21,0a.76.76,0,0,0,.83-.54C34.1,34.08,34.24,33.82,34.44,33.38ZM26.25,25.5H21.63c-.36,0-.41.21-.39.5a36.19,36.19,0,0,0,.38,3.61c0,.18,0,.41.25.53Zm9.38,3.05c-.29.07-.41.3-.56.46-.85.92-1.68,1.85-2.54,2.77-.52.56-.74.57-1.34.1-.36-.27-.69-.56-1.05-.83A4.07,4.07,0,0,0,29,30.28c0,.79,0,1.51,0,2.23,0,.45.17.6.6.58a23.4,23.4,0,0,0,4.78-.72.69.69,0,0,0,.59-.5A20.13,20.13,0,0,0,35.63,28.55ZM28,31.2h0c0-.49,0-1,0-1.46a.86.86,0,0,0-.6-.82c-.32-.17-.42.19-.58.36-.92,1-1.82,1.94-2.74,2.9-.29.3-.35.46.15.55a23.54,23.54,0,0,0,2.77.34c1,.06,1,0,1-1ZM12.37,18h0V16.52c0-1,0-1-1.05-1a2.26,2.26,0,0,1-.45,0c-.5-.11-.62.14-.62.59,0,1,0,2,0,3,0,1.56-.3,1.4,1.49,1.41h.13c.35,0,.49-.18.48-.52ZM40.8,16c0-2.4,0-4.6,0-6.8,0-.59-.26-.7-.77-.7s-.78.12-.76.71a28.49,28.49,0,0,1,0,3.81C39.1,14.36,39.9,15.07,40.8,16ZM15.24,17.57c.67-.88,1.26-1.77,2-2.55a.82.82,0,0,0,.22-.58,19.46,19.46,0,0,0-.06-2.29c0-.14,0-.36-.15-.38a5.12,5.12,0,0,0-1.83,0c-.16,0-.16.24-.16.39ZM20.32,9.8c0,.68,0,1.35,0,2,0,.32.07.42.41.25,1.72-.85,1.72-.84,1.72-2.78,0-.17,0-.34,0-.51,0-1.75.3-1.49-1.64-1.51-.35,0-.5.14-.5.49C20.33,8.44,20.33,9.12,20.32,9.8ZM19,27.54l-2.46-.33c-1.51-.19-3-.38-4.53-.59-.43-.06-.46.05-.31.43a1.53,1.53,0,0,0,1.38,1c1.35.13,2.69.3,4,.48C18.19,28.7,18.37,28.62,19,27.54ZM36.83,42.1h0c0-1.25,0-2.5,0-3.76,0-.2.11-.48-.11-.58s-.41.15-.61.26-.24.42-.24.68v7.24c0,.33,0,.65.46.65s.51-.33.51-.68C36.83,44.64,36.83,43.37,36.83,42.1ZM34.14,25.5c-1.61,0-3,0-4.48,0-.23,0-.54-.1-.64.24a.7.7,0,0,0,.28.79c.67.51,1.33,1,2,1.57.2.16.34.21.53,0C32.55,27.27,33.28,26.45,34.14,25.5ZM17,29.6a9.55,9.55,0,0,0,3.24,1.87.44.44,0,0,0,.6-.52c-.15-1.09-.37-2.18-.58-3.39C19.39,28.66,18.79,30.05,17,29.6Zm19.77-6.9c.58-.64,1-1.19,1.57-1.69s.31-.66-.12-.94-.67-.46-.46-.8c.36-.57-.05-.62-.37-.77l-.89-.37c-.33-.13-.52-.14-.4.33A23.66,23.66,0,0,1,36.78,22.7Zm0,11.87c0-.49,0-1,0-1.47,0-.15,0-.42-.21-.36-.4.09-.87.11-1.07.57s-.37.86-.55,1.29c0,.13-.15.34.09.35.87,0,.76.67.79,1.24,0,.23-.14.65.13.65a.86.86,0,0,0,.79-.62,1.22,1.22,0,0,0,0-.38Zm-19.76-8.3c-.29-1.35-.32-1.38-1.54-1.58l-.37-.07a1.49,1.49,0,0,0-1.34,1.08c0,.18.1.21.23.23Zm22.34-2,.09.16c.84,0,1.69,0,2.53,0,.59,0,.73-.38.49-.69a6.94,6.94,0,0,0-1.4-1.1s-.16.05-.21.1C40.4,23.26,39.91,23.78,39.41,24.28ZM19.1,25.49c-.23,0-.46,0-.69,0-.42,0-.45.17-.33.51a.66.66,0,0,0,.58.49c.42,0,.83.13,1.25.19.15,0,.28.05.34-.16.21-.61-.06-1-.7-1ZM36.43,11.24h0v-.38c0-.21,0-.48-.27-.5s-.79-.16-1.1.09a.59.59,0,0,0,0,.77A2.8,2.8,0,0,0,36.2,12c.15.08.22-.07.23-.21S36.43,11.4,36.43,11.24Z" transform="translate(-0.5 -0.83)"/><path class="cls-1" d="M10.57,31.66A4.43,4.43,0,0,1,15,36.15a4.54,4.54,0,0,1-4.51,4.5A4.52,4.52,0,0,1,6,36.15,4.47,4.47,0,0,1,10.57,31.66ZM7,36.19a3.46,3.46,0,0,0,3.47,3.49A3.57,3.57,0,0,0,14,36.12a3.48,3.48,0,0,0-3.53-3.5A3.44,3.44,0,0,0,7,36.19Z" transform="translate(-0.5 -0.83)"/><path class="cls-1" d="M18.33,40.21a4.43,4.43,0,0,1,4.42,4.54,4.43,4.43,0,1,1-8.86-.1A4.39,4.39,0,0,1,18.33,40.21Zm-.06,7.93a3.4,3.4,0,0,0,3.52-3.41,3.51,3.51,0,0,0-3.48-3.56,3.47,3.47,0,0,0-3.45,3.51A3.43,3.43,0,0,0,18.27,48.14Z" transform="translate(-0.5 -0.83)"/><path class="cls-1" d="M.5,26.62a4.42,4.42,0,0,1,4.34-4.36,4.39,4.39,0,0,1,0,8.78A4.44,4.44,0,0,1,.5,26.62Zm4.36-3.31a3.32,3.32,0,0,0-3.39,3.37A3.38,3.38,0,0,0,4.86,30a3.31,3.31,0,0,0,3.32-3.44A3.22,3.22,0,0,0,4.86,23.31Z" transform="translate(-0.5 -0.83)"/><path class="cls-1" d="M15,1.46a3.6,3.6,0,0,1,3.59,3.61A3.68,3.68,0,0,1,15,8.8a3.71,3.71,0,0,1-3.64-3.73A3.66,3.66,0,0,1,15,1.46ZM12.4,5.08A2.62,2.62,0,0,0,15,7.82a2.69,2.69,0,0,0,0-5.38A2.61,2.61,0,0,0,12.4,5.08Z" transform="translate(-0.5 -0.83)"/><path class="cls-1" d="M7.35,19.25l-1,1.7c-.17.29-.4.55-.76.33s-.25-.57-.06-.88l1.12-1.77-1,.14c-.31,0-.57-.06-.62-.39a.49.49,0,0,1,.42-.55c.64-.14,1.29-.28,1.93-.39a.64.64,0,0,1,.76.53c.17.66.31,1.32.45,2a.47.47,0,0,1-.32.61c-.35.08-.51-.15-.6-.43A2.24,2.24,0,0,0,7.35,19.25Z" transform="translate(-0.5 -0.83)"/><path class="cls-1" d="M24.43,3.14a2.81,2.81,0,0,0-.81-.07c-.29,0-.5-.17-.51-.47a.45.45,0,0,1,.48-.48c.7,0,1.4,0,2.1,0a.58.58,0,0,1,.6.61c0,.65,0,1.31,0,2,0,.3-.15.54-.49.54s-.49-.29-.5-.61,0-.5,0-.84a4.65,4.65,0,0,0-1,1c-.17.18-.34.38-.52.55s-.45.28-.69.07a.47.47,0,0,1,0-.69c.31-.37.65-.72,1-1.08C24.18,3.48,24.39,3.39,24.43,3.14Z" transform="translate(-0.5 -0.83)"/><path class="cls-1" d="M13.27,42.56a.48.48,0,0,1-.73.48,7.57,7.57,0,0,1-1.11-.94.45.45,0,0,1,0-.64.4.4,0,0,1,.62-.05C12.47,41.8,13,42.06,13.27,42.56Z" transform="translate(-0.5 -0.83)"/><path class="cls-1" d="M31.51,20.07h1.18c.28,0,.52.08.53.42S33,21,32.7,21a6.88,6.88,0,0,0-1.27.11h1.21c.31,0,.55.15.53.5s-.24.43-.52.43H31.54a1.22,1.22,0,0,0,1.65.58c.3-.1.64-.28.8.15s-.18.61-.49.76a2.45,2.45,0,0,1-2.92-.94c-.17-.24-.29-.52-.62-.59a.26.26,0,0,1-.11-.07c-.12-.1-.23-.31-.14-.38.51-.42-.4-1.1.27-1.44a2.16,2.16,0,0,0,.7-.71,2.44,2.44,0,0,1,2.84-.86c.28.12.59.25.47.64s-.42.39-.77.29A1.32,1.32,0,0,0,31.51,20.07Z" transform="translate(-0.5 -0.83)"/><path class="cls-1" d="M9.68,36.21c.45,0,.89,0,1.33,0,.27,0,.51.15.49.47s-.22.4-.47.43-.78.06-1.19.09a1.26,1.26,0,0,0,1.65.52c.28-.08.59-.3.75.12s-.11.63-.44.79A2.47,2.47,0,0,1,9,38c-.27-.33-.57-.67-.82-1s.05-1-.19-1.52c.67-.39,1-1.16,1.62-1.56a2.49,2.49,0,0,1,1.57-.4,1.7,1.7,0,0,1,.5.09c.33.11.68.26.54.7s-.45.32-.78.22a1.52,1.52,0,0,0-1.75.65H11c.3,0,.55.13.54.48s-.25.44-.52.45c-.44,0-.88,0-1.32,0Z" transform="translate(-0.5 -0.83)"/><path class="cls-1" d="M18.92,45.54c.3,0,.54,0,.78.05s.49.16.48.48a.41.41,0,0,1-.46.42c-.58,0-1,.09-1,.79,0,.19-.23.29-.45.27a.41.41,0,0,1-.39-.43c0-.53-.29-.63-.74-.61s-.65-.06-.66-.43.32-.49.66-.51l.66,0a1.44,1.44,0,0,0-.83-.15c-.25,0-.46-.11-.51-.38a.43.43,0,0,1,.36-.52c.54-.09.43-.32.2-.63s-.43-.63-.63-1-.27-.47,0-.68a.49.49,0,0,1,.73.12c.32.42.62.86.9,1.31s.38.34.59,0,.54-.81.82-1.21.44-.44.76-.25.22.51.05.77-.48.7-.72,1.05c-.14.2-.23.37.13.44s.54.21.49.55-.36.36-.65.38S19.14,45.31,18.92,45.54Z" transform="translate(-0.5 -0.83)"/><path class="cls-1" d="M4.77,29.57s-.13,0-.15-.05c-.33-.56-1-.83-1.21-1.5-.08-.27-.09-.52.21-.64a.48.48,0,0,1,.65.24,1.83,1.83,0,0,0,.14.28.49.49,0,0,0,.56.19.47.47,0,0,0,.09-.88c-.24-.12-.52-.19-.77-.3a1.4,1.4,0,0,1-.36-2.43,1.64,1.64,0,0,0,.47-.57c.19-.36.58-.4.76-.06a2.8,2.8,0,0,0,.72.77,1.18,1.18,0,0,1,.35.6c.08.29,0,.56-.28.67a.44.44,0,0,1-.61-.29c-.11-.27-.23-.52-.59-.45a.43.43,0,0,0-.35.46c0,.39.27.5.57.56a1.5,1.5,0,0,1,1.29,1.15,1.38,1.38,0,0,1-.7,1.57,1.06,1.06,0,0,0-.34.45A.45.45,0,0,1,4.77,29.57Z" transform="translate(-0.5 -0.83)"/><path class="cls-1" d="M16.23,4.1a.45.45,0,0,1-.32.49.42.42,0,0,1-.54-.21c-.1-.17-.15-.43-.44-.37a.27.27,0,0,0-.2.29c0,.31.27.34.49.41a1.29,1.29,0,0,1,1,1,1.14,1.14,0,0,1-.29,1,.75.75,0,0,1-.19.17c-.36.16-.31.92-.83.73s-.83-.74-1.15-1.21a.48.48,0,0,1,.11-.73c.3-.19.51,0,.69.23s.21.4.48.29a.28.28,0,0,0,.2-.3c0-.27-.25-.31-.44-.39C13.54,5,13.36,4.17,14.3,3.22a2.35,2.35,0,0,0,.24-.37.52.52,0,0,1,.6-.24A3.14,3.14,0,0,1,16.23,4.1Z" transform="translate(-0.5 -0.83)"/></svg>