<svg id="圖層_1" data-name="圖層 1" xmlns="http://www.w3.org/2000/svg" viewBox="0 0 49 47.58"><defs><style>.cls-1{fill:#213b7b;}</style></defs><path class="cls-1" d="M23.2,14.87c0,2.29,0,4.59,0,6.88a1,1,0,0,0,.61,1c.94.48,1.86,1,2.81,1.5a1,1,0,0,1,.61,1c0,1.36,0,2.72,0,4.08a.92.92,0,0,1-.52.91c-2.35,1.25-4.7,2.52-7,3.79-1.77,1-3.55,1.89-5.31,2.86a1.15,1.15,0,0,1-1.25,0L.89,30.31a1,1,0,0,1-.6-1q0-2.1,0-4.2a.91.91,0,0,1,.59-.91c1-.48,1.91-1,2.87-1.51a1,1,0,0,0,.58-.93c0-3.19,0-6.39,0-9.58,0-1.53,0-3.06,0-4.59A.91.91,0,0,1,4.66,7c.82-.81,1.63-1.64,2.46-2.45A7.41,7.41,0,0,1,9,3.44c1.42-.78,2.87-1.52,4.29-2.3a1,1,0,0,1,1,0c1.81,1,3.63,1.92,5.45,2.87a2.88,2.88,0,0,1,.72.52c.72.73,1.44,1.47,2.19,2.17A1.61,1.61,0,0,1,23.2,8c0,2.28,0,4.56,0,6.84ZM13.31,20.5h0c0-2.43,0-4.85,0-7.28a1,1,0,0,0-.61-1.05C10.36,11,8,9.69,5.7,8.43c-.32-.17-.47-.24-.48.26-.1,2.7,0,5.4,0,8.11,0,2.26,0,4.51,0,6.77a.78.78,0,0,0,.5.83c.59.28,1.16.6,1.73.92.31.18.49.3.49-.25,0-3.7,0-7.39,0-11.09v-.56c0-.26.1-.5.41-.49s.39.24.41.5a5.23,5.23,0,0,1,0,.56c0,3.79,0,7.57,0,11.36a1,1,0,0,0,.66,1.08c1.12.55,2.22,1.16,3.32,1.75.59.31.6.31.6-.35Zm.91,0h0c0,2.48,0,5,0,7.45,0,.42.09.54.5.31,1.19-.66,2.39-1.31,3.6-1.94a.76.76,0,0,0,.48-.78c0-1.12,0-2.24,0-3.36,0-2.88,0-5.75,0-8.63,0-.3,0-.66.43-.64s.4.34.4.63c0,.88.07,1.75.07,2.63,0,2.85,0,5.71,0,8.57,0,.8,0,.81.72.45.44-.23.87-.51,1.33-.71a.87.87,0,0,0,.55-.91c.1-2.6,0-5.19,0-7.78,0-2.32,0-4.63,0-6.95,0-.32,0-.64-.48-.38q-3.52,1.9-7.06,3.77a.92.92,0,0,0-.54.94C14.23,15.58,14.22,18,14.22,20.47ZM1.61,24.85l.23.14,11.45,6.23a.91.91,0,0,0,1,0c1.92-1.07,3.86-2.11,5.79-3.16l5.36-2.91c.12-.06.28-.09.3-.23s-.18-.21-.3-.28c-.58-.33-1.18-.65-1.76-1-.34-.2-.53-.17-.47.27A1.06,1.06,0,0,1,22.5,25q-4.07,2.13-8.09,4.33a1.18,1.18,0,0,1-1.29,0C10.51,28,7.91,26.54,5.28,25.17c-.61-.32-1.11-.6-1-1.4,0-.2,0-.37-.28-.23C3.26,24,2.48,24.38,1.61,24.85ZM18.94,4.66a1.75,1.75,0,0,0-.22-.18L14.09,2a.73.73,0,0,0-.78.08L9.06,4.34c-.13.06-.32.11-.33.26s.21.24.35.32l4.33,2.32a.69.69,0,0,0,.73,0c1-.55,2-1.08,3-1.61C17.72,5.3,18.31,5,18.94,4.66ZM13.31,9.85h0c0-.37,0-.74,0-1.11a.82.82,0,0,0-.53-.88C11.2,7,9.62,6.18,8.06,5.31a.48.48,0,0,0-.68.09c-.51.54-1,1.07-1.58,1.59-.29.27-.26.43.09.61.91.46,1.81,1,2.72,1.43l4.29,2.29c.32.18.43.13.41-.24S13.31,10.26,13.31,9.85Zm.91-.08c0,.41,0,.82,0,1.23s.13.47.47.29q3.48-1.86,7-3.71c.31-.16.33-.29.08-.52-.5-.48-1-1-1.47-1.47a.71.71,0,0,0-1-.15c-1.16.65-2.3,1.32-3.5,1.87S13.8,8.37,14.22,9.77Zm-.91,23c.15-.46-.2-.72-.66-1-2.52-1.36-5-2.74-7.56-4.11L1.61,25.8c-.33-.18-.43-.12-.48.27A1.29,1.29,0,0,0,2,27.51c3.59,1.9,7.15,3.86,10.72,5.79C13.3,33.64,13.31,33.64,13.31,32.78Zm0,2.4c.12-.42-.15-.69-.6-.94q-4.32-2.3-8.62-4.63c-.83-.45-1.66-.92-2.5-1.37-.15-.08-.33-.25-.43.07a1.2,1.2,0,0,0,.63,1.52l10.83,5.83C13.31,36,13.31,36,13.31,35.18Zm.92,0c0,.84,0,.86.5.6,3.64-2,7.28-3.94,10.93-5.88a1.12,1.12,0,0,0,.67-1.2c0-.61,0-.63-.59-.34l-10.92,5.9C14.39,34.48,14.12,34.74,14.23,35.17Zm12.09-8.71c0-.86,0-.86-.7-.49-.25.13-.49.27-.73.41-3.35,1.81-6.68,3.64-10,5.44a1.06,1.06,0,0,0-.64,1.11c0,.67,0,.68.63.35,3.65-2,7.31-4,11-5.93A.81.81,0,0,0,26.32,26.46Z" transform="translate(-0.29 -0.99)"/><path class="cls-1" d="M24.8,48.57H15c-.83,0-.94-.11-.95-.93v-9a2.11,2.11,0,0,1,0-.5.49.49,0,0,1,.54-.39c.28,0,.27.27.3.47a.91.91,0,0,1,0,.17c0,1.18-.1,1.1,1.13,1.1h1.12c.39,0,.53-.15.52-.53,0-.77-.05-1.53-.05-2.3,0-.39.22-.62.51-.91.87-.87,1.93-.74,3-.73s.92,0,.94-.9a1.67,1.67,0,0,1,0-.39.58.58,0,0,1,.65-.41c.29,0,.21.31.22.5C23,35,23,35,24.16,35a12.05,12.05,0,0,0,1.9,0,.45.45,0,0,0,.48-.54c0-.54,0-1.08,0-1.62s-.17-.67-.66-.64c-.23,0-.62.16-.69-.15s.34-.34.55-.48a1.32,1.32,0,0,1,.8-.19h8.23c.66,0,.83.15.83.82q0,7.81,0,15.62c0,.61-.14.73-.84.73h-10ZM23,37.65V39c0,.32.12.49.46.49h2.63c.36,0,.49-.17.49-.52,0-.84,0-1.67,0-2.51,0-.38-.13-.56-.52-.54s-.9,0-1.34,0C23,35.91,23,35.91,23,37.65Zm6.29,1.82h1.29c.32,0,.48-.13.48-.47,0-.87,0-1.75,0-2.63,0-.32-.14-.47-.47-.47H27.92c-.33,0-.48.14-.48.47,0,.88,0,1.75,0,2.63,0,.33.14.48.47.48Zm-4.49.92H23.48c-.35,0-.53.12-.52.49,0,.87,0,1.75,0,2.63,0,.33.16.46.48.46h2.63c.33,0,.47-.15.47-.48,0-.87,0-1.75,0-2.63,0-.34-.16-.47-.48-.46Zm4.51,0H27.92c-.32,0-.48.13-.48.46,0,.88,0,1.76,0,2.63,0,.33.13.49.47.49h2.63c.32,0,.48-.13.48-.46q0-1.32,0-2.64c0-.32-.13-.48-.47-.47Zm-9,0H18.93a.38.38,0,0,0-.44.44v2.69c0,.29.12.45.43.45H21.6c.3,0,.45-.13.45-.44,0-.89,0-1.79,0-2.68,0-.35-.18-.46-.49-.45ZM22,37.7V36.36c0-.3-.12-.45-.43-.44H18.93c-.3,0-.44.13-.44.43V39a.38.38,0,0,0,.43.45H21.6c.34,0,.45-.18.44-.5Zm-1.92,10c.55,0,1,0,1.44,0s.5-.15.49-.51c0-.61,0-1.23,0-1.84,0-.39-.16-.53-.53-.52-.62,0-1.23,0-1.85,0-1.31,0-1.18-.13-1.18,1.16,0,.53-.22,1.21.12,1.57S19.67,47.66,20.12,47.73Zm4.61,0h1.33c.33,0,.48-.12.48-.46q0-.95,0-1.89c0-.35-.13-.52-.49-.51-.87,0-1.75,0-2.62,0-.33,0-.47.14-.47.47v1.95c0,.35.17.46.48.45S24.3,47.73,24.73,47.73Zm4.48,0H30.6c.28,0,.41-.13.41-.4,0-.67,0-1.34,0-2,0-.3-.13-.45-.43-.45H27.91c-.33,0-.47.14-.47.47q0,1,0,1.95c0,.34.17.46.49.45S28.78,47.73,29.21,47.73Zm5.57-10c0-.43,0-.86,0-1.28s-.14-.55-.52-.54c-.62,0-1.23,0-1.85,0-.36,0-.5.15-.5.51,0,.85,0,1.71,0,2.57,0,.35.14.51.5.5h1.9c.32,0,.48-.12.47-.46S34.78,38.16,34.78,37.73Zm-2.86,4.45c0,.44,0,.89,0,1.34a.39.39,0,0,0,.44.45h2c.25,0,.35-.1.37-.36,0-.92,0-1.83,0-2.74,0-.32-.15-.47-.48-.47-.61,0-1.22,0-1.84,0-.36,0-.5.17-.49.51S31.92,41.75,31.92,42.18Zm-2.69-10H27.89c-.3,0-.45.12-.45.43,0,.63,0,1.26,0,1.89a.39.39,0,0,0,.43.46l2.56.06c.38,0,.59-.15.58-.57,0-.59,0-1.19,0-1.78,0-.37-.16-.5-.51-.49S29.66,32.23,29.23,32.23Zm-11.58,10h0c0-.45,0-.89,0-1.34s-.12-.48-.46-.47H15.36c-.29,0-.46.11-.46.42v2.73c0,.32.17.42.46.42H17.2c.34,0,.46-.15.45-.48S17.65,42.63,17.65,42.2Zm17.14-8.57c0-1.39,0-1.39-1.39-1.39h-.06c-1.42,0-1.43,0-1.42,1.41,0,1.65-.18,1.4,1.43,1.42C34.79,35.09,34.79,35.08,34.79,33.63Zm-.06,12.63v-.11c0-1.27,0-1.27-1.28-1.28-1.54,0-1.55,0-1.54,1.53s-.18,1.32,1.34,1.33S34.73,47.74,34.73,46.26Zm-17.07.06c0-.3,0-.6,0-.9s-.14-.57-.55-.56-1.08,0-1.62,0-.63.13-.6.57,0,.63,0,1c0,1.36,0,1.36,1.36,1.36S17.65,47.74,17.66,46.32Z" transform="translate(-0.29 -0.99)"/><path class="cls-1" d="M28.42,16V2.63c0-.86.06-.93.92-.93h5c.76,0,.91.13.91.86q0,13.47,0,26.93c0,.76-.16.91-.93.91q-2.49,0-5,0c-.82,0-.93-.12-.93-.95V16Zm5.95-7.57V3.12c0-.3,0-.57-.42-.57H29.69c-.31,0-.43.16-.42.46,0,.74,0,1.49,0,2.23,0,.35.14.52.5.51s.71,0,1.06,0a.4.4,0,0,1,.41.44c0,.26-.19.36-.42.36s-.74,0-1.12,0c-.22,0-.41,0-.42.33s.05.48.38.51.82-.09.81.44-.51.38-.84.4-.35.2-.35.45,0,.45.34.45l1.11.05c.28,0,.49.12.48.43S31,10,30.73,10l-1.12,0c-.27,0-.35.16-.34.4s.05.42.32.44a3.39,3.39,0,0,1,.45,0c.25,0,.43.14.42.42s-.17.36-.4.38l-.28,0c-.24,0-.51,0-.48.35s.14.53.51.51a8.36,8.36,0,0,1,1,0,.38.38,0,0,1,.37.42c0,.26-.18.36-.41.36s-.7,0-1.06,0-.37.14-.37.39.06.44.36.45h.23c.28,0,.54.12.52.45s-.27.37-.52.38H29.7c-.31,0-.43.14-.43.44s.18.41.46.41.67,0,1,0,.48.14.46.45-.23.36-.48.36H29.6c-.27,0-.33.2-.33.43s.07.4.34.41a2.74,2.74,0,0,1,.5,0,.41.41,0,0,1,.35.44.42.42,0,0,1-.35.39,1.33,1.33,0,0,1-.28,0c-.27,0-.49.06-.48.4s.26.39.54.4.56,0,.83,0,.46.1.46.39-.22.41-.48.43-.6,0-.89,0-.45.06-.46.36.14.41.41.41a1.24,1.24,0,0,1,.33,0,.42.42,0,0,1,0,.83,1.32,1.32,0,0,1-.34,0c-.29,0-.51,0-.51.42s.25.45.56.44.56,0,.84,0,.55.08.55.42-.29.4-.56.41-.45,0-.68,0-.67-.15-.71.38.35.47.68.47l.16,0a.39.39,0,0,1,.36.37.37.37,0,0,1-.36.42,1.28,1.28,0,0,1-.39,0c-.31,0-.45.11-.45.43s.14.45.44.44.45,0,.67,0,.83-.06.83.43-.5.42-.85.45-.49,0-.73,0-.36.2-.35.46.1.38.37.37a2.05,2.05,0,0,1,.55.05.36.36,0,0,1,.31.35.39.39,0,0,1-.3.41,1.74,1.74,0,0,1-.39.05c-.25,0-.45,0-.46.35s.19.4.47.4h4.09c.48,0,.46-.32.47-.65s-.07-.57-.49-.57-.83.12-.84-.38.52-.4.86-.42.46-.11.46-.43,0-.54-.36-.57-.58-.1-.6-.46.31-.38.56-.41.41-.31.41-.61-.22-.42-.52-.42a6,6,0,0,1-.73,0c-.24,0-.43-.17-.4-.45s.22-.32.44-.33h.62c.29,0,.58,0,.59-.4s0-.68-.51-.66a.41.41,0,0,1-.45-.4.4.4,0,0,1,.45-.4c.49,0,.51-.3.51-.67s-.33-.41-.63-.42a4.34,4.34,0,0,1-.51,0c-.22,0-.41-.12-.41-.37a.41.41,0,0,1,.39-.41c.2,0,.41,0,.61,0a.53.53,0,0,0,.52-.79c-.12-.27-.38-.19-.59-.24s-.38-.18-.38-.42.18-.36.41-.36.58-.07.59-.49-.12-.62-.55-.64a.38.38,0,0,1-.39-.4.35.35,0,0,1,.4-.37c.47,0,.55-.24.54-.64s-.34-.44-.66-.46-.88.12-.89-.41.54-.41.88-.39c.51,0,.68-.16.67-.68C34.36,12,34.37,10.19,34.37,8.44Z" transform="translate(-0.29 -0.99)"/><path class="cls-1" d="M42.54,17.39c-.7,0-.65-.51-.65-1,0-.76,0-1.53,0-2.29,0-.51.21-.61,1.15-.61s1.07.11,1.09.62c0,.71,0,1.42,0,2.12,0,.53.14,1.15-.71,1.16.13.28.35.24.51.3a2.74,2.74,0,0,1,1.35,4.07.82.82,0,0,0-.15.73q.68,2.63,1.32,5.26a.49.49,0,0,0,.56.41,4.48,4.48,0,0,1,.73,0,.4.4,0,0,1,.36.43c0,.24-.17.35-.38.41s-.69-.15-.8.2.08.58.15.87c.18.74.37,1.48.56,2.22.05.19.06.43.32.47s.29-.2.35-.39a.38.38,0,0,1,.42-.3.43.43,0,0,1,.44.42c0,.5,0,1,0,1.51a.36.36,0,0,1-.34.38.49.49,0,0,1-.48-.23c-.1-.14,0-.38-.23-.47-.18.08-.09.23-.08.34a1.27,1.27,0,0,1-.4,1.17,1,1,0,0,0-.28,1.28c0,.07,0,.15.07.22.09.31.13.63-.25.74s-.49-.24-.58-.52c-.73-2.42-1.29-4.87-1.94-7.3-.07-.27-.08-.57-.47-.6-.79,0-.89.08-.83.67,0,.29,0,.61-.41.61s-.41-.31-.42-.6.09-.66-.42-.69-.77,0-.91.57c-.59,2.37-1.22,4.73-1.83,7.1a4.5,4.5,0,0,1-.21.58.34.34,0,0,1-.46.2c-.2-.07-.35-.25-.27-.43a1.9,1.9,0,0,0-.46-2.24c-.28-.31-.14-.78,0-1.19.34-1.34.66-2.68,1-4,.11-.41.05-.61-.42-.58a1,1,0,0,1-.49-.07.38.38,0,0,1,.06-.73h.11c1.16-.18,1.15-.18,1.44-1.3.36-1.45.73-2.89,1.11-4.34a.93.93,0,0,0-.11-.79,2.72,2.72,0,0,1,1.38-4.13C42.27,17.63,42.48,17.66,42.54,17.39ZM38.79,34.11c0,.3,0,.54.25.55s.18-.25.22-.4c.84-3.25,1.66-6.5,2.49-9.75.11-.41.22-.83.32-1.24,0-.19.12-.39-.15-.45s-.27.17-.33.34a1.66,1.66,0,0,0-.06.21c-.66,2.62-1.33,5.24-2,7.86C39.28,32.22,39,33.21,38.79,34.11Zm4.33-15.69a1.86,1.86,0,0,0-2,1.87,1.94,1.94,0,0,0,3.87,0A1.89,1.89,0,0,0,43.12,18.42ZM43,23.26c-.48,1.53-.79,3.09-1.19,4.63,0,.2.08.25.25.27.54.08.63-.23.61-.67,0-.23,0-.45.31-.52a.35.35,0,0,1,.46.21,1.35,1.35,0,0,1,.06.49c0,.36.14.52.5.49s.33-.31.27-.57c-.33-1.3-.65-2.6-1-3.9C43.23,23.54,43.24,23.35,43,23.26Zm4,11.53c.47-.29.33-.63.25-.95q-1.26-5-2.53-9.91c-.07-.29-.14-.58-.23-.87a.24.24,0,0,0-.3-.19c-.16,0-.17.17-.14.31a1.27,1.27,0,0,0,.06.28c.54,2.11,1.07,4.23,1.61,6.34ZM43.32,15.48h0c0-.27,0-.55,0-.83a.23.23,0,0,0-.27-.22.23.23,0,0,0-.23.21c0,.54,0,1.07,0,1.61a.22.22,0,0,0,.26.22.25.25,0,0,0,.24-.26Z" transform="translate(-0.29 -0.99)"/><path class="cls-1" d="M32,5.33a1,1,0,0,1-1-1.06,1.16,1.16,0,0,1,1.13-1.09A1.08,1.08,0,0,1,32,5.33Z" transform="translate(-0.29 -0.99)"/><path class="cls-1" d="M43.07,19a1.28,1.28,0,0,1,1.31,1.3A1.32,1.32,0,1,1,43.07,19Z" transform="translate(-0.29 -0.99)"/></svg>