<svg id="圖層_1" data-name="圖層 1" xmlns="http://www.w3.org/2000/svg" viewBox="0 0 44.88 49"><defs><style>.cls-1{fill:#213b7b;}</style></defs><path class="cls-1" d="M9.8,19.37l2.51-2.31,1.58-1.47c.16-.16.32-.33.58-.23a.57.57,0,0,1,.32.59c0,1,0,1.92,0,2.88,0,.13,0,.26,0,.41.25,0,.32-.22.47-.32a.43.43,0,0,1,.6,0,.39.39,0,0,1,0,.56,7.68,7.68,0,0,1-1.37,1.24c-.32.21-.59,0-.6-.46,0-1,0-1.89,0-2.83v-.62a2.42,2.42,0,0,0-.74.55l-3.3,3.09c-.2.18-.39.43-.71.28s-.26-.45-.26-.72c0-1,0-2.08,0-3.26L7.54,18c-.86.79-1.71,1.58-2.58,2.36a.89.89,0,0,0-.31.72q0,5,0,10c0,.43.15.56.56.55,1.6,0,1.33.21,1.35-1.31,0-1,0-1.95,0-2.93,0-.56.14-.7.7-.7H9.89c.58,0,.71.14.71.75,0,1.21,0,2.43,0,3.64,0,.43.14.57.56.56,1.75,0,3.5,0,5.24,0,.41,0,.54-.14.53-.54,0-.7,0-1.4,0-2.11a.55.55,0,0,1,.54-.62A20.09,20.09,0,0,0,24.15,26a1.33,1.33,0,0,1,1.6,0,2.1,2.1,0,0,0,1.37.34q8.6,0,17.2,0a3,3,0,0,1,3.07,2.5,3.09,3.09,0,0,1-3.11,3.61H33.8c-.82,0-.83,0-.81.81a11.32,11.32,0,0,1-.47,4,8.54,8.54,0,0,1-1.37,2.4c-.15.2-.22.33,0,.55a2.82,2.82,0,0,1,.09,2.31c-.23.32-.59.32-.92.37a.85.85,0,0,0-.6,1.39c.5.74.49.85-.14,1.48l-.37.36c-.68.66-.82.67-1.56.12a1,1,0,0,0-1.47.56c0,.15-.05.31-.08.46a.67.67,0,0,1-.71.6H24.31c-.67,0-.91-.14-1-.79s-.53-.8-1-1c-.24-.09-.38.11-.53.23-.64.47-.84.46-1.41-.09l-.66-.65c-.45-.45-.49-.65-.1-1.14a.87.87,0,0,0,.14-1.07.7.7,0,0,0-.6-.45c-1-.13-1.11-.29-1.11-1.29V40.8a.66.66,0,0,1,.43-.69c.45-.14.29-.33.11-.58A8,8,0,0,1,17,35.7a16.36,16.36,0,0,1,0-2.62c0-.49-.15-.64-.65-.63H3.56a4.28,4.28,0,0,1-.62,0A.39.39,0,0,1,2.56,32c0-.24.17-.35.39-.41s.65.14.79-.2a2.45,2.45,0,0,0,0-.86c0-3.2,0-6.41,0-9.61a1.28,1.28,0,0,1,.44-1C5.79,18.48,7.34,17,8.89,15.58c.18-.17.36-.33.63-.21s.28.37.28.61ZM32.12,32.75c0-1.19,0-2.15,0-3.11a.43.43,0,0,0-.41-.52,21.71,21.71,0,0,1-6.18-2.29,1.13,1.13,0,0,0-1.19,0,20.84,20.84,0,0,1-6,2.21c-.43.07-.56.26-.55.68,0,1.66,0,3.32,0,5A6.48,6.48,0,0,0,19,38.49a17.48,17.48,0,0,0,5.72,5,.58.58,0,0,0,.62-.06A18.66,18.66,0,0,0,29,40.75a9.3,9.3,0,0,0,2.82-4.1A19.5,19.5,0,0,0,32.12,32.75Zm-3.45-5.56a10.07,10.07,0,0,0,2.89,1,1.56,1.56,0,0,0,1.36-.16A1.18,1.18,0,0,1,34.06,28,1.49,1.49,0,0,1,35,29.64a1.54,1.54,0,0,1-1.58,1.26c-.21,0-.42-.07-.43.26s.11.45.42.44c.15,0,.31,0,.46,0h6.57c1.34,0,2.67,0,4,0a2.19,2.19,0,0,0,1.11-4,2.3,2.3,0,0,0-1.33-.33H28.67Zm1.91,14.23c0-.2.09-.47-.19-.58s-.39.11-.55.26-.54.48-.8.73c-.73.69-1.58,1.23-2.34,1.91a3,3,0,0,1-4.69-.8,1.4,1.4,0,0,0-.3-.41,18.82,18.82,0,0,1-1.9-1.66c-.24-.24-.49-.13-.7,0s-.18.55-.19.84a.33.33,0,0,0,.39.37,1.09,1.09,0,0,1,1.22,1,1.85,1.85,0,0,0,.22.52.7.7,0,0,1-.05.77c-.44.68-.42.68.2,1.22.17.14.32.21.48,0A1.1,1.1,0,0,1,23,45.45a.83.83,0,0,0,.34.13.83.83,0,0,1,.72.86c0,.44.23.58.66.58s.67-.08.68-.54a.89.89,0,0,1,.82-.94,1.05,1.05,0,0,0,.42-.18.92.92,0,0,1,1.33.12c.42.42.63,0,.92-.2s.23-.51,0-.77a.92.92,0,0,1-.11-1.25,1.28,1.28,0,0,0,.16-.38.89.89,0,0,1,1.06-.8C30.48,42.1,30.66,41.88,30.58,41.42ZM7.43,29.53c0,.53,0,1.06,0,1.59,0,.36.14.49.49.47s.92,0,1.38,0,.46-.12.46-.45q0-1.59,0-3.18c0-.29-.1-.45-.41-.45H7.85c-.3,0-.43.13-.43.43C7.44,28.47,7.43,29,7.43,29.53ZM33,29.4c0,.37.11.64.53.64a.65.65,0,0,0,0-1.29C33.1,28.74,33,29,33,29.4Z" transform="translate(-2.56 -0.5)"/><path class="cls-1" d="M22.39,17.71c-.08-1.07-.15-2-.23-2.9-.12-1.52-.27-3-.37-4.55,0-.42-.21-.51-.58-.5-1,0-1.92,0-2.88,0-.46,0-.6.19-.63.6-.06,1-.14,1.91-.21,2.86,0,.1,0,.21,0,.31s-.19.42-.45.4a.41.41,0,0,1-.39-.47c0-.68.08-1.36.13-2,.09-1.25.2-2.49.28-3.74,0-.66.2-.82.85-.77,1.18.08,2.36-.05,3.54,0,.87,0,.95.06,1,.89.21,2.4.39,4.81.59,7.21.07.87.14,1.74.22,2.64.23,0,.31-.21.43-.34L34.38,5.07c.19-.21.36-.42.54-.63a.57.57,0,0,1,.93-.08q1.41,1.35,2.79,2.73c.32.31.14.58-.09.84Q36.72,10,34.88,12.09,29.65,18,24.39,24c-.34.38-.69.76-1,1.15a.54.54,0,0,1-.91,0q-3.52-3.69-7.06-7.39c-.46-.48-.44-.64,0-1.11.81-.84,1.61-1.68,2.43-2.5.49-.5.67-.49,1.14,0l3.12,3.28C22.15,17.5,22.22,17.55,22.39,17.71Zm-4-2.86-.14.11c-.66.68-1.31,1.36-2,2-.16.16-.13.29,0,.43s.24.29.37.42q2.88,3,5.76,6c.53.56.52.55,1,0l8.85-10.06c1.74-2,3.48-4,5.24-5.91.25-.29.25-.46,0-.72-.58-.53-1.14-1.09-1.68-1.66-.25-.26-.41-.26-.65,0-1.3,1.51-2.61,3-3.92,4.49l-7.78,8.87c-.53.59-.63.59-1.17,0l-3.55-3.72C18.64,15,18.56,14.87,18.36,14.85ZM19.71,8.9h1.48c.24,0,.48,0,.46-.34s.08-.72-.34-.75a13,13,0,0,0-3.12,0c-.5.08-.27.56-.32.85s.22.25.4.25Z" transform="translate(-2.56 -0.5)"/><path class="cls-1" d="M31.89,43.4a3.54,3.54,0,0,1-.33.14.37.37,0,0,1-.48-.18.37.37,0,0,1,.09-.51c.42-.32.83-.65,1.28-.94.28-.19.53-.06.67.23s.31.69.46,1,.27.57-.08.76-.49-.08-.66-.32c-.17.12-.17.32-.23.49a8.41,8.41,0,0,1-10.5,5c-.32-.1-.82-.16-.67-.65s.61-.26.95-.14a7.56,7.56,0,0,0,9.5-4.69A1.05,1.05,0,0,0,31.89,43.4Z" transform="translate(-2.56 -0.5)"/><path class="cls-1" d="M24.25,4.78c.62,0,1.23,0,1.85,0A2.11,2.11,0,0,0,28.27,3a.68.68,0,0,1,.8-.64c.71,0,1.41,0,2.11,0A1.7,1.7,0,0,0,33,.93c.08-.27.21-.5.53-.41s.35.34.31.62a2.62,2.62,0,0,1-2.52,2c-.56,0-1.13,0-1.69,0a.54.54,0,0,0-.61.41,3,3,0,0,1-3,2.05c-1.08,0-2.16,0-3.23,0a1.32,1.32,0,0,0-1.35.64.36.36,0,0,1-.53.16c-.25-.12-.26-.34-.18-.57A1.79,1.79,0,0,1,22.3,4.78c.32,0,.65,0,1,0h1Z" transform="translate(-2.56 -0.5)"/><path class="cls-1" d="M41.28,25.78H39.53a.53.53,0,0,1-.62-.62V22.44c0-.41.2-.59.59-.6H43a.55.55,0,0,1,.61.61q0,1.38,0,2.76c0,.4-.23.58-.63.57H41.28Zm.09-3.08c-1.61,0-1.61,0-1.6,1.53v.16c0,.39.12.56.53.54.56,0,1.12,0,1.69,0,.75,0,.78,0,.77-.77,0-.46.13-1.06-.1-1.34S41.76,22.76,41.37,22.7Z" transform="translate(-2.56 -0.5)"/><path class="cls-1" d="M35.69,25.78c-.58,0-1.16,0-1.74,0s-.66-.21-.66-.65V22.46a.55.55,0,0,1,.63-.62c1.16,0,2.33,0,3.49,0a.55.55,0,0,1,.63.63c0,.91,0,1.81,0,2.72,0,.41-.2.59-.6.59Zm0-3.08h0c-.36,0-.72,0-1.08,0s-.48.15-.46.49,0,.86,0,1.28.1.47.44.47h2.15c.33,0,.45-.15.44-.47s0-.89,0-1.33-.11-.44-.42-.43S36,22.7,35.68,22.7Z" transform="translate(-2.56 -0.5)"/><path class="cls-1" d="M30.08,25.78H28.34c-.42,0-.63-.19-.63-.62V22.44c0-.41.21-.59.6-.59H31.8a.58.58,0,0,1,.67.65c0,.89,0,1.78,0,2.67,0,.41-.2.62-.64.62s-1.16,0-1.74,0Zm.05-3.08c-.38,0-.75,0-1.13,0s-.44.12-.43.42,0,.89,0,1.34.15.48.5.47h1.79c.76,0,.76,0,.76-.76C31.61,22.7,31.61,22.7,30.13,22.7Z" transform="translate(-2.56 -0.5)"/><path class="cls-1" d="M23,2.31c.32,0,.65,0,1,0a1.39,1.39,0,0,0,1.31-1c.08-.27.22-.5.54-.41s.35.41.25.72a2.51,2.51,0,0,1-2.33,1.55,15.46,15.46,0,0,0-2.15.08,2.52,2.52,0,0,0-2.24,2.36.31.31,0,0,1,0,.1c0,.28-.13.54-.46.5s-.4-.29-.39-.58A3.2,3.2,0,0,1,19.94,3,4.84,4.84,0,0,1,23,2.31Z" transform="translate(-2.56 -0.5)"/><path class="cls-1" d="M13.41,24c-.13,0-.27,0-.4,0a.39.39,0,0,1-.34-.39.37.37,0,0,1,.33-.39,3.35,3.35,0,0,1,.71,0c.27,0,.52.1.51.43s-.25.37-.5.4-.21,0-.31,0Z" transform="translate(-2.56 -0.5)"/><path class="cls-1" d="M7.12,24a2.69,2.69,0,0,1-.4,0c-.22,0-.4-.15-.39-.4a.41.41,0,0,1,.4-.4,3.61,3.61,0,0,1,.66,0c.28,0,.52.13.51.45s-.26.38-.52.39a2.09,2.09,0,0,1-.25,0Z" transform="translate(-2.56 -0.5)"/><path class="cls-1" d="M16.63,24a1.89,1.89,0,0,1-.41,0,.38.38,0,0,1-.35-.42.37.37,0,0,1,.34-.38,5.56,5.56,0,0,1,.71,0c.25,0,.48.11.49.41s-.23.39-.48.43-.2,0-.3,0Z" transform="translate(-2.56 -0.5)"/><path class="cls-1" d="M10.27,23.16a2.78,2.78,0,0,1,.49.08.37.37,0,0,1,.27.39.34.34,0,0,1-.31.35A3.35,3.35,0,0,1,10,24c-.26,0-.48-.12-.48-.42s.22-.39.48-.41h.25Z" transform="translate(-2.56 -0.5)"/><path class="cls-1" d="M23.5,34.73a3.72,3.72,0,0,1,.31-1.65,1.5,1.5,0,0,1,1.39-1,1.46,1.46,0,0,1,1.45.88,4.22,4.22,0,0,1,0,3.67,1.51,1.51,0,0,1-2.72.09A3.61,3.61,0,0,1,23.5,34.73Zm2.57.09a3.61,3.61,0,0,0-.18-1.31.67.67,0,0,0-.67-.53.59.59,0,0,0-.55.52,5,5,0,0,0,0,2.72.59.59,0,0,0,.59.49.6.6,0,0,0,.58-.48A4.55,4.55,0,0,0,26.07,34.82Z" transform="translate(-2.56 -0.5)"/><path class="cls-1" d="M21.25,32.11a1.55,1.55,0,0,1,1.46.86,1.3,1.3,0,0,1-.39,1.62c-.17.14-.07.2.05.3a1.37,1.37,0,0,1,.52,1.67,1.66,1.66,0,0,1-1.59,1,2.44,2.44,0,0,1-1.54-.45c-.23-.15-.4-.31-.18-.62s.36-.38.65-.12a1.29,1.29,0,0,0,1,.32.7.7,0,0,0,.72-.61.71.71,0,0,0-.48-.81,1.69,1.69,0,0,0-.59-.13c-.23,0-.35-.11-.36-.35s.07-.39.33-.43a2,2,0,0,0,.49-.12.66.66,0,0,0,.4-.84c-.1-.36-.39-.44-.73-.43a1.22,1.22,0,0,0-.66.25c-.3.24-.45,0-.62-.17s0-.41.17-.54A2.12,2.12,0,0,1,21.25,32.11Z" transform="translate(-2.56 -0.5)"/><path class="cls-1" d="M31,34.93c0,.17-.09.3-.33.31a3.53,3.53,0,0,1-.46,0c-.43,0-.59.15-.55.56a2.36,2.36,0,0,1,0,.46c0,.24-.17.31-.38.31s-.36-.09-.37-.33v-.05c-.09-.85-.09-.86-1-.95-.25,0-.37-.13-.37-.38s.12-.38.37-.38h.26c.68,0,.69,0,.7-.7,0-.29,0-.56.43-.55s.34.31.35.56c0,.68,0,.68.71.7C30.61,34.49,31,34.41,31,34.93Z" transform="translate(-2.56 -0.5)"/><path class="cls-1" d="M42.51,29.42A1.47,1.47,0,0,1,44,27.89a1.5,1.5,0,0,1,1.53,1.47A1.55,1.55,0,0,1,44,30.9,1.5,1.5,0,0,1,42.51,29.42Zm2.15,0a.62.62,0,0,0-.63-.63.59.59,0,0,0-.66.62A.6.6,0,0,0,44,30C44.41,30,44.58,29.75,44.66,29.39Z" transform="translate(-2.56 -0.5)"/><path class="cls-1" d="M40.29,29.44a1.52,1.52,0,0,1-1.54,1.46,1.57,1.57,0,0,1-1.47-1.56,1.51,1.51,0,0,1,3,.1Zm-.86,0a.64.64,0,1,0-1.28-.06.64.64,0,0,0,1.28.06Z" transform="translate(-2.56 -0.5)"/></svg>