<svg id="圖層_1" data-name="圖層 1" xmlns="http://www.w3.org/2000/svg" viewBox="0 0 43.07 49"><defs><style>.cls-1{fill:#213b7b;}</style></defs><path class="cls-1" d="M10.14,4.43a.62.62,0,0,0,.46-.08.67.67,0,0,1,1,.33.84.84,0,0,0,1.5.1.78.78,0,0,1,1.12-.18c.19.1.43.38.63.11s.48-.43.42-.85a1.1,1.1,0,0,1,1.19-1.33.82.82,0,0,0,.82-.9A1.16,1.16,0,0,1,18.48.51a.61.61,0,0,1,.43.32c.41.53.92.57,1.31,0s.71-.31,1.12-.16.67.36.61.85c-.08.67.28,1,.93.92.47-.08.68.16.82.54s.4.76-.08,1.14-.51.89,0,1.3.23.71.11,1.09-.3.65-.77.63c-.72,0-1,.28-.95,1a.62.62,0,0,1-.45.77c-.39.13-.76.51-1.19,0a.82.82,0,0,0-1.27-.15,4.53,4.53,0,0,1,1.47,1.07.57.57,0,0,0,.7.12l.16-.05c1.16-.17,2-.69,2-2a.55.55,0,0,1,.61-.46h1.77a.63.63,0,0,1,.68.6,1.81,1.81,0,0,0,1.73,1.81,1.3,1.3,0,0,0,1.36-.28c.95-.91,1-.87,2.05-.14,1.28.87,1.27.56.75,2.18-.07.21-.27.46-.11.63s.44,0,.66-.09a2.47,2.47,0,0,0,.45-.18c-.64-.34-.55-.9-.52-1.42,0-.31.28-.4.54-.49.62-.23.78-.64.37-1.13s0-.91.21-1.32.58-.37,1-.22a.6.6,0,0,0,.87-.63c0-.59.22-.81.73-1a.83.83,0,0,1,1.13.34.62.62,0,0,0,1.09,0c.23-.37.47-.59.94-.42s1,.28,1,1,.39.84.92.6.74,0,1,.37.57.72.14,1.21-.27.89.35,1.06.6.45.6.91,0,.82-.57,1-.74.56-.33,1.08.09.79-.16,1.17a.72.72,0,0,1-1,.38c-.63-.21-1,.11-1,.77a.62.62,0,0,1-.53.76c-.42.1-.84.47-1.22-.12s-.89-.59-1.29,0a.59.59,0,0,1-.81.24c-.38-.17-.94-.12-.92-.77a1.29,1.29,0,0,0,0-.44.41.41,0,0,0-.74-.17,4.71,4.71,0,0,1-.36.42c-.34.32-.28.64-.19,1.08a2,2,0,0,0,2,1.87c.35,0,.52.3.51.67,0,.54,0,1.08,0,1.61s-.2.72-.59.74c-1.2.05-1.72.7-1.9,1.83a1.25,1.25,0,0,0,.57,1.42c.16.09.23.06.31-.09a.6.6,0,0,0-.05-.58c-.44-.8-.41-.78.11-1.47A.84.84,0,0,1,36.89,22a1,1,0,0,0,1.37-.63c.07-.3,0-.69.37-.82a2.63,2.63,0,0,1,1.47-.05c.27.06.29.36.37.59a1,1,0,0,0,1.51.49.78.78,0,0,1,1.2.07c.7.66.71.64.33,1.54a1,1,0,0,0,.69,1.2,1.31,1.31,0,0,1,.91,1.8c-.1.26-.35.31-.57.38A1,1,0,0,0,44,28.09a.78.78,0,0,1-.1,1.2c-.66.68-.64.7-1.47.35a1,1,0,0,0-1.25.71.82.82,0,0,1-.87.86c-1,.07-1.06.07-1.32-.67a1,1,0,0,0-1.45-.45.75.75,0,0,1-1.12,0c-.81-.68-.84-.7-.56-1.33a1,1,0,0,0-.74-1.48,9.49,9.49,0,0,1-2.53-.46c-.3-.17-.35.07-.27.31.14.42.27.85.42,1.27a.57.57,0,0,1-.24.72l-1.51,1a.5.5,0,0,1-.74-.08,2,2,0,0,0-2.74-.55,1.07,1.07,0,0,0-.76.8c-.38,1.63-.27,1.32-1.69,1.33s-1.36.21-1.75-1.33c-.13-.47-.33-.76-.83-.8a.76.76,0,0,1-.37-.1,1.45,1.45,0,0,0-2.09.46.74.74,0,0,1-1.19.1,11.52,11.52,0,0,0-1.15-.77.69.69,0,0,1-.34-.93c.12-.31.22-.63.31-.95.05-.16.19-.33.07-.47s-.34,0-.51,0a1.68,1.68,0,0,0-.32.09c-1,.32-1,.32-1,1.36a.82.82,0,0,1-.77.94,1.1,1.1,0,0,0-.76,1.8.76.76,0,0,1-.16,1.15,2.92,2.92,0,0,0-.45.41c-.36.4-.7.36-1.12.07a1.12,1.12,0,0,0-1.84.71c-.13.5-.37.74-.89.67H9.52c-1,0-1,0-1.2-1a1.17,1.17,0,0,0-1.65-.69c-.28.16-.57.47-.91.23a2.87,2.87,0,0,1-1.07-1.17c-.12-.3.15-.55.3-.8A1.12,1.12,0,0,0,4.35,29c-.31-.09-.73-.08-.8-.48a2.47,2.47,0,0,1,.11-1.63c.14-.26.47-.26.74-.31a1.13,1.13,0,0,0,.71-1.7c-.43-.68-.42-.78.17-1.31a3.6,3.6,0,0,0,.41-.37.64.64,0,0,1,1-.08c.56.55,1.09.2,1.62,0,.29-.12.29-.43.33-.67a.78.78,0,0,1,1-.73c.15,0,.29,0,.44,0,.73,0,.87.14,1,.84a1.07,1.07,0,0,0,1.69.78c.49-.32.87-.36,1.23.14a1.2,1.2,0,0,0,.36.35c.19.12.27.55.57.32s.68-.51.42-1a.36.36,0,0,1,0-.11,2,2,0,0,0-2-2c-.37,0-.51-.32-.51-.68q0-.78,0-1.56c0-.45.2-.78.66-.8,1.11,0,1.53-.68,1.79-1.69A1.15,1.15,0,0,0,14.92,15c-.14-.12-.25-.27-.38-.4a.65.65,0,0,1-.08-.94c.18-.26.34-.53.5-.8.06-.09.15-.2,0-.3s-.21,0-.3.05c-.38.23-.7.47-.62,1a.54.54,0,0,1-.5.67,5,5,0,0,1-1,.2c-.44,0-.87.91-.72,1.46a2.86,2.86,0,0,1-2.2,3.71,1.27,1.27,0,0,1-.43.05c-.42,0-.57-.24-.41-.62s.4-.8.6-1.19a1.08,1.08,0,0,0-.34-1.12,1,1,0,0,0-1.14.35c-.2.36-.37.73-.58,1.08s-.59.43-.84-.07A2.85,2.85,0,0,1,8.14,14c.27-.09.56-.15.91-.24a1.06,1.06,0,0,1-.18-1.17A.92.92,0,0,0,8,11.55a1.2,1.2,0,0,1-1.12-1.43.64.64,0,0,1,.35-.46A1,1,0,0,0,7.42,8c-.56-.54-.06-.94.13-1.38s.49-.49.91-.35c.64.2,1.07-.18,1.16-.84a15.72,15.72,0,0,0-.09-1.91A8.76,8.76,0,0,0,7.2,5.66,11.13,11.13,0,0,0,5,15a2.47,2.47,0,0,1,0,.38.3.3,0,0,1-.26.31.28.28,0,0,1-.35-.21,5.45,5.45,0,0,1-.18-.8A11.59,11.59,0,0,1,8.84,3.14c.1-.08.24-.12.27-.27-.19-.15-.42-.07-.63-.14s-.34-.16-.32-.39.19-.3.4-.29h.11c2.3.18,1.83.3,1.54,2.06A2.82,2.82,0,0,1,10.14,4.43ZM36.53,19.86c0-1.13,0-1.13-1.07-1.39a4.15,4.15,0,0,0-.48-.11.59.59,0,0,1-.55-.53,7.46,7.46,0,0,0-.61-1.89.62.62,0,0,1,.17-.88c.4-.3.39-.59,0-.94s-.51-.73-.11-1.16a.27.27,0,0,0,.07-.25c-.06-.13-.19-.06-.29,0a9.48,9.48,0,0,0-.94.33.85.85,0,0,1-1.05-.23.72.72,0,0,1-.11-.9c.1-.22.14-.46.24-.68a.75.75,0,0,0-.35-1.1c-.82-.51-.8-.54-1.54.12a5.82,5.82,0,0,0-.45.4.59.59,0,0,1-.71.13,10.62,10.62,0,0,0-1.74-.54,1,1,0,0,1-.89-.88c-.34-1.4,0-1.16-1.6-1.19-.35,0-.54.15-.55.47,0,1.16-.73,1.52-1.77,1.83s-1.9.52-2.63-.51A.45.45,0,0,0,19,9.79c-1,.47-1.14.71-.78,1.75.07.19.12.39.19.58a.55.55,0,0,1-.1.56A.9.9,0,0,1,17.1,13c-1.33-.54-.93-.62-1.76.5-.33.44-.31.74.12,1.05a1.31,1.31,0,0,1,.45,2,.55.55,0,0,0-.1.31A1.7,1.7,0,0,1,14,18.63h-.06a.42.42,0,0,0-.4.5,3,3,0,0,1,0,.6c-.08.57.17.83.71.88.9.07,1.47.48,1.49,1.46a.71.71,0,0,0,.1.31,1.58,1.58,0,0,1-.49,2.39c-.27.19-.22.41-.06.68.69,1.12.68,1.12,1.93.72a1,1,0,0,0,.16-.06.66.66,0,0,1,.81.12c.25.27.44.53.26.93s-.16.57-.28.84c-.21.43-.1.69.32.94,1.07.63.71.75,1.71-.17.06-.06.14-.12.2-.19a.66.66,0,0,1,.89-.17,5.83,5.83,0,0,0,1.63.51,1,1,0,0,1,1,.92c.33,1.25,0,1.11,1.51,1.12h.06c.31,0,.52-.13.53-.43.06-1.14.69-1.53,1.76-1.83s1.89-.44,2.59.55c.18.25.42.23.68,0,1.25-.88,1.09-.5.66-1.85a1.66,1.66,0,0,0-.12-.31c-.19-.37,0-.62.23-.88a.65.65,0,0,1,.84-.18c.32.13.66.22,1,.34a.45.45,0,0,0,.66-.38c.06-.37.07-.71.49-.9.23-.11,0-.32-.08-.4a1.62,1.62,0,0,1-.48-2.48.11.11,0,0,0,0-.05c0-1.11.68-1.57,1.71-1.64C36.37,20.54,36.63,20.3,36.53,19.86ZM6,30.31a1.59,1.59,0,0,1-.42.69.48.48,0,0,0,.1.72c.21.21.41.43.7.16a1,1,0,0,1,1.44-.06,1.2,1.2,0,0,0,.45.19.75.75,0,0,1,.66.77c0,.41.19.63.65.64s.61-.27.64-.64a.67.67,0,0,1,.6-.68,1.53,1.53,0,0,0,.52-.18,1,1,0,0,1,1.44.13c.21.23.41.2.66,0s.44-.58.13-.93a.79.79,0,0,1-.1-1.1,1.22,1.22,0,0,0,.2-.45.94.94,0,0,1,1-.85.53.53,0,0,0,.58-.58c0-.4-.15-.6-.52-.62a.91.91,0,0,1-.94-.89,1.21,1.21,0,0,0-.16-.41A.87.87,0,0,1,13.75,25a.49.49,0,0,0,0-.8c-.3-.3-.56-.41-.88-.08a.78.78,0,0,1-1.13.07,1.24,1.24,0,0,0-.45-.21c-.54-.13-.89-.39-.85-1,0-.32-.17-.49-.53-.5s-.65,0-.67.46a1,1,0,0,1-.92,1,1.23,1.23,0,0,0-.46.18.8.8,0,0,1-1.14-.11.54.54,0,0,0-.86,0c-.31.3-.32.55,0,.84A.8.8,0,0,1,5.86,26a1.12,1.12,0,0,0-.18.4,1,1,0,0,1-1.06.89c-.31,0-.44.21-.43.52s0,.55.38.63.84.11,1,.67A10,10,0,0,0,6,30.31Zm37.07-7.76c0-.24-.2-.33-.36-.45a.34.34,0,0,0-.49.1.82.82,0,0,1-1.14.15,1.21,1.21,0,0,0-.42-.13.78.78,0,0,1-.76-.74c0-.32-.21-.42-.53-.4s-.46.17-.46.49a.76.76,0,0,1-.65.82,1.57,1.57,0,0,0-.55.27.67.67,0,0,1-.94,0,.45.45,0,0,0-.72.06c-.22.25-.15.44,0,.68a1.62,1.62,0,0,1-.69,2.28c-.3.11-.46.24-.45.59s.29.42.54.43a.84.84,0,0,1,.85.64,2.34,2.34,0,0,0,.25.5.71.71,0,0,1,0,.91c-.18.25-.24.47,0,.71a.44.44,0,0,0,.71,0,.71.71,0,0,1,1-.13,1.52,1.52,0,0,0,.52.17.72.72,0,0,1,.66.64c0,.25.11.5.49.46s.54-.22.54-.56a.69.69,0,0,1,.57-.71,2,2,0,0,0,.54-.27.7.7,0,0,1,1,0c.26.21.48.15.72-.09s.15-.5-.06-.71a.79.79,0,0,1-.13-1,1.48,1.48,0,0,0,.16-.46A.74.74,0,0,1,44,26c.26,0,.52-.09.48-.48a.53.53,0,0,0-.57-.53c-.23,0-.54,0-.61-.28-.19-.66-1.06-1.23-.29-2C43.05,22.64,43.05,22.59,43.07,22.55ZM9.71,18.87A2.13,2.13,0,0,0,11.13,16a1.17,1.17,0,0,1,.15-1.17c1.54-2.36,3.05-4.73,4.57-7.09.17-.26.3-.39-.12-.59a1.12,1.12,0,0,1-.16-1.7.94.94,0,0,0,.24-1c-2,3.22-4,6.37-6,9.53a1.17,1.17,0,0,1-1,.65A2,2,0,0,0,7,17.27c.38-.36.35-1,.89-1.21a2.24,2.24,0,0,1,1.53,0c.42.19.52.74.72,1.15C10.47,17.84,9.74,18.25,9.71,18.87Zm30-3.44c.24,0,.36-.21.35-.62a1.44,1.44,0,0,1,1.45-1.14c.22.06.44.23.64-.05s0-.46-.14-.67a1.32,1.32,0,0,1,.51-1.67c.22-.08.56,0,.54-.43s-.33-.33-.56-.42A1.33,1.33,0,0,1,42,8.67c.13-.15.32-.28.15-.52s-.37-.23-.63-.13A1.37,1.37,0,0,1,40,7c0-.24,0-.5-.27-.6s-.39.18-.53.36a1.43,1.43,0,0,1-1.85,0c-.13-.17-.2-.41-.5-.33s-.27.35-.28.59A1.41,1.41,0,0,1,35,8.12c-.2-.07-.39-.24-.59,0s-.05.44.11.63a1.43,1.43,0,0,1-.44,1.8c-.21.09-.51.07-.51.41s.3.32.51.41a1.38,1.38,0,0,1,.49,1.73c-.15.18-.31.34-.12.58s.36.19.59.1a1.29,1.29,0,0,1,1.53,1.1c0,.24,0,.44.29.52s.35-.11.47-.27a1.33,1.33,0,0,1,2,0C39.45,15.3,39.51,15.45,39.72,15.43Zm-17.09-9c.24,0,.46.11.56-.16s0-.33-.21-.45a1.39,1.39,0,0,1,0-2c.12-.1.25-.17.19-.35s-.19-.33-.37-.27c-.86.31-1.07-.53-1.56-.87-.14-.09-.11-.26-.07-.41s.14-.46-.15-.57-.37.15-.5.31a1.59,1.59,0,0,1-1.89,0c-.12-.15-.19-.4-.45-.32S18,1.7,18,1.93a1.65,1.65,0,0,1-1.44,1.29c-.21,0-.41-.1-.51.16s0,.38.23.48a.6.6,0,0,1,.33.74,1.4,1.4,0,0,0,0,.5.58.58,0,0,1-.37.75c-.19.07-.32.2-.23.43s.27.23.45.18a.72.72,0,0,1,.82.31,2.19,2.19,0,0,0,.43.43.7.7,0,0,1,.34.89.28.28,0,0,0,.14.38.36.36,0,0,0,.44-.12,1.47,1.47,0,0,1,2.2,0,.27.27,0,0,0,.33.1c.14-.05.27-.16.23-.28-.27-.7.32-1,.64-1.4A.58.58,0,0,1,22.63,6.43Zm-13,6.48c.11-.17.21-.35.33-.5a.74.74,0,0,0-.08-1.2,2.7,2.7,0,0,1-.33-3.28,2.85,2.85,0,0,1,3.31-1.27c.54.2.77,0,1-.39.06-.14.15-.26.22-.39s.32-.4,0-.6a.41.41,0,0,0-.65.16.81.81,0,0,1-1,.4,1.35,1.35,0,0,0-.45,0,.69.69,0,0,1-.74-.45c-.09-.23-.19-.45-.52-.33a.47.47,0,0,0-.33.61.7.7,0,0,1-.37.83,2.06,2.06,0,0,0-.43.35A.7.7,0,0,1,8.62,7c-.24-.11-.48-.17-.65.16s0,.49.26.63a.6.6,0,0,1,.28.76,2,2,0,0,0-.09.59A.75.75,0,0,1,7.9,10a.36.36,0,0,0-.28.46.41.41,0,0,0,.47.36c.22,0,.51-.1.63.09C9.09,11.56,10,11.94,9.61,12.91Zm.23-3.45a2,2,0,0,0,.45,1.3c.25.33.45.38.69,0,.6-1,1.2-1.91,1.83-2.85.23-.35.15-.51-.24-.62A2.17,2.17,0,0,0,9.84,9.46Zm7-2c-.12.25.11.37.12.54a3.33,3.33,0,0,0,.1.55.63.63,0,0,1-.4.8c-.77.44-.85.93-.26,1.57.21.22.35.44.15.73s0,.36.19.43l.53.18c.33.12.41,0,.33-.32a8.4,8.4,0,0,0-.34-1,.78.78,0,0,1,.38-1.14,2,2,0,0,0,.7-.56,2.21,2.21,0,0,0-.29-.13c-.56-.16-1-.39-.78-1.13C17.39,7.75,17.16,7.59,16.88,7.51ZM13.73,12.3a.84.84,0,0,0,.61-.28.68.68,0,0,1,.85-.15.4.4,0,0,0,.62-.14c.17-.28,0-.46-.18-.61a.71.71,0,0,1-.24-.89.62.62,0,0,0,0-.52Z" transform="translate(-3.47 -0.5)"/><path class="cls-1" d="M15.74,45.87c0,1,0,2,0,3,0,.6-.18.7-.76.54a1.91,1.91,0,0,1-1.51-1.57,17,17,0,0,0-.73-2.62c-.87-2.31-.54-4.71-.59-7.08,0-.54.35-.66.82-.66.75,0,.75,0,.75-.78,0-.26,0-.52,0-.78s0-.47.23-.59.47,0,.66.17a2.85,2.85,0,0,1,1.2,2.27,5,5,0,0,1,0,.55c0,.36.14.5.49.5s.51-.14.49-.49a6.77,6.77,0,0,1,0-.78A2.47,2.47,0,0,1,18,35.44c.48-.32.74-.17.78.43,0,.35,0,.7,0,1.05s.12.57.54.56c1.4,0,2.81,0,4.21,0h.56c.5,0,.72.25.68.72s.14.69.64.57c.11,0,.22,0,.33,0,1.24,0,1.1.11,1.11-1.15a5.77,5.77,0,0,0,0-.72,1.47,1.47,0,0,1,1-1.69c1.68-.87,3.31-1.82,4.94-2.76a1,1,0,0,1,1.18,0c1.79,1,3.6,2,5.41,3a.92.92,0,0,1,.56,1c0,.61,0,1.22,0,1.83,0,.35.11.5.47.52a29.65,29.65,0,0,0,3.77,0h.61c.45,0,.68.19.68.67,0,2,0,4,0,6v.06c0,.25,0,.58-.38.56s-.32-.31-.32-.55V43c0-.73,0-.73-.75-.73-1.18,0-2.36,0-3.54,0-.42,0-.56.15-.55.56,0,.72,0,1.44,0,2.16a.82.82,0,0,1-.47.85q-2.84,1.58-5.65,3.18A.76.76,0,0,1,33,49l-5.64-3.21a.81.81,0,0,1-.46-.81c0-.74,0-1.48,0-2.22,0-.35-.12-.52-.48-.49h-.56c-.91,0-.92,0-1,.89,0,.39-.29.46-.62.46-1.11,0-2.22,0-3.33,0a.69.69,0,0,0-.81.61c-.31,1.27-.67,2.53-1,3.8a1.92,1.92,0,0,1-1.69,1.45.42.42,0,0,1-.51-.39,4,4,0,0,1,0-.6c0-1.8,0-3.59,0-5.38,0-.39.15-.84-.55-.83s-.5.44-.51.8c0,.92,0,1.85,0,2.77Zm-1.32-9.62c0,.53,0,.93,0,1.33s-.18.58-.57.59c-.14,0-.29,0-.44,0-.42,0-.6.14-.59.57,0,.89,0,1.78,0,2.67-.11,2.4,1,4.52,1.49,6.78a.49.49,0,0,0,.55.38c.29,0,.17-.33.17-.5,0-1.85,0-3.7,0-5.55,0-.89.05-.93,1-.93H43c.25,0,.43-.06.47-.35s.07-.48.36-.48.32.26.33.48.09.36.34.34.26-.18.26-.36c0-.44,0-.89,0-1.33,0-.29-.16-.38-.42-.39-.55,0-1.11-.07-1.66-.07H24.42c-2.84,0-5.69-.06-8.54.05-.66,0-.82-.13-.83-.79,0-.36,0-.71,0-1.06A1.71,1.71,0,0,0,14.42,36.25Zm19,6.06h0c-1.74,0-3.47,0-5.21,0-.52,0-.69.17-.66.67a15.32,15.32,0,0,1,0,1.66.83.83,0,0,0,.49.84c1.63.91,3.25,1.82,4.87,2.75a.81.81,0,0,0,.92,0c1.5-.86,3-1.73,4.54-2.54a1.25,1.25,0,0,0,.82-1.42,7.39,7.39,0,0,1,0-1.33c0-.48-.14-.65-.63-.64C36.89,42.33,35.17,42.31,33.45,42.31Zm.28-6.41c0,.78,0,1.56,0,2.33,0,.35.12.49.48.52,1.52.12,3,0,4.54,0,.35,0,.5-.16.5-.5,0-.56,0-1.11,0-1.67a.67.67,0,0,0-.4-.66l-4.63-2.62c-.35-.2-.49-.14-.49.28C33.74,34.35,33.73,35.13,33.73,35.9Zm-.7,0h0c0-.76,0-1.52,0-2.27,0-.44-.11-.53-.5-.3-1,.6-2.08,1.19-3.13,1.77-1.85,1-1.85,1-1.81,3.1,0,.42.12.6.57.59,1.43,0,2.87,0,4.31-.06.4,0,.57-.16.56-.56C33,37.43,33,36.67,33,35.92ZM20.81,42.31h0c-.9,0-1.81,0-2.71,0-.47,0-.6.17-.6.62,0,1.73,0,3.47,0,5.21,0,.17-.1.43.13.48a.53.53,0,0,0,.57-.35,4.15,4.15,0,0,0,.22-.68c.36-1.3.72-2.6,1.06-3.91a.75.75,0,0,1,.85-.66c1,0,2.1,0,3.15,0,.24,0,.58.08.59-.32s-.37-.32-.61-.32C22.59,42.3,21.7,42.31,20.81,42.31Zm-2.69-6c-.77.7-.61,1.51-.6,2.27,0,.25.22.27.41.27H23.7c.26,0,.42-.1.41-.39s-.23-.29-.44-.3H19c-.8,0-.84,0-.84-.86C18.11,37,18.12,36.67,18.12,36.27Z" transform="translate(-3.47 -0.5)"/><path class="cls-1" d="M44.59,19.12l.57-.09a.33.33,0,0,1,.39.25.31.31,0,0,1-.24.38c-.5.12-1,.25-1.51.33-.33.05-.46-.19-.47-.49s0-.81,0-1.22c0-.2,0-.43.27-.47s.35.19.4.41,0,.17.09.35a10.18,10.18,0,0,0,1.57-3.78A10.8,10.8,0,0,0,40.7,3.38a2.36,2.36,0,0,1-.36-.26.27.27,0,0,1-.05-.39.27.27,0,0,1,.34-.13,3.45,3.45,0,0,1,.54.28,11.22,11.22,0,0,1,5.32,8.76,11,11,0,0,1-1.79,7.17l-.11.19Z" transform="translate(-3.47 -0.5)"/><path class="cls-1" d="M31.82,19.59a6.83,6.83,0,1,1-6.72-6.8A6.85,6.85,0,0,1,31.82,19.59Zm-12.9-.34a6.06,6.06,0,0,0,5.65,6.46,6.11,6.11,0,1,0,.77-12.2A6,6,0,0,0,18.92,19.25Z" transform="translate(-3.47 -0.5)"/><path class="cls-1" d="M9.62,24.72a3.24,3.24,0,1,1-3.2,3.21A3.21,3.21,0,0,1,9.62,24.72Zm.05.69a2.55,2.55,0,1,0,0,5.09,2.55,2.55,0,1,0,0-5.09Z" transform="translate(-3.47 -0.5)"/><path class="cls-1" d="M39.65,23a2.83,2.83,0,0,1,2.94,2.81,2.91,2.91,0,1,1-5.81,0A2.88,2.88,0,0,1,39.65,23Zm.12.69a2.16,2.16,0,0,0-2.29,2.17,2.26,2.26,0,0,0,2.21,2.24,2.21,2.21,0,0,0,2.21-2.22A2.1,2.1,0,0,0,39.77,23.64Z" transform="translate(-3.47 -0.5)"/><path class="cls-1" d="M41.38,10.91a3.09,3.09,0,1,1-6.17,0A3.15,3.15,0,0,1,38.3,7.79,3.11,3.11,0,0,1,41.38,10.91Zm-3.09,2.42a2.38,2.38,0,0,0,2.46-2.44,2.44,2.44,0,0,0-2.44-2.42A2.48,2.48,0,0,0,35.85,11,2.35,2.35,0,0,0,38.29,13.33Z" transform="translate(-3.47 -0.5)"/><path class="cls-1" d="M19.61,7.35a2.43,2.43,0,0,1-2.48-2.44,2.47,2.47,0,0,1,2.46-2.47A2.55,2.55,0,0,1,22,5,2.53,2.53,0,0,1,19.61,7.35Zm0-.7a1.71,1.71,0,0,0,1.76-1.74,1.77,1.77,0,1,0-3.53,0A1.68,1.68,0,0,0,19.59,6.65Z" transform="translate(-3.47 -0.5)"/><path class="cls-1" d="M25.38,22c0,.54,0,1.07,0,1.61,0,.23-.06.47-.35.47s-.35-.24-.35-.48c0-1,0-2,0-2.94,0-.55-.18-.7-.7-.68-.83,0-1.66,0-2.5,0A4,4,0,0,1,21,20c-.2,0-.37-.14-.36-.36s.18-.31.39-.31c.81,0,1.62-.12,2.43-.05,1.19.11,1.23.07,1.22-1.11,0-.73,0-1.47,0-2.21,0-.27-.07-.64.33-.65s.38.39.38.68c0,.92,0,1.85,0,2.77,0,.44.16.59.59.57.88,0,1.77,0,2.66,0h.27c.23,0,.48.08.47.37s-.26.36-.51.37H27.57c-.59,0-1.18,0-1.77,0-.32,0-.43.1-.42.41,0,.54,0,1.07,0,1.61Z" transform="translate(-3.47 -0.5)"/></svg>